<svg width="15.937500" height="15.937500" viewBox="0 0 15.9375 15.9375" fill="none" xmlns="http://www.w3.org/2000/svg" xmlns:xlink="http://www.w3.org/1999/xlink">
	<desc>
			Created with Pixso.
	</desc>
	<defs/>
	<path id="Vector" d="M7.96 4.37C7.25 4.37 6.56 4.58 5.97 4.98C5.38 5.37 4.92 5.93 4.64 6.59C4.37 7.25 4.3 7.97 4.44 8.66C4.58 9.36 4.92 10 5.42 10.5C5.92 11.01 6.57 11.35 7.26 11.49C7.96 11.63 8.68 11.56 9.34 11.28C10 11.01 10.56 10.55 10.95 9.96C11.35 9.37 11.56 8.67 11.56 7.96C11.56 7.01 11.18 6.1 10.5 5.42C9.83 4.75 8.92 4.37 7.96 4.37ZM7.96 10.62C7.44 10.62 6.92 10.46 6.49 10.17C6.05 9.88 5.71 9.47 5.51 8.98C5.31 8.5 5.26 7.96 5.36 7.45C5.46 6.93 5.71 6.46 6.08 6.09C6.46 5.71 6.93 5.46 7.44 5.36C7.96 5.26 8.5 5.31 8.98 5.51C9.46 5.71 9.88 6.05 10.17 6.49C10.46 6.92 10.62 7.44 10.62 7.96C10.62 8.67 10.34 9.34 9.84 9.84C9.34 10.34 8.67 10.62 7.96 10.62ZM11.71 0L4.21 0C3.1 0 2.02 0.44 1.23 1.23C0.44 2.02 0 3.1 0 4.21L0 11.71C0 12.83 0.44 13.9 1.23 14.7C2.02 15.49 3.1 15.93 4.21 15.93L11.71 15.93C12.83 15.93 13.91 15.49 14.69 14.7C15.49 13.9 15.93 12.83 15.93 11.71L15.93 4.21C15.93 3.1 15.49 2.02 14.69 1.23C13.91 0.44 12.83 0 11.71 0ZM15 11.71C15 12.58 14.65 13.42 14.03 14.03C13.42 14.65 12.58 15 11.71 15L4.21 15C3.34 15 2.51 14.65 1.89 14.03C1.28 13.42 0.93 12.58 0.93 11.71L0.93 4.21C0.93 3.34 1.28 2.51 1.89 1.89C2.51 1.28 3.34 0.93 4.21 0.93L11.71 0.93C12.58 0.93 13.42 1.28 14.03 1.89C14.65 2.51 15 3.34 15 4.21L15 11.71ZM12.81 3.9C12.81 4.06 12.76 4.21 12.67 4.33C12.59 4.46 12.47 4.56 12.33 4.62C12.18 4.68 12.03 4.7 11.87 4.67C11.72 4.64 11.58 4.56 11.48 4.45C11.37 4.34 11.29 4.2 11.26 4.05C11.23 3.9 11.25 3.75 11.3 3.6C11.36 3.46 11.46 3.34 11.59 3.25C11.72 3.17 11.87 3.12 12.03 3.12C12.23 3.12 12.43 3.2 12.58 3.35C12.73 3.5 12.81 3.69 12.81 3.9Z" fill="#FFFFFF" fill-opacity="1.000000" fill-rule="nonzero"/>
</svg>
