<svg width="17.187500" height="15.314453" viewBox="0 0 17.1875 15.3145" fill="none" xmlns="http://www.w3.org/2000/svg" xmlns:xlink="http://www.w3.org/1999/xlink">
	<desc>
			Created with Pixso.
	</desc>
	<defs/>
	<path id="Vector" d="M16.99 0.13C16.92 0.06 16.82 0.02 16.73 0C16.63 -0.01 16.53 0 16.44 0.03L0.6 6.23C0.41 6.3 0.25 6.44 0.14 6.62C0.03 6.79 -0.02 7 0 7.2C0.02 7.41 0.1 7.6 0.24 7.76C0.38 7.91 0.57 8.02 0.76 8.06L5 8.89L5 13.59C5 13.81 5.06 14.02 5.18 14.2C5.3 14.38 5.48 14.52 5.68 14.6C5.88 14.68 6.1 14.7 6.32 14.66C6.53 14.61 6.73 14.5 6.87 14.35L8.96 12.19L12.21 15.04C12.41 15.21 12.66 15.31 12.92 15.31C13.04 15.31 13.16 15.29 13.26 15.26C13.44 15.2 13.61 15.09 13.74 14.96C13.86 14.82 13.95 14.65 14 14.46L17.17 0.66C17.19 0.57 17.19 0.47 17.16 0.37C17.12 0.28 17.07 0.19 16.99 0.13ZM0.94 7.13C0.93 7.13 0.93 7.12 0.94 7.11C0.94 7.11 0.94 7.1 0.95 7.1L13.42 2.22L5.35 8L0.95 7.14L0.94 7.13ZM6.2 13.7C6.18 13.72 6.15 13.73 6.12 13.74C6.09 13.75 6.06 13.74 6.03 13.73C6 13.72 5.98 13.7 5.96 13.68C5.94 13.65 5.93 13.62 5.93 13.59L5.93 9.54L8.25 11.57L6.2 13.7ZM13.08 14.25C13.08 14.28 13.06 14.3 13.05 14.32C13.03 14.34 13 14.35 12.98 14.36C12.95 14.37 12.92 14.37 12.89 14.37C12.87 14.36 12.84 14.35 12.82 14.33L6.22 8.54L16.01 1.52L13.08 14.25Z" fill="#FFFFFF" fill-opacity="1.000000" fill-rule="nonzero"/>
</svg>
