<svg width="17.191406" height="13.437500" viewBox="0 0 17.1914 13.4375" fill="none" xmlns="http://www.w3.org/2000/svg" xmlns:xlink="http://www.w3.org/1999/xlink">
	<desc>
			Created with Pixso.
	</desc>
	<defs/>
	<path id="Vector" d="M11.35 6.32L7.6 3.82C7.53 3.78 7.44 3.75 7.36 3.75C7.28 3.74 7.19 3.76 7.12 3.8C7.04 3.84 6.98 3.9 6.94 3.97C6.89 4.05 6.87 4.13 6.87 4.21L6.87 9.21C6.87 9.3 6.89 9.38 6.94 9.45C6.98 9.53 7.04 9.59 7.12 9.63C7.19 9.67 7.28 9.69 7.36 9.68C7.44 9.68 7.53 9.65 7.6 9.6L11.35 7.1C11.41 7.06 11.47 7 11.5 6.94C11.54 6.87 11.56 6.79 11.56 6.71C11.56 6.64 11.54 6.56 11.5 6.49C11.47 6.42 11.41 6.37 11.35 6.32ZM7.81 8.34L7.81 5.09L10.25 6.71L7.81 8.34ZM16.75 2.18C16.68 1.92 16.55 1.68 16.37 1.47C16.19 1.27 15.96 1.11 15.71 1.01C13.04 -0.02 8.76 0 8.59 0C8.41 0 4.14 -0.02 1.47 1.01C1.21 1.11 0.99 1.27 0.81 1.47C0.63 1.68 0.5 1.92 0.43 2.18C0.23 2.95 0 4.37 0 6.71C0 9.06 0.23 10.47 0.43 11.25C0.5 11.51 0.63 11.75 0.81 11.96C0.99 12.16 1.22 12.32 1.47 12.42C4.14 13.45 8.41 13.43 8.59 13.43L8.64 13.43C9.18 13.43 13.17 13.4 15.71 12.42C15.96 12.32 16.19 12.16 16.37 11.96C16.55 11.75 16.68 11.51 16.75 11.25C16.95 10.47 17.19 9.06 17.19 6.71C17.19 4.36 16.95 2.95 16.75 2.18ZM15.84 11.01C15.81 11.13 15.75 11.24 15.67 11.33C15.58 11.43 15.48 11.5 15.37 11.55C12.87 12.51 8.64 12.5 8.59 12.5C8.54 12.5 4.32 12.51 1.81 11.54C1.7 11.5 1.59 11.43 1.51 11.33C1.43 11.24 1.37 11.13 1.34 11.01C1.16 10.29 0.93 8.96 0.93 6.71C0.93 4.47 1.16 3.14 1.34 2.42C1.37 2.3 1.43 2.19 1.51 2.09C1.59 2 1.69 1.93 1.81 1.88C4.22 0.95 8.24 0.93 8.57 0.93L8.59 0.93C8.63 0.93 12.86 0.92 15.37 1.88C15.48 1.93 15.58 2 15.67 2.09C15.75 2.19 15.8 2.3 15.83 2.42C16.02 3.14 16.24 4.47 16.24 6.72C16.24 8.97 16.02 10.29 15.84 11.01Z" fill="#FFFFFF" fill-opacity="1.000000" fill-rule="nonzero"/>
</svg>
