<svg width="78.617188" height="16.355957" viewBox="0 0 78.6172 16.356" fill="none" xmlns="http://www.w3.org/2000/svg" xmlns:xlink="http://www.w3.org/1999/xlink">
	<desc>
			Created with Pixso.
	</desc>
	<defs/>
	<path id="Subtract" d="M16.168 10.1562C15.0703 14.5381 10.6172 17.2036 6.21875 16.1113C1.82422 15.019 -0.851562 10.5815 0.246094 6.20068C1.33984 1.81885 5.79297 -0.847656 10.1914 0.244629C14.5898 1.33691 17.2656 5.7749 16.168 10.1562ZM10.0195 4.94922C11.1562 5.33936 11.9883 5.92432 11.8242 7.0127C11.707 7.80908 11.2656 8.19482 10.6758 8.33057C11.4844 8.75 11.8945 9.39258 11.5039 10.5068C11.0156 11.8906 9.86328 12.0073 8.32812 11.7178L7.95312 13.2056L7.05469 12.9819L7.42188 11.5142C7.1875 11.4561 6.94922 11.395 6.70312 11.3281L6.33594 12.8037L5.4375 12.5801L5.80859 11.0889C5.59766 11.0352 5.38281 10.9785 5.16797 10.9243L3.99609 10.6328L4.44141 9.60547C4.44141 9.60547 5.10547 9.78125 5.09766 9.76807C5.35156 9.83105 5.46484 9.66553 5.50781 9.55518L6.09766 7.20264L6.19141 7.22607C6.15625 7.21191 6.125 7.20264 6.09766 7.19629L6.51953 5.51709C6.53125 5.32617 6.46484 5.08594 6.10156 4.99512C6.11328 4.98535 5.44531 4.83301 5.44531 4.83301L5.68359 3.87451L6.92578 4.18359L6.92578 4.18848C7.11328 4.23438 7.30469 4.27832 7.5 4.32275L7.87109 2.84912L8.76953 3.07275L8.41016 4.51758C8.64844 4.57178 8.89062 4.62793 9.12891 4.68701L9.48828 3.25146L10.3906 3.4751L10.0195 4.94922ZM7.86328 7.40771C8.47656 7.57031 9.8125 7.92578 10.0469 6.99707C10.2852 6.04639 8.98438 5.75977 8.35156 5.61963C8.28125 5.604 8.21484 5.59033 8.16406 5.57764L7.71875 7.36914C7.75781 7.37939 7.80859 7.39258 7.86328 7.40771ZM7.17188 10.2935C7.90625 10.4868 9.51172 10.9102 9.76953 9.88721C10.0312 8.84277 8.47266 8.49414 7.71484 8.32422C7.62891 8.30518 7.55078 8.28809 7.49219 8.27295L6.99609 10.248C7.04688 10.2607 7.10547 10.2759 7.17188 10.2935Z" clip-rule="evenodd" fill="#A1A1A3" fill-opacity="1.000000" fill-rule="evenodd"/>
	<path id="Vector" d="M24.05 4.94C24.71 4.94 25.29 5.06 25.77 5.29C26.26 5.53 26.66 5.85 26.98 6.25C27.3 6.65 27.53 7.12 27.69 7.65C27.83 8.19 27.91 8.77 27.91 9.39C27.91 10.34 27.74 11.24 27.39 12.09C27.03 12.94 26.55 13.68 25.94 14.31C25.33 14.94 24.61 15.43 23.78 15.8C22.95 16.16 22.05 16.35 21.08 16.35C20.96 16.35 20.73 16.34 20.42 16.34C20.11 16.33 19.76 16.3 19.35 16.24C18.92 16.18 18.5 16.1 18.08 15.99C17.64 15.89 17.21 15.74 16.8 15.54L20.39 0.49L23.61 0L22.33 5.33C22.59 5.21 22.87 5.12 23.16 5.05C23.45 4.97 23.75 4.94 24.05 4.94ZM21.35 13.8C21.83 13.8 22.29 13.68 22.72 13.45C23.15 13.21 23.53 12.89 23.83 12.51C24.15 12.1 24.4 11.65 24.57 11.17C24.75 10.67 24.84 10.15 24.84 9.62C24.84 8.96 24.73 8.44 24.51 8.07C24.28 7.69 23.88 7.51 23.28 7.51C23.08 7.51 22.83 7.54 22.52 7.61C22.21 7.68 21.93 7.83 21.68 8.05L20.31 13.72C20.39 13.73 20.47 13.75 20.53 13.76C20.59 13.77 20.66 13.78 20.73 13.79C20.8 13.8 20.88 13.8 20.98 13.8L21.35 13.8ZM31.25 16.06L28.17 16.06L30.77 5.17L33.87 5.17L31.25 16.06ZM32.75 3.85C32.33 3.85 31.92 3.71 31.58 3.46C31.24 3.21 31.06 2.82 31.06 2.29C31.06 2 31.12 1.73 31.24 1.48C31.35 1.23 31.51 1 31.71 0.81C31.91 0.63 32.13 0.48 32.38 0.37C32.64 0.26 32.92 0.2 33.2 0.2C33.63 0.2 34.02 0.33 34.37 0.59C34.71 0.84 34.89 1.23 34.89 1.76C34.89 2.04 34.83 2.32 34.71 2.57C34.6 2.82 34.44 3.05 34.24 3.24C34.05 3.42 33.82 3.57 33.57 3.68C33.31 3.79 33.04 3.85 32.75 3.85ZM36.56 2.46L39.78 1.96L38.99 5.17L42.44 5.17L41.82 7.7L38.39 7.7L37.48 11.5C37.39 11.82 37.35 12.12 37.33 12.39C37.32 12.67 37.35 12.91 37.44 13.11C37.52 13.31 37.67 13.46 37.88 13.57C38.1 13.68 38.41 13.74 38.81 13.74C39.14 13.74 39.46 13.71 39.77 13.64C40.09 13.58 40.41 13.5 40.72 13.39L40.95 15.75C40.51 15.91 40.05 16.04 39.6 16.14C39.11 16.25 38.54 16.3 37.87 16.3C36.92 16.3 36.17 16.16 35.65 15.88C35.12 15.6 34.75 15.21 34.53 14.72C34.31 14.23 34.21 13.67 34.24 13.04C34.26 12.4 34.36 11.73 34.53 11.03L36.56 2.46ZM42.31 11.71C42.31 10.77 42.46 9.89 42.76 9.06C43.07 8.23 43.5 7.51 44.07 6.89C44.64 6.27 45.33 5.78 46.14 5.42C46.95 5.06 47.85 4.88 48.85 4.88C49.47 4.88 50.03 4.94 50.52 5.06C51.01 5.18 51.46 5.33 51.86 5.52L50.8 7.92C50.52 7.81 50.23 7.71 49.94 7.62C49.64 7.53 49.28 7.49 48.85 7.49C47.82 7.49 47.01 7.84 46.41 8.54C45.81 9.25 45.5 10.19 45.5 11.38C45.5 12.08 45.66 12.65 45.96 13.09C46.27 13.52 46.83 13.74 47.64 13.74C48.05 13.74 48.44 13.7 48.81 13.62C49.18 13.53 49.51 13.43 49.81 13.31L50.03 15.77C49.62 15.93 49.19 16.06 48.75 16.17C48.28 16.29 47.71 16.35 47.07 16.35C46.21 16.35 45.48 16.22 44.88 15.98C44.29 15.73 43.8 15.39 43.41 14.97C43.02 14.55 42.74 14.06 42.57 13.49C42.39 12.92 42.31 12.33 42.31 11.71ZM55.96 16.35C55.23 16.35 54.59 16.23 54.05 16.01C53.51 15.79 53.07 15.48 52.71 15.08C52.36 14.68 52.1 14.21 51.91 13.67C51.73 13.12 51.64 12.52 51.64 11.86C51.64 11.03 51.78 10.2 52.05 9.37C52.32 8.54 52.72 7.8 53.25 7.14C53.77 6.47 54.41 5.93 55.17 5.51C55.93 5.09 56.81 4.88 57.79 4.88C58.51 4.88 59.14 4.99 59.69 5.21C60.24 5.43 60.69 5.74 61.04 6.14C61.39 6.54 61.66 7.02 61.84 7.56C62.02 8.1 62.11 8.71 62.11 9.37C62.11 10.2 61.98 11.03 61.72 11.86C61.46 12.68 61.07 13.43 60.55 14.09C60.04 14.75 59.4 15.29 58.63 15.71C57.87 16.14 56.98 16.35 55.96 16.35ZM57.5 7.49C57.05 7.49 56.64 7.62 56.3 7.88C55.95 8.14 55.66 8.48 55.42 8.87C55.19 9.28 55.01 9.71 54.89 10.19C54.78 10.67 54.72 11.12 54.72 11.54C54.72 12.24 54.83 12.77 55.05 13.16C55.27 13.55 55.67 13.74 56.26 13.74C56.71 13.74 57.11 13.61 57.46 13.35C57.8 13.08 58.1 12.75 58.33 12.35C58.57 11.95 58.75 11.51 58.86 11.04C58.98 10.56 59.04 10.11 59.04 9.68C59.04 8.99 58.93 8.45 58.71 8.07C58.48 7.68 58.08 7.49 57.5 7.49ZM65.46 16.06L62.39 16.06L64.98 5.17L68.08 5.17L65.46 16.06ZM66.96 3.85C66.54 3.85 66.13 3.71 65.79 3.46C65.45 3.21 65.27 2.82 65.27 2.29C65.27 2 65.33 1.73 65.45 1.48C65.56 1.23 65.72 1 65.92 0.81C66.12 0.63 66.34 0.48 66.59 0.37C66.85 0.26 67.13 0.2 67.41 0.2C67.84 0.2 68.23 0.33 68.58 0.59C68.92 0.84 69.1 1.23 69.1 1.76C69.1 2.05 69.03 2.32 68.92 2.57C68.8 2.83 68.65 3.05 68.45 3.24C68.26 3.42 68.03 3.57 67.78 3.68C67.52 3.79 67.25 3.85 66.96 3.85ZM70.3 5.67C70.53 5.6 70.79 5.52 71.07 5.43C71.39 5.33 71.71 5.25 72.03 5.18C72.38 5.1 72.78 5.04 73.21 4.99C73.65 4.94 74.14 4.92 74.69 4.92C76.32 4.92 77.44 5.39 78.05 6.33C78.67 7.27 78.78 8.55 78.37 10.18L76.96 16.06L73.87 16.06L75.24 10.3C75.32 9.94 75.39 9.6 75.44 9.26C75.48 8.92 75.48 8.62 75.42 8.37C75.37 8.12 75.24 7.9 75.04 7.75C74.84 7.59 74.53 7.51 74.12 7.51C73.71 7.51 73.3 7.55 72.89 7.63L70.87 16.06L67.78 16.06L70.3 5.67Z" fill="#A1A1A3" fill-opacity="1.000000" fill-rule="nonzero"/>
</svg>
