<svg width="50.015625" height="30.686035" viewBox="0 0 50.0156 30.686" fill="none" xmlns="http://www.w3.org/2000/svg" xmlns:xlink="http://www.w3.org/1999/xlink">
	<desc>
			Created with Pixso.
	</desc>
	<defs/>
	<path id="Subtract" d="M50.0156 15.3433C50.0156 6.86914 43.1836 0 34.7539 0C31.1992 -0.00537109 27.7578 1.2417 25.0234 3.52393C22.3789 1.31299 18.9688 0 15.2617 0C6.83203 0 0 6.86963 0 15.3433C0 23.8169 6.83203 30.686 15.2617 30.686C18.9688 30.686 22.3789 29.3726 25.0234 27.1621C27.7578 29.4443 31.1992 30.6914 34.7539 30.686C43.1836 30.686 50.0156 23.8169 50.0156 15.3433ZM34.7539 1.12695C42.5664 1.12695 48.8984 7.4917 48.8984 15.3433C48.8984 23.1943 42.5664 29.5586 34.7539 29.5586C31.3672 29.5586 28.2812 28.3662 25.8477 26.3677C27.7031 24.5649 29.1211 22.3071 29.8828 19.7554L28.7109 19.7554C27.9727 22.0244 26.6797 24.0259 25 25.6318C23.3047 24.0117 22.0391 21.9951 21.3125 19.7622L20.1367 19.7622C20.8867 22.2671 22.2617 24.5376 24.1289 26.3574C21.7031 28.3359 18.6328 29.5586 15.2617 29.5586C7.45312 29.5586 1.12109 23.1938 1.12109 15.3428C1.12109 7.4917 7.45312 1.12695 15.2617 1.12695C18.6328 1.12695 21.7031 2.34961 24.1289 4.32764C22.2617 6.14795 20.8867 8.41846 20.1367 10.9233L21.3125 10.9233C22.0391 8.69043 23.3047 6.67383 25 5.05322C26.6797 6.65967 27.9727 8.66162 28.7109 10.9302L29.8828 10.9302C29.1211 8.37842 27.7031 6.12061 25.8477 4.31787C28.2812 2.31934 31.3672 1.12695 34.7539 1.12695Z" clip-rule="evenodd" fill="#A1A1A3" fill-opacity="1.000000" fill-rule="evenodd"/>
	<path id="Subtract" d="M19.5781 12.0762L21.0039 12.0762L20.7109 13.4697L21.4766 13.4697L21.2227 14.6069L20.4922 14.6069L20.0898 16.7334C20.0156 17.1372 20.0547 17.5039 20.875 17.3755L20.7852 18.439C20.4727 18.6406 20.0547 18.6958 19.7266 18.6958C19.3984 18.6958 18.3203 18.4937 18.5938 17.0635L19.5781 12.0762ZM25.7461 16.3301C25.9102 15.4863 26.293 13.3965 23.793 13.3965C21.4961 13.3965 21.2031 15.689 21.1484 16.0186C21.0938 16.3486 21.0586 18.6772 23.5195 18.6772C24.1211 18.6958 24.9961 18.6226 25.3438 18.439L25.5625 17.3574C25.3438 17.4121 24.5234 17.4858 23.957 17.4858C23.9414 17.4858 23.9258 17.4858 23.9102 17.4858C23.3398 17.4868 22.4844 17.4883 22.6445 16.3301L25.7461 16.3301ZM38.5 18.6733L39.4766 13.4126L40.7109 13.4126L40.8398 13.9312C41.0625 13.6719 41.4844 13.4126 42.2031 13.4126L41.8164 14.7832C41.8008 14.7832 41.7812 14.7832 41.7617 14.7827C41.4023 14.7783 40.7812 14.77 40.3789 16.2651L39.9375 18.6733L38.5 18.6733ZM24.5039 15.377L22.7344 15.377C22.8984 14.7168 23.3008 14.4233 23.8672 14.4233C24.4336 14.4233 24.5977 14.8633 24.5039 15.377Z" clip-rule="evenodd" fill="#A1A1A3" fill-opacity="1.000000" fill-rule="evenodd"/>
	<path id="Subtract" d="M9 18.6772L10.1875 12.3325L7.85156 12.3325L6.12109 16.1836L5.84766 12.3325L3.56641 12.3325L2.34375 18.6772L3.76562 18.6772L4.64062 14.0933L5.02344 18.6772L6.375 18.6772L8.36328 14.2031L7.52344 18.6772L9 18.6772ZM18.2305 14.6431L18.5586 13.5796C17.9688 13.3555 17.4922 13.3691 17.2461 13.376C17.2109 13.377 17.1797 13.3779 17.1562 13.3779L17.1445 13.3779C16.9062 13.3774 15.2422 13.3755 14.9844 14.625C14.7852 15.5967 15.1367 15.9995 15.4766 16.1465C16.0234 16.3853 16.3359 16.6055 16.625 16.752C16.9883 16.9336 16.9219 17.5405 16.4453 17.5405C16.4062 17.5405 16.3477 17.5439 16.2695 17.5483C15.9062 17.5684 15.1523 17.6094 14.5664 17.4126L14.3633 18.4941C15.0195 18.6777 15.5508 18.6777 16.043 18.6777C16.0586 18.6777 16.0781 18.6777 16.0977 18.6777C16.5391 18.6826 18.0977 18.6982 18.3242 17.1924C18.4375 16.4233 18.1055 16.0737 17.832 15.9087C17.5586 15.7251 17.1016 15.4688 16.8086 15.3398C16.5156 15.2119 16.2969 14.7168 16.8281 14.5703C17.1562 14.5327 17.832 14.5327 18.2305 14.6431ZM10.5703 13.5615L10.3516 14.6982C10.4336 14.689 10.5547 14.6738 10.6914 14.6558C11.125 14.6001 11.7461 14.5195 12.1211 14.5327C12.168 14.5347 12.2148 14.5356 12.2617 14.5366C12.7109 14.5454 13.1445 14.5537 12.9961 15.2661C12.9492 15.271 12.8672 15.2686 12.7539 15.2651C12.0078 15.2427 10.0273 15.1826 9.67578 17.0996C9.51172 18.1826 10.4414 18.7324 11.1719 18.6953C11.9023 18.6587 12.1016 18.5669 12.3594 18.3838L12.5391 18.6768L13.8711 18.6768L14.4375 15.8164C14.582 15.1016 14.8203 13.3774 12.4297 13.3774C11.9922 13.3965 11.5 13.3779 10.5703 13.5615ZM12.668 16.3145C12.7031 16.3203 12.7344 16.3262 12.7578 16.3301L12.6484 16.8989C12.5586 17.376 11.8828 17.6802 11.4297 17.5039C10.9531 17.3203 11.082 16.7705 11.5352 16.4585C11.9414 16.1821 12.4023 16.2661 12.668 16.3145Z" clip-rule="evenodd" fill="#A1A1A3" fill-opacity="1.000000" fill-rule="evenodd"/>
	<path id="Subtract" d="M45.7539 14.02C45.4805 13.8179 45.3164 13.3965 44.6406 13.3965C44.6016 13.3965 44.5586 13.396 44.5117 13.3955C43.7305 13.3877 42.5977 13.377 41.9414 15.6333C41.4805 17.2271 42.418 18.6772 43.4375 18.6772C43.9141 18.6592 44.3867 18.4575 44.6797 18.2559L44.8633 18.6772L46.3945 18.6772L47.6328 12.0029L46.1367 12.0029L45.7539 14.02ZM33.625 13.7993C33.2578 13.5796 33.0039 13.543 32.5312 13.543C32.0547 13.543 30.9961 13.999 30.7969 15.2852C30.5586 16.8071 31.6016 17.5586 33.0586 17.064L33.4805 18.3472C33.0039 18.5674 32.5312 18.6772 31.7461 18.6772C30.2695 18.6772 28.6641 17.3574 29.3906 14.6797C29.9297 12.7065 31.6172 11.9844 32.6016 12.0205C33.7695 12.0645 34.1914 12.4609 34.5547 12.8643L33.625 13.7993ZM45.1523 14.8813C45.3086 15.0928 45.3906 15.6885 45.2461 16.165C44.9883 16.8066 44.6602 17.2285 44.1328 17.2285C43.6406 17.2285 43.2031 16.6602 43.4023 15.9082C43.707 14.7588 44.7148 14.2949 45.1523 14.8813Z" clip-rule="evenodd" fill="#A1A1A3" fill-opacity="1.000000" fill-rule="evenodd"/>
	<path id="Subtract" d="M34.6484 13.5615L34.4297 14.6982C34.5117 14.6895 34.6289 14.6738 34.7695 14.6562L34.7695 14.6562C35.1992 14.6001 35.8242 14.5195 36.1992 14.5332C36.2461 14.5347 36.293 14.5356 36.3398 14.5366C36.7891 14.5454 37.2227 14.5537 37.0742 15.2661C37.0273 15.271 36.9414 15.2686 36.832 15.2651C36.0859 15.2427 34.1016 15.1831 33.7539 17.1001C33.5898 18.1826 34.5195 18.7324 35.25 18.6958C35.9805 18.6587 36.1797 18.5669 36.4336 18.3838L36.6172 18.6768L37.9492 18.6768L38.5156 15.8164C38.6602 15.1016 38.8984 13.3774 36.5078 13.3774C36.0703 13.3965 35.5781 13.3779 34.6484 13.5615ZM36.7461 16.3145C36.7773 16.3208 36.8086 16.3262 36.8359 16.3306L36.7266 16.8989C36.6367 17.3765 35.9609 17.6807 35.5039 17.5039C35.0312 17.3203 35.1562 16.7705 35.6133 16.4585C36.0195 16.1821 36.4805 16.2661 36.7461 16.3145Z" clip-rule="evenodd" fill="#A1A1A3" fill-opacity="1.000000" fill-rule="evenodd"/>
	<path id="Vector" d="M25.78 18.67L26.75 13.46L27.97 13.46L28.1 13.98C28.32 13.72 28.74 13.46 29.45 13.46L29.08 14.84C28.74 14.84 28.07 14.73 27.64 16.29L27.21 18.67L25.78 18.67Z" fill="#A1A1A3" fill-opacity="1.000000" fill-rule="evenodd"/>
</svg>
