<svg width="102.000000" height="40.000000" viewBox="0 0 102 40" fill="none" xmlns="http://www.w3.org/2000/svg" xmlns:xlink="http://www.w3.org/1999/xlink">
	<desc>
			Created with Pixso.
	</desc>
	<defs>
		<clipPath id="clip12_2526">
			<rect id="Logo Payment/Tether (USDT)" rx="0.000000" width="101.907181" height="39.907181" transform="translate(0.046409 0.046409)" fill="white" fill-opacity="0"/>
		</clipPath>
	</defs>
	<rect id="Logo Payment/Tether (USDT)" rx="0.000000" width="101.907181" height="39.907181" transform="translate(0.046409 0.046409)" fill="#FFFFFF" fill-opacity="0"/>
	<g clip-path="url(#clip12_2526)">
		<path id="Subtract" d="M18.1992 32.3853C24.9102 32.3853 30.3516 26.9263 30.3516 20.1929C30.3516 13.459 24.9102 8.00049 18.1992 8.00049C11.4883 8.00049 6.04688 13.459 6.04688 20.1929C6.04688 26.9263 11.4883 32.3853 18.1992 32.3853ZM19.4961 16.7563L19.4961 18.561C22.8594 18.7178 25.3789 19.3926 25.3789 20.1929C25.3789 20.9932 22.8594 21.6523 19.4805 21.7935L19.4805 27.5991L16.4961 27.5991L16.4961 21.7935C13.1484 21.6367 10.6133 20.9775 10.6133 20.1772C10.6133 19.377 13.1328 18.7178 16.4961 18.561L16.4961 16.7563L12.3672 16.7563L12.3672 13.9946L23.625 13.9946L23.625 16.7563L19.4961 16.7563ZM18.0117 21.354C18.9805 21.354 19.418 21.3228 19.4961 21.3228C22.4531 21.1816 24.6758 20.6636 24.6758 20.0518C24.6758 19.4238 22.4531 18.9062 19.4961 18.7808L19.4961 20.8047C19.4023 20.8208 18.9492 20.8521 18.0273 20.8521C17.2617 20.8521 16.6992 20.8208 16.5117 20.8047L16.5117 18.7808C13.5547 18.9062 11.332 19.4238 11.332 20.0518C11.332 20.6792 13.5391 21.1973 16.5117 21.3228C16.6992 21.3384 17.2461 21.354 18.0117 21.354Z" clip-rule="evenodd" fill="#FFFFFF" fill-opacity="1.000000" fill-rule="evenodd"/>
		<path id="Vector" d="M40.69 14.74L40.69 17.68L43.52 17.68L43.52 19.87L40.66 19.87L40.66 24.33C40.66 25.32 41.2 25.79 41.99 25.79C42.38 25.79 42.85 25.66 43.22 25.48L43.92 27.66C43.19 27.96 42.6 28.08 41.81 28.1C39.58 28.17 38.12 26.9 38.12 24.33L38.12 19.87L36.2 19.87L36.2 17.68L38.12 17.68L38.12 15.01L40.69 14.74ZM89.63 17.54L89.82 18.73C90.61 17.46 91.67 17.27 92.71 17.27C93.77 17.27 94.79 17.69 95.35 18.26L94.21 20.47C93.69 20.03 93.21 19.8 92.38 19.8C91.05 19.8 89.82 20.5 89.82 22.42L89.82 27.86L87.26 27.86L87.26 17.54L89.63 17.54ZM83.39 21.49C83.21 20.16 82.18 19.48 80.71 19.48C79.33 19.48 78.21 20.16 77.83 21.49L83.39 21.49ZM77.8 23.61C77.98 24.88 79.07 25.81 80.87 25.81C81.81 25.81 83.04 25.44 83.62 24.85L85.25 26.46C84.17 27.59 82.39 28.14 80.82 28.14C77.27 28.14 75.16 25.95 75.16 22.64C75.16 19.5 77.29 17.24 80.64 17.24C84.07 17.24 86.23 19.37 85.83 23.62L77.8 23.62L77.8 23.61ZM66.57 13.21L66.57 18.93C67.5 17.74 68.62 17.38 69.78 17.38C72.7 17.38 73.99 19.37 73.99 22.4L73.99 27.85L71.44 27.85L71.44 22.43C71.44 20.55 70.45 19.75 69.11 19.75C67.6 19.75 66.56 21.02 66.56 22.57L66.56 27.85L64.01 27.85L64.01 13.21L66.57 13.21ZM59.82 14.62L59.82 17.55L62.65 17.55L62.65 19.75L59.78 19.75L59.78 24.2C59.78 25.19 60.33 25.66 61.11 25.66C61.51 25.66 61.98 25.54 62.35 25.35L63.05 27.53C62.32 27.83 61.73 27.96 60.94 27.97C58.71 28.05 57.25 26.78 57.25 24.2L57.25 19.75L55.33 19.75L55.33 17.55L57.25 17.55L57.25 14.9L59.82 14.62ZM52.78 21.49C52.6 20.16 51.57 19.48 50.1 19.48C48.73 19.48 47.6 20.16 47.23 21.49L52.78 21.49ZM47.19 23.61C47.37 24.88 48.46 25.81 50.26 25.81C51.2 25.81 52.43 25.44 53.01 24.85L54.64 26.46C53.56 27.59 51.78 28.14 50.21 28.14C46.66 28.14 44.55 25.95 44.55 22.64C44.55 19.5 46.68 17.24 50.01 17.24C53.45 17.24 55.59 19.37 55.2 23.62L47.19 23.62L47.19 23.61Z" fill="#FFFFFF" fill-opacity="1.000000" fill-rule="nonzero"/>
	</g>
</svg>
