<svg width="51.667969" height="16.746094" viewBox="0 0 51.668 16.7461" fill="none" xmlns="http://www.w3.org/2000/svg" xmlns:xlink="http://www.w3.org/1999/xlink">
	<desc>
			Created with Pixso.
	</desc>
	<defs/>
	<path id="Vector" d="M33.65 0C29.98 0 26.7 1.9 26.7 5.41C26.7 9.44 32.51 9.72 32.51 11.74C32.51 12.6 31.54 13.36 29.87 13.36C27.5 13.36 25.73 12.29 25.73 12.29L24.98 15.84C24.98 15.84 27.01 16.74 29.72 16.74C33.73 16.74 36.89 14.75 36.89 11.17C36.89 6.91 31.05 6.64 31.05 4.76C31.05 4.1 31.85 3.36 33.51 3.36C35.39 3.36 36.92 4.14 36.92 4.14L37.66 0.71C37.66 0.71 36 0 33.65 0ZM0.08 0.25L0 0.77C0 0.77 1.54 1.05 2.93 1.62C4.72 2.26 4.85 2.64 5.15 3.81L8.43 16.47L12.83 16.47L19.62 0.25L15.23 0.25L10.87 11.28L9.09 1.93C8.92 0.86 8.1 0.25 7.09 0.25L0.08 0.25ZM21.39 0.25L17.94 16.47L22.13 16.47L25.56 0.25L21.39 0.25L21.39 0.25ZM44.75 0.25C43.74 0.25 43.2 0.79 42.81 1.74L36.67 16.47L41.07 16.47L41.92 14.02L47.27 14.02L47.78 16.47L51.66 16.47L48.28 0.25L44.75 0.25ZM45.32 4.64L46.62 10.72L43.14 10.72L45.32 4.64Z" fill="#A1A1A3" fill-opacity="1.000000" fill-rule="nonzero"/>
</svg>
