<svg width="55.136719" height="20.737305" viewBox="0 0 55.1367 20.7373" fill="none" xmlns="http://www.w3.org/2000/svg" xmlns:xlink="http://www.w3.org/1999/xlink">
	<desc>
			Created with Pixso.
	</desc>
	<defs/>
	<path id="Vector" d="M12.58 20.51L15.26 12.73L17.91 12.73L20.58 20.51L18.49 20.51L18.09 19.11L15.08 19.11L14.67 20.51L12.58 20.51ZM15.53 17.61L17.64 17.61L16.86 15.04C16.81 14.91 16.78 14.8 16.75 14.67L16.59 14C16.55 14.18 16.51 14.37 16.46 14.55C16.42 14.72 16.38 14.88 16.33 15.04L15.53 17.61ZM21.32 20.51L21.32 12.73L23.36 12.73L26.3 16.72C26.35 16.81 26.44 16.97 26.57 17.22C26.71 17.47 26.85 17.76 27 18.09C26.95 17.8 26.92 17.52 26.91 17.23C26.89 16.98 26.88 16.75 26.88 16.56L26.88 12.71L28.92 12.71L28.92 20.5L26.88 20.5L23.94 16.47C23.88 16.39 23.78 16.23 23.65 15.98C23.52 15.73 23.37 15.44 23.23 15.1C23.27 15.42 23.3 15.72 23.32 15.96C23.33 16.21 23.35 16.45 23.35 16.63L23.35 20.48L21.32 20.48L21.32 20.51ZM30.92 18.01C31.25 18.37 31.55 18.63 31.85 18.81C32.16 18.98 32.47 19.07 32.77 19.07C33.05 19.07 33.28 19 33.47 18.84C33.66 18.69 33.75 18.49 33.75 18.25C33.75 17.99 33.67 17.8 33.51 17.66C33.35 17.51 33.01 17.36 32.44 17.22C31.68 17.01 31.14 16.75 30.82 16.42C30.5 16.08 30.36 15.63 30.36 15.06C30.36 14.32 30.6 13.7 31.1 13.24C31.59 12.77 32.23 12.54 33.03 12.54C33.46 12.54 33.86 12.6 34.26 12.71C34.64 12.83 35 13 35.35 13.24L34.68 14.77C34.46 14.58 34.21 14.42 33.94 14.3C33.7 14.2 33.44 14.14 33.18 14.14C32.93 14.14 32.71 14.2 32.55 14.33C32.41 14.43 32.31 14.61 32.32 14.8C32.32 14.99 32.39 15.15 32.53 15.26C32.67 15.38 32.93 15.5 33.34 15.6L33.44 15.63C34.3 15.86 34.87 16.12 35.14 16.4C35.33 16.59 35.46 16.82 35.57 17.09C35.67 17.35 35.71 17.66 35.71 17.98C35.71 18.81 35.43 19.46 34.9 19.97C34.36 20.47 33.63 20.73 32.73 20.73C32.19 20.73 31.69 20.64 31.25 20.46C30.81 20.27 30.37 19.99 29.96 19.6C29.98 19.58 30.92 18.01 30.92 18.01ZM36.89 20.51L36.89 12.73L41.65 12.73L41.65 14.45L38.96 14.45L38.96 15.8L41.5 15.8L41.5 17.47L38.96 17.47L38.96 20.53L36.89 20.51ZM42.8 20.51L42.8 12.73L47.55 12.73L47.55 14.45L44.86 14.45L44.86 15.8L47.41 15.8L47.41 17.47L44.86 17.47L44.86 18.78L47.55 18.78L47.55 20.53L42.8 20.51ZM48.96 20.51L48.96 12.73L51.17 12.73C52.05 12.73 52.64 12.77 53 12.84C53.33 12.92 53.64 13.06 53.88 13.25C54.16 13.47 54.38 13.73 54.52 14.07C54.67 14.4 54.75 14.77 54.75 15.16C54.75 15.76 54.61 16.26 54.32 16.63C54.03 17.01 53.59 17.26 53.02 17.39L55.13 20.53L52.75 20.53L50.97 17.48L50.97 20.53L48.96 20.51ZM50.94 16.42L51.33 16.42C51.79 16.42 52.12 16.34 52.34 16.18C52.54 16.02 52.66 15.79 52.66 15.45C52.66 15.06 52.56 14.78 52.37 14.62C52.18 14.46 51.85 14.37 51.38 14.37L50.96 14.37L50.96 16.42L50.94 16.42ZM24.16 0.08L25.57 5.42C25.64 5.67 25.7 5.92 25.76 6.18C25.82 6.44 25.88 6.73 25.93 7.08C26.01 6.69 26.08 6.35 26.12 6.09C26.18 5.83 26.23 5.61 26.28 5.42L27.61 0.08L30.69 0.08L27.52 11.33L24.68 11.33L23.3 6.53C23.24 6.35 23.17 6.03 23.05 5.54C23 5.32 22.97 5.14 22.94 5.03L22.83 5.48C22.75 5.83 22.66 6.18 22.57 6.53L21.21 11.33L18.34 11.33L15.18 0.08L18.27 0.08L19.55 5.46C19.6 5.74 19.66 6.02 19.72 6.29C19.78 6.57 19.84 6.85 19.88 7.14C20 6.57 20.13 6.02 20.28 5.46L21.69 0.08C21.7 0.08 24.16 0.08 24.16 0.08ZM31.83 11.33L31.83 0.08L34.91 0.08L34.91 11.33L31.83 11.33ZM37.37 11.33L37.37 0.08L40.57 0.08C41.82 0.08 42.69 0.14 43.19 0.26C43.68 0.37 44.1 0.56 44.47 0.84C44.88 1.15 45.2 1.56 45.4 2.02C45.62 2.5 45.72 3.03 45.72 3.6C45.72 4.47 45.5 5.17 45.08 5.73C44.66 6.27 44.03 6.63 43.22 6.81L46.27 11.34L42.82 11.34L40.25 6.94L40.25 11.34L37.37 11.34L37.37 11.33ZM40.24 5.39L40.8 5.39C41.46 5.39 41.94 5.27 42.24 5.06C42.55 4.84 42.69 4.47 42.69 3.99C42.69 3.42 42.55 3.03 42.27 2.79C41.98 2.56 41.51 2.45 40.85 2.45L40.24 2.45L40.24 5.39ZM47.44 11.33L47.44 0.08L54.3 0.08L54.3 2.55L50.42 2.55L50.42 4.5L54.08 4.5L54.08 6.91L50.42 6.91L50.42 8.8L54.3 8.8L54.3 11.33L47.44 11.33ZM13.98 0L0 0L0 2.23L13.98 2.23L13.98 0ZM13.98 4.33L0 4.33L0 6.56L13.98 6.56L13.98 4.33ZM13.98 9.04L0 9.04L0 11.27L13.98 11.27L13.98 9.04Z" fill="#A1A1A3" fill-opacity="1.000000" fill-rule="nonzero"/>
</svg>
