<svg width="176.000000" height="176.000000" viewBox="0 0 176 176" fill="none" xmlns="http://www.w3.org/2000/svg" xmlns:xlink="http://www.w3.org/1999/xlink">
	<desc>
			Created with Pixso.
	</desc>
	<defs>
		<clipPath id="clip12_2515">
			<rect id="Mask" rx="0.000000" width="175.000000" height="175.000000" transform="translate(0.500000 0.500000)" fill="white" fill-opacity="0"/>
		</clipPath>
	</defs>
	<g clip-path="url(#clip12_2515)">
		<path id="Vector" d="M104.48 63.53C104.04 64.26 103.89 64.85 103.6 65.15C100.51 69.41 97.42 73.68 94.18 77.8C94.03 77.95 93.74 78.1 93.3 78.39C93.01 78.24 92.42 78.24 91.98 78.1C90.94 77.8 90.06 77.21 89.03 76.92C86.83 76.04 84.62 76.04 82.41 76.18C80.94 76.33 79.62 76.92 78.44 77.65C75.64 79.42 73.73 81.63 72.85 84.87C72.11 87.66 72.41 90.31 73.29 92.96C74.17 95.61 76.08 97.37 78.29 98.84C80.64 100.46 83.15 100.61 85.8 100.46C88.44 100.32 90.65 99.58 92.71 98.11C93.15 97.81 93.45 97.37 93.3 96.78C92.27 96.2 90.65 96.78 89.62 95.46C89.03 94.28 89.33 92.81 89.33 91.34C89.33 88.84 89.03 86.34 89.62 83.84C90.06 83.69 90.65 83.39 91.09 83.39C97.86 83.39 104.48 83.39 111.25 83.39C111.99 83.39 112.58 83.69 112.87 84.28C113.31 87.07 113.31 97.67 113.02 103.85C111.55 106.79 109.49 109.59 106.69 111.94C104.19 114 101.54 115.62 98.75 116.94C95.07 118.71 91.09 119.74 86.97 119.74C85.8 119.74 84.62 119.74 83.44 119.74C79.03 119.74 74.91 118.56 70.93 116.8C67.25 115.03 63.87 112.82 60.93 109.88C56.95 105.47 54.3 100.46 53.13 94.72C52.98 93.69 52.69 92.66 52.54 91.63C52.39 90.31 52.25 88.99 52.39 87.66C52.69 85.45 52.98 83.25 53.42 81.04C55.48 72.95 60.04 66.47 67.11 61.91C71.82 58.82 77.11 57.2 82.71 57.2C83.74 57.2 84.76 57.2 85.8 57.2C90.94 57.2 95.66 58.67 100.22 60.73C101.84 61.17 103.16 62.06 104.48 63.53Z" fill="#594AF1" fill-opacity="0.160000" fill-rule="nonzero"/>
		<path id="Vector" d="" fill="#000000" fill-opacity="0" fill-rule="evenodd"/>
		<path id="Vector" d="M74.02 44.83C74.02 45.57 74.31 46.01 74.75 46.16C79.91 49.4 84.76 48.51 88.73 44.54C89.32 43.95 89.62 43.22 89.32 42.33C89.03 41.6 88.29 41.3 87.56 40.86C86.97 40.42 86.53 39.68 86.08 38.95C85.5 37.77 85.5 36.74 85.94 35.56C86.23 35.12 86.38 34.68 86.67 34.09C87.56 33.5 88.58 32.77 89.76 32.03C89.91 31.59 90.21 31 90.35 30.27C90.65 29.09 91.53 28.21 92.71 27.76C93 27.62 93.15 27.62 93.44 27.62C93.74 27.62 94.03 27.62 94.18 27.76C94.33 27.91 94.62 28.06 94.91 28.35C94.91 29.09 95.06 29.97 95.06 30.85C95.06 34.24 95.06 37.62 95.06 41.16C95.06 42.19 95.06 43.22 95.21 44.25C95.8 47.19 95.5 50.28 95.5 53.22C95.5 53.81 95.35 54.25 94.91 54.55C94.62 54.55 94.47 54.69 94.18 54.55C93 54.4 91.82 54.25 90.65 53.96C89.17 53.52 87.85 53.52 86.38 53.52C85.35 53.52 84.32 53.52 83.29 53.52C76.08 53.37 69.6 55.58 63.72 59.7C60.78 61.76 58.27 64.26 56.21 67.2C55.62 67.94 55.18 68.82 54.15 69.11C53.86 68.97 53.42 68.97 53.27 68.67C51.06 65.73 48.85 62.79 46.5 59.84C44.15 56.75 41.79 53.52 39.44 50.43C38.85 49.54 38.26 48.66 37.67 47.78C37.53 47.48 37.38 47.04 37.38 46.75C37.67 45.57 38.55 45.28 39.44 45.13C41.2 44.98 42.23 46.45 43.85 47.04C44.88 47.04 46.06 47.04 47.24 47.04C49.15 47.19 50.62 48.66 50.77 50.57C50.77 51.31 50.77 52.19 50.62 52.93C50.48 53.52 50.33 54.25 50.18 54.84C50.48 55.14 50.62 55.43 51.06 55.58C53.86 56.9 56.51 56.31 59.01 55.14C61.8 53.66 63.87 51.6 64.45 48.37C64.45 48.07 64.31 47.92 64.31 47.63C63.87 47.19 63.42 47.19 62.83 47.19C60.92 47.04 59.75 46.01 59.01 44.25C58.86 43.8 58.71 43.22 58.57 42.63C58.86 41.89 59.16 41.16 59.45 40.42C60.19 39.83 60.92 39.24 61.66 38.8C61.66 38.51 61.8 38.36 61.8 38.07C61.8 37.18 61.51 36.3 61.66 35.27C61.8 33.36 63.42 31.89 65.33 31.89C66.37 31.89 67.4 32.33 68.43 33.21C68.87 33.8 69.46 34.68 69.9 35.56C70.19 35.71 70.49 35.86 70.78 35.86C71.81 36.01 72.84 36.01 73.87 36.45C75.19 37.18 75.93 38.07 75.93 39.54C75.93 40.13 75.78 40.86 75.78 41.6C75.34 43.07 74.61 43.95 74.02 44.83Z" fill="#594AF1" fill-opacity="0.160000" fill-rule="nonzero"/>
		<path id="Vector" d="" fill="#000000" fill-opacity="0" fill-rule="evenodd"/>
		<path id="Vector" d="M8.97 25.56C8.67 25.12 8.38 24.67 8.08 24.38C7.35 23.64 6.46 23.06 5.58 22.32C5.14 21.58 4.7 20.85 4.26 19.97C3.08 17.61 3.37 15.4 4.7 13.2C6.02 11.14 7.79 9.66 10.29 9.08C11.91 8.63 13.53 8.19 15.29 8.19C15.88 8.19 16.62 8.19 17.35 7.75C17.65 7.16 18.09 6.28 18.53 5.4C18.83 5.25 19.27 4.96 19.71 4.66C20.74 4.81 21.62 5.1 22.06 5.84C22.65 6.87 21.62 8.05 22.5 9.22C23.09 9.52 23.83 9.81 24.71 10.25C25.59 10.69 26.62 11.14 27.51 11.73C29.42 12.75 30.6 14.52 31.48 16.43C32.22 18.2 32.22 19.97 31.78 21.88C31.19 24.09 29.86 25.7 27.36 26C26.18 25.85 25.15 25.56 23.98 25.12C22.06 24.23 21.33 22.91 21.77 21C21.92 20.26 22.21 19.52 22.36 18.94C22.21 17.61 21.48 17.17 20.59 16.88C19.41 16.58 18.24 16.58 17.21 17.17C16.17 18.79 16.17 19.82 17.21 21.14C18.09 22.32 19.27 23.2 20.44 23.94C22.06 24.97 23.68 26.15 25.3 27.32C27.07 28.5 28.25 30.27 29.13 32.18C29.71 33.8 29.86 35.27 29.13 36.74C28.69 37.62 28.25 38.65 27.8 39.39C25.59 41.3 23.09 42.19 20.44 42.04C18.83 42.04 17.35 41.89 15.59 42.19C15.29 42.63 15.15 43.07 14.85 43.51C14.56 43.95 14.41 44.39 14.26 44.83C13.08 45.42 12.06 45.42 11.32 44.69C10.44 43.66 11.17 42.33 10.58 41.3C10.29 41.16 10.14 40.86 9.85 40.71C9.41 40.42 8.82 40.27 8.38 40.13C6.02 39.39 3.96 38.21 1.9 36.59C1.61 36 1.02 35.27 0.58 34.53C-0.45 32.62 -0.45 30.85 0.28 28.79C0.87 27.03 1.9 25.85 3.82 25.41C4.26 25.26 4.55 25.26 4.99 25.12C6.02 25.12 7.5 25.26 8.97 25.56C9.55 26.73 10.73 27.47 10.88 29.38C10.88 29.68 10.73 30.41 10.58 31.15C10.58 31.59 10.73 32.18 10.73 32.62C11.91 33.8 13.23 33.65 14.41 33.21C15.44 31.74 15.44 31.74 14.85 29.53C14.56 29.09 14.12 28.65 13.67 28.21C13.23 27.76 12.64 27.32 12.2 27.03C11.17 26.15 10.14 25.56 8.97 25.56Z" fill="#594AF1" fill-opacity="0.160000" fill-rule="nonzero"/>
		<path id="Vector" d="" fill="#000000" fill-opacity="0" fill-rule="evenodd"/>
		<path id="Vector" d="M8.87 116.75C8.57 116.31 8.28 115.87 7.98 115.57C7.25 114.84 6.36 114.25 5.48 113.51C5.04 112.78 4.6 112.04 4.16 111.16C2.98 108.8 3.27 106.6 4.6 104.39C5.92 102.33 7.69 100.86 10.19 100.27C11.81 99.83 13.42 99.38 15.19 99.38C15.78 99.38 16.52 99.38 17.25 98.94C17.55 98.35 17.99 97.47 18.43 96.59C18.73 96.44 19.17 96.15 19.61 95.85C20.64 96 21.52 96.29 21.96 97.03C22.55 98.06 21.52 99.24 22.4 100.41C22.99 100.71 23.73 101 24.61 101.45C25.49 101.89 26.52 102.33 27.41 102.92C29.32 103.95 30.5 105.71 31.38 107.63C32.12 109.39 32.12 111.16 31.67 113.07C31.08 115.28 29.76 116.9 27.26 117.19C26.08 117.04 25.05 116.75 23.87 116.31C21.96 115.42 21.23 114.1 21.67 112.19C21.82 111.45 22.11 110.72 22.26 110.13C22.11 108.8 21.37 108.36 20.49 108.07C19.31 107.77 18.14 107.77 17.1 108.36C16.07 109.98 16.07 111.01 17.1 112.33C17.99 113.51 19.17 114.39 20.34 115.13C21.96 116.16 23.58 117.34 25.2 118.52C26.96 119.69 28.14 121.46 29.03 123.37C29.61 124.99 29.76 126.46 29.03 127.93C28.58 128.82 28.14 129.85 27.7 130.58C25.49 132.49 22.99 133.38 20.34 133.23C18.73 133.23 17.25 133.08 15.49 133.38C15.19 133.82 15.05 134.26 14.75 134.7C14.46 135.14 14.31 135.58 14.16 136.03C12.98 136.61 11.96 136.61 11.22 135.88C10.33 134.85 11.07 133.52 10.48 132.49C10.19 132.35 10.04 132.05 9.75 131.91C9.31 131.61 8.72 131.46 8.28 131.32C5.92 130.58 3.86 129.4 1.8 127.79C1.51 127.2 0.92 126.46 0.48 125.73C-0.55 123.81 -0.55 122.05 0.18 119.99C0.77 118.22 1.8 117.04 3.71 116.6C4.16 116.45 4.45 116.45 4.89 116.31C5.92 116.31 7.39 116.45 8.87 116.75C9.45 117.93 10.63 118.66 10.78 120.58C10.78 120.87 10.63 121.6 10.48 122.34C10.48 122.78 10.63 123.37 10.63 123.81C11.81 124.99 13.13 124.84 14.31 124.4C15.34 122.93 15.34 122.93 14.75 120.72C14.46 120.28 14.01 119.84 13.57 119.4C13.13 118.96 12.54 118.52 12.1 118.22C11.07 117.34 10.04 116.75 8.87 116.75Z" fill="#594AF1" fill-opacity="0.160000" fill-rule="nonzero"/>
		<path id="Vector" d="" fill="#000000" fill-opacity="0" fill-rule="evenodd"/>
		<path id="Vector" d="M147.48 101.88C147.45 101.35 147.41 100.83 147.3 100.42C147.03 99.42 146.57 98.47 146.17 97.39C146.16 96.53 146.14 95.67 146.2 94.69C146.36 92.06 147.71 90.29 149.96 89.04C152.14 87.92 154.41 87.53 156.87 88.27C158.49 88.7 160.11 89.13 161.64 90.01C162.15 90.3 162.79 90.67 163.65 90.66C164.2 90.29 165.02 89.75 165.84 89.21C166.17 89.23 166.7 89.19 167.23 89.16C168.05 89.8 168.67 90.5 168.68 91.35C168.68 92.54 167.19 93.05 167.37 94.51C167.73 95.06 168.23 95.68 168.77 96.5C169.31 97.33 169.98 98.22 170.46 99.17C171.6 101.02 171.73 103.14 171.54 105.24C171.3 107.14 170.41 108.67 169.07 110.1C167.46 111.72 165.5 112.46 163.19 111.46C162.25 110.75 161.5 109.98 160.7 109.01C159.48 107.29 159.51 105.77 160.85 104.33C161.34 103.77 161.97 103.28 162.39 102.84C162.92 101.62 162.51 100.87 161.89 100.18C161.02 99.33 160 98.75 158.81 98.74C157.11 99.63 156.6 100.52 156.82 102.18C157 103.64 157.58 105 158.23 106.22C159.12 107.92 159.93 109.75 160.75 111.58C161.68 113.48 161.82 115.6 161.63 117.7C161.33 119.39 160.72 120.74 159.35 121.65C158.52 122.19 157.63 122.86 156.88 123.28C154.01 123.83 151.4 123.35 149.18 121.9C147.78 121.09 146.58 120.22 144.9 119.6C144.42 119.83 144.08 120.14 143.6 120.37C143.13 120.61 142.78 120.92 142.43 121.23C141.12 121.15 140.23 120.63 139.96 119.63C139.71 118.29 141.01 117.52 141.01 116.33C140.83 116.05 140.85 115.73 140.67 115.45C140.43 114.98 140 114.55 139.69 114.21C138.02 112.39 136.82 110.34 135.85 107.91C135.89 107.25 135.75 106.32 135.73 105.46C135.79 103.29 136.67 101.76 138.34 100.35C139.74 99.11 141.22 98.61 143.09 99.18C143.55 99.27 143.8 99.42 144.26 99.51C145.15 100.03 146.35 100.89 147.48 101.88C147.4 103.2 148.05 104.42 147.23 106.15C147.08 106.41 146.58 106.97 146.09 107.54C145.87 107.92 145.7 108.5 145.48 108.88C145.91 110.49 147.13 111.03 148.37 111.23C150 110.47 150 110.47 150.59 108.27C150.56 107.74 150.4 107.14 150.23 106.53C150.07 105.93 149.78 105.25 149.55 104.78C149.1 103.5 148.5 102.47 147.48 101.88Z" fill="#594AF1" fill-opacity="0.160000" fill-rule="nonzero"/>
		<path id="Vector" d="" fill="#000000" fill-opacity="0" fill-rule="evenodd"/>
		<path id="Vector" d="M151.87 33.13C156.8 33.42 156.8 33.42 159.57 37.73C161.52 38.22 163.16 37.58 164.37 36.04C164.9 34.28 164.41 33.2 163.3 32.08C162.06 31.21 160.78 30.94 159.41 31.11C157.05 31.34 154.44 31.43 152.13 31.85C149.82 32.26 147.6 32.25 145.46 31.82C142.09 31.31 139.93 29.26 138.64 25.97C137.31 22.49 137.44 19.22 139.22 15.31C140.15 14.26 141.35 12.72 142.61 11.38C143.67 10.08 145.27 9.25 146.42 7.53C145.93 6.45 145.63 5.32 145.19 4.42C145.08 3.24 145.49 2.53 146.14 1.95C146.98 1.32 147.92 1.07 149.44 1.47C150.03 2.12 150.84 2.91 151.9 3.84C152.33 3.93 152.75 4.01 153.37 4.05C154.88 3.65 156.39 3.24 157.89 2.84C163.97 1.41 168.98 3.5 172.37 8.65C172.77 9.35 173.21 10.25 173.78 10.9C173.8 11.7 173.81 12.51 173.82 13.31C173.71 15.16 172.7 16.64 171.15 17.66C170.12 18.34 169.04 18.83 168.15 19.27C163.67 19.87 161.83 17.54 161.06 13.9C159.52 12.7 158.26 13.24 156.99 13.78C155.67 14.14 154.5 15.06 154.15 16.77C154.14 18.99 155.49 20.24 157.44 20.73C158.53 21.04 159.81 21.31 160.99 21.19C163.41 21.15 165.91 20.68 168.27 20.45C170.25 20.33 172.1 20.44 173.89 20.36C174.51 20.4 175.37 20.57 176.03 20.8C183.4 22.66 185.19 30.86 181.68 35.84C180.99 37.04 180.06 38.1 178.89 39.01C177.26 40.46 175.44 41.96 173.62 43.46C172.6 44.94 174.19 46.33 173.7 48.28C173.57 48.52 173.29 49 172.96 49.29C172.17 50.1 171.18 50.17 169.85 49.72C169.27 49.06 168.4 48.09 167.63 47.48C167.02 47.45 166.78 47.31 166.4 47.41C163.95 48.07 161.32 48.77 158.87 49.43C157.36 49.83 155.8 50.05 154.28 49.65C150.43 48.86 147.65 46.78 146.41 42.87C146.15 41.93 146.04 40.75 145.84 40C146.11 36.49 148.63 34.6 151.87 33.13Z" fill="#594AF1" fill-opacity="0.160000" fill-rule="nonzero"/>
		<path id="Vector" d="" fill="#000000" fill-opacity="0" fill-rule="evenodd"/>
		<path id="Vector" d="M84.63 167.03C88.16 168.2 88.16 168.2 89.34 171.88C90.66 172.62 91.99 172.47 93.16 171.59C93.9 170.41 93.75 169.53 93.16 168.5C92.43 167.62 91.55 167.17 90.51 167.03C88.75 166.73 86.84 166.29 85.07 166.14C83.3 166 81.69 165.56 80.21 164.82C77.86 163.79 76.68 161.88 76.39 159.23C76.1 156.43 76.83 154.08 78.89 151.58C79.77 150.99 80.95 150.1 82.13 149.37C83.16 148.63 84.48 148.34 85.66 147.31C85.51 146.43 85.51 145.54 85.37 144.81C85.51 143.92 85.96 143.48 86.54 143.19C87.28 142.89 88.01 142.89 89.05 143.48C89.34 144.07 89.78 144.81 90.37 145.69C90.66 145.84 90.96 145.98 91.4 146.13C92.58 146.13 93.75 146.13 94.93 146.13C99.64 146.28 102.88 148.78 104.35 153.2C104.5 153.78 104.64 154.52 104.94 155.11C104.79 155.7 104.64 156.28 104.5 156.87C104.05 158.2 103.02 159.08 101.7 159.52C100.82 159.82 99.93 159.96 99.2 160.11C95.81 159.67 94.93 157.61 95.08 154.81C94.19 153.64 93.16 153.78 92.14 153.93C91.1 153.93 90.07 154.37 89.49 155.55C89.05 157.17 89.78 158.35 91.1 159.08C91.84 159.52 92.72 159.96 93.6 160.11C95.37 160.55 97.28 160.7 99.05 160.99C100.52 161.29 101.85 161.73 103.17 162.02C103.61 162.17 104.2 162.47 104.64 162.76C109.65 165.56 109.35 171.88 105.82 174.83C105.09 175.56 104.2 176.15 103.17 176.59C101.7 177.33 100.08 178.06 98.46 178.8C97.43 179.68 98.32 181.01 97.58 182.33C97.43 182.48 97.14 182.77 96.84 182.92C96.11 183.36 95.37 183.21 94.49 182.63C94.19 182.04 93.75 181.15 93.31 180.57C92.87 180.42 92.72 180.27 92.43 180.27C90.51 180.27 88.46 180.27 86.54 180.27C85.37 180.27 84.19 180.12 83.16 179.54C80.51 178.21 78.89 176.15 78.75 173.06C78.75 172.33 78.89 171.44 78.89 170.85C79.77 168.35 81.98 167.47 84.63 167.03Z" fill="#594AF1" fill-opacity="0.160000" fill-rule="nonzero"/>
		<path id="Vector" d="" fill="#000000" fill-opacity="0" fill-rule="evenodd"/>
		<path id="Vector" d="M153.29 172.58C153.14 172.29 153 172.14 153 171.85C153 171.55 153.14 171.26 153.29 171.11C155.05 169.2 155.94 166.84 156.09 164.34C156.09 164.05 156.23 163.75 156.23 163.6C155.64 159.34 155.64 159.34 153 154.92C153.14 154.78 153.14 154.33 153.29 154.33C153.44 154.19 153.88 154.19 154.03 154.33C155.2 155.07 156.53 155.95 157.56 156.54C158 156.69 158.44 156.84 158.73 156.98C162.71 158.16 166.24 157.42 169.48 154.78C169.77 154.48 170.07 154.33 170.51 154.19C170.8 154.33 171.1 154.33 171.24 154.48C171.39 154.63 171.39 155.07 171.39 155.22C170.95 155.95 170.51 156.84 169.92 157.57C168.89 159.04 168.59 160.66 168.44 162.43C168.3 165.22 168.89 167.87 170.51 170.23C170.8 170.81 171.39 171.26 171.39 171.99C171.24 172.14 171.1 172.43 170.95 172.58C170.66 172.58 170.36 172.58 170.21 172.43C169.48 171.99 168.74 171.4 167.86 170.96C164.03 169.05 160.35 169.2 156.53 171.11C155.79 171.4 155.2 171.99 154.47 172.29C154.03 172.43 153.59 172.58 153.29 172.58Z" fill="#594AF1" fill-opacity="0.160000" fill-rule="nonzero"/>
		<path id="Vector" d="" fill="#000000" fill-opacity="0" fill-rule="evenodd"/>
		<path id="Vector" d="M-0.04 185.91C-0.19 185.62 -0.34 185.47 -0.34 185.18C-0.34 184.88 -0.19 184.59 -0.04 184.44C1.72 182.53 2.6 180.18 2.75 177.67C2.75 177.38 2.9 177.09 2.9 176.94C2.31 172.67 2.31 172.67 -0.34 168.26C-0.19 168.11 -0.19 167.67 -0.04 167.67C0.1 167.52 0.55 167.52 0.69 167.67C1.87 168.4 3.19 169.29 4.23 169.87C4.67 170.02 5.11 170.17 5.4 170.32C9.37 171.49 12.91 170.76 16.14 168.11C16.44 167.81 16.73 167.67 17.17 167.52C17.47 167.67 17.76 167.67 17.91 167.81C18.06 167.96 18.06 168.4 18.06 168.55C17.62 169.29 17.17 170.17 16.58 170.9C15.55 172.38 15.26 174 15.11 175.76C14.97 178.56 15.55 181.21 17.17 183.56C17.47 184.15 18.06 184.59 18.06 185.33C17.91 185.47 17.76 185.77 17.62 185.91C17.32 185.91 17.03 185.91 16.88 185.77C16.14 185.33 15.41 184.74 14.53 184.3C10.7 182.38 7.02 182.53 3.19 184.44C2.46 184.74 1.87 185.33 1.14 185.62C0.69 185.77 0.25 185.91 -0.04 185.91Z" fill="#594AF1" fill-opacity="0.160000" fill-rule="nonzero"/>
		<path id="Vector" d="" fill="#000000" fill-opacity="0" fill-rule="evenodd"/>
		<path id="Vector" d="M83.16 -5.34C83.07 -5.5 83 -5.58 83 -5.74C83 -5.9 83.07 -6.06 83.16 -6.14C84.12 -7.18 84.6 -8.46 84.67 -9.82C84.67 -9.98 84.76 -10.14 84.76 -10.22C84.44 -12.54 84.44 -12.54 83 -14.94C83.07 -15.02 83.07 -15.26 83.16 -15.26C83.23 -15.34 83.48 -15.34 83.55 -15.26C84.19 -14.86 84.92 -14.38 85.48 -14.06C85.71 -13.98 85.96 -13.9 86.12 -13.82C88.28 -13.18 90.19 -13.58 91.96 -15.02C92.12 -15.18 92.28 -15.26 92.51 -15.34C92.67 -15.26 92.83 -15.26 92.92 -15.18C93 -15.1 93 -14.86 93 -14.78C92.76 -14.38 92.51 -13.9 92.19 -13.5C91.64 -12.7 91.48 -11.82 91.39 -10.86C91.32 -9.34 91.64 -7.9 92.51 -6.62C92.67 -6.3 93 -6.06 93 -5.66C92.92 -5.58 92.83 -5.42 92.76 -5.34C92.6 -5.34 92.44 -5.34 92.35 -5.42C91.96 -5.66 91.55 -5.98 91.07 -6.22C89 -7.26 87 -7.18 84.92 -6.14C84.51 -5.98 84.19 -5.66 83.8 -5.5C83.55 -5.42 83.32 -5.34 83.16 -5.34Z" fill="#594AF1" fill-opacity="0.160000" fill-rule="nonzero"/>
		<path id="Vector" d="" fill="#000000" fill-opacity="0" fill-rule="evenodd"/>
	</g>
</svg>
