<svg width="50" height="50" viewBox="0 0 50 50" fill="none" xmlns="http://www.w3.org/2000/svg">
<path d="M15.1388 23.5083C15.0165 23.4018 14.8637 23.322 14.6803 23.2687C14.497 23.2088 14.317 23.1788 14.1404 23.1788C13.9434 23.1788 13.7635 23.2155 13.6005 23.2887C13.4375 23.3552 13.2948 23.4518 13.1726 23.5782C13.0571 23.6981 12.9654 23.8445 12.8975 24.0176C12.8296 24.1906 12.7956 24.377 12.7956 24.5767C12.7956 24.7764 12.833 24.9628 12.9077 25.1359C12.9824 25.3089 13.0843 25.4587 13.2133 25.5852C13.3424 25.705 13.4918 25.8015 13.6616 25.8747C13.8382 25.9413 14.0249 25.9746 14.2219 25.9746C14.4528 25.9746 14.6634 25.928 14.8535 25.8348C15.0437 25.735 15.2067 25.6018 15.3425 25.4354H14.7313V24.0375H17.3495V26.2542C17.1933 26.5271 17.0065 26.7767 16.7892 27.003C16.5718 27.2227 16.3273 27.4124 16.0557 27.5722C15.7908 27.7319 15.5021 27.8551 15.1897 27.9416C14.8773 28.0281 14.5547 28.0714 14.2219 28.0714C13.7329 28.0714 13.2711 27.9815 12.8364 27.8018C12.4017 27.6221 12.0214 27.3758 11.6954 27.0629C11.3762 26.7501 11.1215 26.3806 10.9313 25.9546C10.7479 25.5286 10.6562 25.0693 10.6562 24.5767C10.6562 24.0974 10.7445 23.6448 10.9211 23.2188C11.0977 22.7928 11.3388 22.4233 11.6444 22.1105C11.9569 21.791 12.3236 21.5413 12.7447 21.3616C13.1726 21.1752 13.631 21.082 14.12 21.082C14.5004 21.082 14.8298 21.1186 15.1082 21.1919C15.3867 21.2651 15.621 21.3483 15.8112 21.4415C16.0353 21.548 16.2221 21.6645 16.3715 21.791L15.1388 23.5083Z" fill="white"/>
<path d="M17.9125 21.2418H20.1741V26.1543H22.0487V27.9017H17.9125V21.2418Z" fill="white"/>
<path d="M21.9481 24.5767C21.9481 24.0974 22.0398 23.6448 22.2232 23.2188C22.4134 22.7928 22.6681 22.4233 22.9873 22.1105C23.3133 21.791 23.6936 21.5413 24.1283 21.3616C24.5629 21.1752 25.0248 21.082 25.5138 21.082C26.0028 21.082 26.4646 21.1752 26.8993 21.3616C27.334 21.5413 27.7109 21.791 28.0301 22.1105C28.3561 22.4233 28.6108 22.7928 28.7942 23.2188C28.9843 23.6448 29.0794 24.0974 29.0794 24.5767C29.0794 25.056 28.9843 25.5086 28.7942 25.9347C28.6108 26.3607 28.3561 26.7334 28.0301 27.053C27.7109 27.3658 27.334 27.6154 26.8993 27.8018C26.4646 27.9815 26.0028 28.0714 25.5138 28.0714C25.0248 28.0714 24.5629 27.9815 24.1283 27.8018C23.6936 27.6154 23.3133 27.3658 22.9873 27.053C22.6681 26.7334 22.4134 26.3607 22.2232 25.9347C22.0398 25.5086 21.9481 25.056 21.9481 24.5767ZM24.0875 24.5767C24.0875 24.7698 24.1249 24.9528 24.1996 25.1259C24.2743 25.2923 24.3762 25.4387 24.5052 25.5652C24.6343 25.6917 24.7837 25.7915 24.9535 25.8648C25.13 25.938 25.3168 25.9746 25.5138 25.9746C25.7107 25.9746 25.8941 25.938 26.0639 25.8648C26.2405 25.7915 26.3933 25.6917 26.5224 25.5652C26.6514 25.4387 26.7533 25.2923 26.828 25.1259C26.9027 24.9528 26.94 24.7698 26.94 24.5767C26.94 24.3837 26.9027 24.204 26.828 24.0375C26.7533 23.8645 26.6514 23.7147 26.5224 23.5882C26.3933 23.4617 26.2405 23.3619 26.0639 23.2887C25.8941 23.2155 25.7107 23.1788 25.5138 23.1788C25.3168 23.1788 25.13 23.2155 24.9535 23.2887C24.7837 23.3619 24.6343 23.4617 24.5052 23.5882C24.3762 23.7147 24.2743 23.8645 24.1996 24.0375C24.1249 24.204 24.0875 24.3837 24.0875 24.5767Z" fill="white"/>
<path d="M29.6421 21.2418H31.9853C32.4199 21.2418 32.8207 21.2984 33.1874 21.4115C33.561 21.5247 33.8836 21.6911 34.1552 21.9108C34.4269 22.1304 34.6374 22.4034 34.7869 22.7295C34.9431 23.049 35.0212 23.4185 35.0212 23.8378C35.0212 24.1707 34.9736 24.4536 34.8785 24.6866C34.7835 24.9195 34.6782 25.1126 34.5627 25.2657C34.4269 25.4387 34.2741 25.5852 34.1043 25.705L35.3777 27.9017H32.8308L31.8121 26.2142V27.9017H29.6421V21.2418ZM31.8121 24.5168H31.9241C32.1822 24.5168 32.3996 24.4602 32.5762 24.3471C32.7595 24.2339 32.8512 24.0442 32.8512 23.7779C32.8512 23.5117 32.7595 23.322 32.5762 23.2088C32.3996 23.0956 32.1822 23.0391 31.9241 23.0391H31.8121V24.5168Z" fill="white"/>
<path d="M36.6724 25.036L34.5636 21.2418H36.9781L37.7625 22.6496L38.5368 21.2418H40.9512L38.8424 25.036V27.9017H36.6724V25.036Z" fill="white"/>
<path d="M15.3668 17.9977C15.4369 17.9856 15.4965 18.0448 15.4957 18.1158L15.4635 21.0895C15.3588 21.0547 15.2465 21.0212 15.1266 20.9899C14.8279 20.9118 14.4741 20.8727 14.0661 20.8727C13.5416 20.8727 13.0494 20.9727 12.5905 21.1715C12.1389 21.3632 11.7458 21.6296 11.4108 21.9703C11.2108 22.1739 11.0358 22.3996 10.8873 22.6481L9.10024 20.0914C9.05981 20.0332 9.07578 19.952 9.14028 19.9225C9.41502 19.7971 9.59336 19.9122 9.69496 20.0494C9.74156 20.1124 9.83617 20.1343 9.90883 20.1051C9.92059 20.1004 9.93266 20.0962 9.94496 20.0924C10.2002 20.0135 10.4739 20.1625 10.5553 20.4254C10.6045 20.5846 10.5718 20.7492 10.4821 20.8717C10.4318 20.9403 10.4332 21.0485 10.5114 21.0817C10.7612 21.1872 11.0452 21.2098 11.3209 21.1246C11.7602 20.9889 12.0635 20.6165 12.1422 20.1832C12.1502 20.138 12.0993 20.1054 12.0553 20.1188C11.8257 20.1897 11.5798 20.0555 11.5065 19.819C11.4333 19.5823 11.5601 19.3324 11.7897 19.2613C11.8214 19.2516 11.8536 19.246 11.8854 19.2438C11.9065 19.2423 11.919 19.2134 11.9059 19.1969C11.869 19.1514 11.8413 19.0988 11.8239 19.0426C11.8065 18.9864 11.7996 18.9272 11.8043 18.8688C11.8092 18.8104 11.825 18.7534 11.8512 18.7018C11.8775 18.6501 11.9139 18.6041 11.9577 18.567C12.0015 18.5299 12.0524 18.5019 12.1071 18.485C12.1616 18.4682 12.219 18.4625 12.276 18.4684C12.3331 18.4743 12.3891 18.4923 12.4401 18.5201C12.4909 18.548 12.536 18.586 12.5729 18.6315C12.6098 18.677 12.6385 18.7295 12.6559 18.7858C12.6732 18.8419 12.6793 18.9013 12.6745 18.9596C12.6732 18.9805 12.6992 18.9964 12.7174 18.986C12.7449 18.9699 12.7756 18.9567 12.8073 18.9469C13.0369 18.8763 13.282 19.0111 13.3551 19.2477C13.4282 19.4843 13.3015 19.7333 13.0719 19.8043C13.0278 19.818 13.0043 19.874 13.0368 19.9069C13.3463 20.2201 13.8065 20.356 14.2457 20.2203C14.5213 20.1351 14.7437 19.9571 14.8903 19.7291C14.9361 19.6576 14.8757 19.5669 14.7955 19.5387C14.6524 19.4882 14.5332 19.3707 14.484 19.2115C14.4028 18.9485 14.5433 18.6713 14.7985 18.5924C14.8111 18.5885 14.8239 18.5854 14.8366 18.5826C14.913 18.5657 14.9781 18.4939 14.9811 18.4156C14.9877 18.2452 15.0698 18.0492 15.3668 17.9977Z" fill="white"/>
<path d="M18.6841 32.1601C18.37 32.1601 18.0873 32.0945 17.8361 31.9631C17.5876 31.829 17.3921 31.6434 17.2493 31.4065C17.1065 31.1696 17.0352 30.9013 17.0352 30.6015C17.0352 30.3018 17.1065 30.0335 17.2493 29.7966C17.3921 29.5596 17.5876 29.3755 17.8361 29.2442C18.0873 29.1101 18.37 29.043 18.6841 29.043C18.9582 29.043 19.2051 29.0915 19.425 29.1885C19.6448 29.2856 19.8276 29.4255 19.9732 29.6082L19.4336 30.0963C19.2394 29.8622 19.0038 29.7452 18.7269 29.7452C18.5641 29.7452 18.4185 29.7809 18.29 29.8522C18.1644 29.9236 18.0659 30.0249 17.9945 30.1562C17.926 30.2847 17.8917 30.4331 17.8917 30.6015C17.8917 30.77 17.926 30.9198 17.9945 31.0511C18.0659 31.1796 18.1644 31.2795 18.29 31.3508C18.4185 31.4222 18.5641 31.4579 18.7269 31.4579C19.0038 31.4579 19.2394 31.3409 19.4336 31.1068L19.9732 31.5949C19.8276 31.7776 19.6448 31.9175 19.425 32.0145C19.2051 32.1116 18.9582 32.1601 18.6841 32.1601Z" fill="white"/>
<path d="M22.3098 31.5178H21.042L20.8065 32.1002H19.9413L21.2647 29.1029H22.0999L23.4276 32.1002H22.5453L22.3098 31.5178ZM22.0614 30.8927L21.6759 29.9336L21.2904 30.8927H22.0614Z" fill="white"/>
<path d="M24.7216 32.1601C24.4789 32.1601 24.2433 32.1301 24.0149 32.0702C23.7865 32.0102 23.6009 31.9303 23.4581 31.8304L23.7365 31.2053C23.8707 31.2938 24.0263 31.3651 24.2034 31.4194C24.3804 31.4736 24.5546 31.5007 24.7259 31.5007C25.0514 31.5007 25.2141 31.4194 25.2141 31.2566C25.2141 31.171 25.167 31.1082 25.0728 31.0683C24.9814 31.0254 24.8329 30.9812 24.6274 30.9355C24.4018 30.887 24.2134 30.8356 24.062 30.7814C23.9107 30.7243 23.7808 30.6344 23.6723 30.5116C23.5638 30.3889 23.5095 30.2233 23.5095 30.0149C23.5095 29.8322 23.5595 29.6681 23.6594 29.5225C23.7594 29.3741 23.9078 29.2571 24.1049 29.1714C24.3047 29.0858 24.5488 29.043 24.8372 29.043C25.0342 29.043 25.2284 29.0658 25.4197 29.1115C25.611 29.1543 25.7795 29.2185 25.9251 29.3042L25.6638 29.9336C25.3783 29.7794 25.1013 29.7024 24.8329 29.7024C24.6645 29.7024 24.5417 29.7281 24.4646 29.7794C24.3875 29.828 24.349 29.8922 24.349 29.9721C24.349 30.052 24.3947 30.112 24.486 30.152C24.5774 30.1919 24.7244 30.2333 24.9272 30.2761C25.1556 30.3246 25.344 30.3775 25.4925 30.4345C25.6438 30.4888 25.7737 30.5773 25.8822 30.7C25.9936 30.8199 26.0493 30.984 26.0493 31.1924C26.0493 31.3723 25.9993 31.535 25.8994 31.6805C25.7994 31.8261 25.6495 31.9432 25.4497 32.0317C25.2498 32.1173 25.0071 32.1601 24.7216 32.1601Z" fill="white"/>
<path d="M26.441 29.1029H27.289V32.1002H26.441V29.1029Z" fill="white"/>
<path d="M30.7447 29.1029V32.1002H30.0466L28.7232 30.5031V32.1002H27.8923V29.1029H28.5904L29.9138 30.7V29.1029H30.7447Z" fill="white"/>
<path d="M32.8547 32.1601C32.5378 32.1601 32.2522 32.093 31.9981 31.9589C31.7469 31.8247 31.5484 31.6392 31.4028 31.4022C31.2601 31.1653 31.1887 30.8984 31.1887 30.6015C31.1887 30.3047 31.2601 30.0378 31.4028 29.8008C31.5484 29.5639 31.7469 29.3784 31.9981 29.2442C32.2522 29.1101 32.5378 29.043 32.8547 29.043C33.1716 29.043 33.4557 29.1101 33.707 29.2442C33.9611 29.3784 34.1596 29.5639 34.3023 29.8008C34.4479 30.0378 34.5207 30.3047 34.5207 30.6015C34.5207 30.8984 34.4479 31.1653 34.3023 31.4022C34.1596 31.6392 33.9611 31.8247 33.707 31.9589C33.4557 32.093 33.1716 32.1601 32.8547 32.1601ZM32.8547 31.4579C33.006 31.4579 33.1431 31.4222 33.2659 31.3508C33.3886 31.2795 33.4857 31.1796 33.5571 31.0511C33.6285 30.9198 33.6642 30.77 33.6642 30.6015C33.6642 30.4331 33.6285 30.2847 33.5571 30.1562C33.4857 30.0249 33.3886 29.9236 33.2659 29.8522C33.1431 29.7809 33.006 29.7452 32.8547 29.7452C32.7034 29.7452 32.5663 29.7809 32.4436 29.8522C32.3208 29.9236 32.2237 30.0249 32.1523 30.1562C32.0809 30.2847 32.0452 30.4331 32.0452 30.6015C32.0452 30.77 32.0809 30.9198 32.1523 31.0511C32.2237 31.1796 32.3208 31.2795 32.4436 31.3508C32.5663 31.4222 32.7034 31.4579 32.8547 31.4579Z" fill="white"/>
<path opacity="0.2" d="M0.960937 5L0.960938 1L4.96094 1" stroke="white" stroke-opacity="0.5"/>
<path opacity="0.2" d="M49 45V49H45" stroke="white" stroke-opacity="0.5"/>
<path opacity="0.2" d="M45 1L49 1V5" stroke="white" stroke-opacity="0.5"/>
<path opacity="0.2" d="M5 49H1L1 45" stroke="white" stroke-opacity="0.5"/>
</svg>
