<svg width="50" height="50" viewBox="0 0 50 50" fill="none" xmlns="http://www.w3.org/2000/svg">
<g clip-path="url(#clip0_4313_5982)">
<path d="M19.8334 28.571C19.6898 28.571 19.5571 28.5481 19.4353 28.5024C19.3154 28.455 19.2109 28.3891 19.1218 28.3048C19.0328 28.2187 18.9637 28.1177 18.9146 28.0017C18.8674 27.884 18.8438 27.7548 18.8438 27.6143C18.8438 27.4772 18.8692 27.3507 18.9201 27.2348C18.971 27.1188 19.0409 27.0186 19.13 26.9343C19.2209 26.8482 19.3272 26.7814 19.449 26.734C19.5726 26.6866 19.707 26.6628 19.8524 26.6628C19.9433 26.6628 20.0324 26.6743 20.1196 26.6971C20.2069 26.7199 20.2877 26.7542 20.3623 26.7999C20.4386 26.8438 20.504 26.8965 20.5585 26.958L20.275 27.2717C20.2368 27.233 20.196 27.1996 20.1523 27.1715C20.1105 27.1416 20.0642 27.1188 20.0133 27.103C19.9624 27.0872 19.9079 27.0793 19.8497 27.0793C19.777 27.0793 19.708 27.0924 19.6425 27.1188C19.5789 27.1434 19.5226 27.1794 19.4735 27.2268C19.4262 27.2725 19.389 27.3288 19.3617 27.3955C19.3345 27.4623 19.3208 27.537 19.3208 27.6195C19.3208 27.7004 19.3345 27.7741 19.3617 27.8409C19.389 27.9059 19.4271 27.9622 19.4762 28.0096C19.5253 28.057 19.5844 28.0931 19.6534 28.1177C19.7243 28.1423 19.8025 28.1546 19.8879 28.1546C19.946 28.1546 20.0015 28.1467 20.0542 28.1308C20.1069 28.115 20.1551 28.0939 20.1987 28.0676C20.2441 28.0395 20.2841 28.0079 20.3186 27.9727L20.5422 28.3153C20.4967 28.3645 20.4358 28.4084 20.3595 28.4471C20.285 28.4857 20.2014 28.5165 20.1087 28.5393C20.0178 28.5604 19.9261 28.571 19.8334 28.571Z" fill="white"/>
<path d="M21.4727 28.5443L22.2278 26.6995H22.6204L23.3701 28.5443H22.9012L22.5413 27.6087C22.5268 27.5718 22.5123 27.5323 22.4977 27.4901C22.4832 27.448 22.4686 27.4049 22.4541 27.361C22.4396 27.3153 22.425 27.2714 22.4105 27.2292C22.3978 27.1853 22.3869 27.1448 22.3777 27.108L22.4595 27.1053C22.4486 27.1492 22.4359 27.1923 22.4214 27.2345C22.4087 27.2766 22.395 27.3188 22.3805 27.361C22.3678 27.4014 22.3532 27.4427 22.3369 27.4848C22.3205 27.5253 22.3051 27.5674 22.2905 27.6114L21.9307 28.5443H21.4727ZM21.8325 28.1912L21.977 27.8538H22.8548L22.9966 28.1912H21.8325Z" fill="white"/>
<path d="M25.0991 28.5704C24.9737 28.5704 24.8601 28.5563 24.7583 28.5282C24.6584 28.4984 24.5693 28.4562 24.4912 28.4017C24.413 28.3455 24.3431 28.2796 24.2812 28.204L24.5621 27.8957C24.6529 28.0134 24.7438 28.0925 24.8347 28.1329C24.9274 28.1733 25.0228 28.1935 25.1209 28.1935C25.17 28.1935 25.2145 28.1873 25.2545 28.175C25.2945 28.1627 25.3254 28.1452 25.3472 28.1223C25.369 28.0977 25.3799 28.0679 25.3799 28.0327C25.3799 28.0064 25.3726 27.9827 25.3581 27.9616C25.3454 27.9405 25.3272 27.922 25.3036 27.9062C25.2799 27.8904 25.2518 27.8764 25.2191 27.8641C25.1863 27.85 25.1518 27.8386 25.1155 27.8298C25.0791 27.8193 25.0419 27.8105 25.0037 27.8034C24.8983 27.7806 24.8065 27.7525 24.7284 27.7191C24.6502 27.6857 24.5848 27.6453 24.5321 27.5979C24.4812 27.5487 24.443 27.4933 24.4176 27.4318C24.3921 27.3686 24.3794 27.2983 24.3794 27.221C24.3794 27.1384 24.3985 27.0628 24.4366 26.9943C24.4766 26.924 24.5293 26.8643 24.5948 26.8151C24.662 26.7642 24.7393 26.7255 24.8265 26.6992C24.9137 26.671 25.0046 26.657 25.0991 26.657C25.2245 26.657 25.3317 26.6702 25.4208 26.6965C25.5117 26.7211 25.5889 26.7571 25.6525 26.8046C25.718 26.852 25.7734 26.9091 25.8188 26.9759L25.5326 27.2421C25.4944 27.1964 25.4526 27.1586 25.4072 27.1287C25.3636 27.0989 25.3163 27.076 25.2654 27.0602C25.2163 27.0444 25.1655 27.0365 25.1127 27.0365C25.0582 27.0365 25.011 27.0435 24.971 27.0576C24.9328 27.0699 24.9028 27.0883 24.881 27.1129C24.8592 27.1358 24.8483 27.1639 24.8483 27.1973C24.8483 27.2271 24.8574 27.2526 24.8756 27.2737C24.8937 27.2948 24.9183 27.3141 24.9492 27.3317C24.9801 27.3475 25.0155 27.3616 25.0555 27.3739C25.0955 27.3844 25.1373 27.3932 25.1809 27.4002C25.2809 27.4195 25.3708 27.445 25.4508 27.4766C25.5326 27.5083 25.6025 27.5469 25.6607 27.5926C25.7207 27.6383 25.7661 27.6928 25.797 27.756C25.8297 27.8175 25.8461 27.8895 25.8461 27.9721C25.8461 28.1004 25.8134 28.2093 25.748 28.2989C25.6843 28.3868 25.5962 28.4544 25.4835 28.5019C25.3726 28.5475 25.2445 28.5704 25.0991 28.5704Z" fill="white"/>
<path d="M26.9883 28.5443V28.1675V27.0763V26.6995H27.4517V27.0763V28.1675V28.5443H26.9883Z" fill="white"/>
<path d="M28.625 28.5443V26.6995H29.0394L30.0399 28.0172L29.9499 28.004C29.9408 27.9461 29.9336 27.8907 29.9281 27.838C29.9227 27.7853 29.9172 27.7335 29.9118 27.6825C29.9081 27.6316 29.9045 27.5797 29.9009 27.527C29.8991 27.4743 29.8972 27.4172 29.8954 27.3557C29.8954 27.2942 29.8954 27.2275 29.8954 27.1554V26.6995H30.3452V28.5443H29.9254L28.8813 27.1844L29.0203 27.2029C29.0294 27.2872 29.0367 27.3592 29.0421 27.419C29.0494 27.4769 29.0548 27.5288 29.0585 27.5745C29.0639 27.6201 29.0675 27.6614 29.0694 27.6983C29.0712 27.7352 29.0721 27.7721 29.0721 27.809C29.0739 27.8442 29.0748 27.8837 29.0748 27.9276V28.5443H28.625Z" fill="white"/>
<path d="M32.3439 28.5704C32.1985 28.5704 32.0658 28.5467 31.9459 28.4992C31.8259 28.4518 31.7214 28.385 31.6324 28.2989C31.5433 28.2128 31.4742 28.1118 31.4252 27.9958C31.3761 27.8799 31.3516 27.7525 31.3516 27.6137C31.3516 27.4749 31.3761 27.3475 31.4252 27.2315C31.4742 27.1156 31.5433 27.0145 31.6324 26.9284C31.7214 26.8423 31.8259 26.7756 31.9459 26.7281C32.0658 26.6807 32.1976 26.657 32.3412 26.657C32.4848 26.657 32.6165 26.6807 32.7365 26.7281C32.8564 26.7756 32.9609 26.8423 33.05 26.9284C33.139 27.0145 33.2072 27.1156 33.2544 27.2315C33.3035 27.3475 33.3281 27.4749 33.3281 27.6137C33.3281 27.7507 33.3035 27.8781 33.2544 27.9958C33.2072 28.1118 33.139 28.2128 33.05 28.2989C32.9609 28.385 32.8564 28.4518 32.7365 28.4992C32.6165 28.5467 32.4857 28.5704 32.3439 28.5704ZM32.3412 28.1487C32.4157 28.1487 32.4838 28.1355 32.5456 28.1092C32.6092 28.0828 32.6638 28.0459 32.7092 27.9985C32.7565 27.9493 32.7928 27.8922 32.8182 27.8272C32.8437 27.7622 32.8564 27.691 32.8564 27.6137C32.8564 27.5364 32.8437 27.4652 32.8182 27.4002C32.7928 27.3352 32.7565 27.279 32.7092 27.2315C32.6638 27.1823 32.6092 27.1445 32.5456 27.1182C32.4838 27.0918 32.4157 27.0787 32.3412 27.0787C32.2667 27.0787 32.1976 27.0918 32.134 27.1182C32.0722 27.1445 32.0177 27.1823 31.9704 27.2315C31.9232 27.279 31.8868 27.3352 31.8613 27.4002C31.8377 27.4652 31.8259 27.5364 31.8259 27.6137C31.8259 27.691 31.8377 27.763 31.8613 27.8298C31.8868 27.8948 31.9232 27.951 31.9704 27.9985C32.0177 28.0459 32.0722 28.0828 32.134 28.1092C32.1976 28.1355 32.2667 28.1487 32.3412 28.1487Z" fill="white"/>
<path d="M18.8438 24.6909V20.991H20.4494C20.6988 20.991 20.9101 21.028 21.0833 21.102C21.2565 21.1724 21.3864 21.2764 21.4731 21.4138C21.5631 21.5477 21.6082 21.7098 21.6082 21.9001C21.6082 22.1115 21.5562 22.2895 21.4523 22.4339C21.3518 22.5784 21.2046 22.6753 21.0106 22.7247L21.0002 22.6242C21.163 22.6595 21.3033 22.7211 21.4211 22.8092C21.5423 22.8973 21.6359 23.0066 21.7017 23.1369C21.7675 23.2638 21.8004 23.4083 21.8004 23.5704C21.8004 23.7571 21.7693 23.921 21.7069 24.0619C21.6445 24.1994 21.5545 24.3156 21.4367 24.4108C21.3189 24.5059 21.1803 24.5764 21.021 24.6222C20.8651 24.668 20.6919 24.6909 20.5014 24.6909H18.8438ZM19.6752 23.9404H20.4702C20.5672 23.9404 20.6486 23.9245 20.7144 23.8928C20.7837 23.8611 20.8374 23.8153 20.8755 23.7554C20.9136 23.6919 20.9326 23.6162 20.9326 23.5281C20.9326 23.447 20.9119 23.3783 20.8703 23.3219C20.8322 23.2656 20.7768 23.2233 20.704 23.1951C20.6313 23.1634 20.5447 23.1475 20.4442 23.1475H19.6752V23.9404ZM19.6752 22.4762H20.3247C20.4148 22.4762 20.491 22.4621 20.5533 22.4339C20.6191 22.4022 20.6676 22.3599 20.6988 22.3071C20.7335 22.2507 20.7508 22.1838 20.7508 22.1062C20.7508 21.9935 20.7127 21.9054 20.6365 21.842C20.5603 21.775 20.4459 21.7415 20.2935 21.7415H19.6752V22.4762Z" fill="white"/>
<path d="M22.0742 24.6909L23.5136 20.991H24.2618L25.6908 24.6909H24.7971L24.1111 22.8145C24.0835 22.7405 24.0557 22.6612 24.028 22.5767C24.0003 22.4921 23.9726 22.4058 23.9449 22.3177C23.9172 22.226 23.8895 22.138 23.8617 22.0534C23.8375 21.9653 23.8167 21.8842 23.7994 21.8102L23.9553 21.805C23.9345 21.893 23.9102 21.9794 23.8825 22.064C23.8583 22.1485 23.8323 22.2331 23.8046 22.3177C23.7803 22.3987 23.7526 22.4815 23.7214 22.5661C23.6903 22.6471 23.6608 22.7317 23.6331 22.8198L22.9472 24.6909H22.0742ZM22.7601 23.9826L23.0355 23.3061H24.7087L24.9789 23.9826H22.7601Z" fill="white"/>
<path d="M26.1953 24.6909V20.991H26.9851L28.8922 23.6338L28.7207 23.6074C28.7034 23.4911 28.6895 23.3801 28.6791 23.2744C28.6687 23.1687 28.6583 23.0647 28.6479 22.9625C28.641 22.8603 28.6341 22.7564 28.6272 22.6507C28.6237 22.5449 28.6202 22.4304 28.6168 22.3071C28.6168 22.1838 28.6168 22.0499 28.6168 21.9054V20.991H29.4741V24.6909H28.6739L26.6837 21.9635L26.9488 22.0005C26.9661 22.1697 26.9799 22.3141 26.9903 22.4339C27.0042 22.5502 27.0146 22.6542 27.0215 22.7458C27.0319 22.8374 27.0388 22.9202 27.0423 22.9942C27.0458 23.0682 27.0475 23.1422 27.0475 23.2162C27.051 23.2867 27.0527 23.366 27.0527 23.4541V24.6909H26.1953Z" fill="white"/>
<path d="M32.1296 24.7436C31.8386 24.7436 31.5754 24.696 31.3398 24.6008C31.1043 24.5057 30.9016 24.3718 30.7319 24.1991C30.5621 24.0265 30.4322 23.8239 30.3421 23.5913C30.2521 23.3552 30.207 23.0997 30.207 22.8249C30.207 22.55 30.2538 22.2981 30.3473 22.069C30.4443 21.8364 30.5812 21.6338 30.7578 21.4612C30.9345 21.2885 31.1424 21.1546 31.3814 21.0595C31.6239 20.9643 31.8872 20.9167 32.1712 20.9167C32.3721 20.9167 32.5609 20.9432 32.7376 20.996C32.9177 21.0489 33.0806 21.1211 33.2261 21.2127C33.3716 21.3044 33.4945 21.4101 33.595 21.5299L33.0598 22.106C32.9732 22.0214 32.8831 21.951 32.7896 21.8946C32.6995 21.8382 32.6025 21.7942 32.4986 21.7624C32.3947 21.7272 32.2838 21.7096 32.166 21.7096C32.0136 21.7096 31.8733 21.7378 31.7451 21.7942C31.6204 21.8505 31.5096 21.9298 31.4126 22.032C31.319 22.1307 31.2463 22.2487 31.1943 22.3862C31.1424 22.5201 31.1164 22.6663 31.1164 22.8249C31.1164 22.9834 31.1441 23.1314 31.1995 23.2689C31.2549 23.4063 31.3312 23.5261 31.4281 23.6283C31.5251 23.7269 31.6395 23.8062 31.7711 23.8661C31.9062 23.9225 32.05 23.9507 32.2024 23.9507C32.3098 23.9507 32.4102 23.9331 32.5038 23.8979C32.6008 23.8626 32.6839 23.815 32.7532 23.7551C32.8225 23.6952 32.8779 23.6248 32.9195 23.5437C32.961 23.4591 32.9818 23.3693 32.9818 23.2741V23.1367L33.0962 23.3164H32.0933V22.6134H33.8028C33.8098 22.6522 33.815 22.7051 33.8184 22.772C33.8219 22.839 33.8236 22.9041 33.8236 22.9676C33.8271 23.031 33.8288 23.0786 33.8288 23.1103C33.8288 23.3499 33.7855 23.5701 33.6989 23.771C33.6158 23.9683 33.498 24.1392 33.3456 24.2837C33.1931 24.4282 33.013 24.5409 32.8052 24.622C32.5973 24.703 32.3721 24.7436 32.1296 24.7436Z" fill="white"/>
<path d="M34.5586 24.6909V20.991H37.0943V21.7574H35.416V23.9245H37.1462V24.6909H34.5586ZM34.9743 23.1739V22.4445H36.8606V23.1739H34.9743Z" fill="white"/>
<path d="M37.9609 24.6909V20.991H39.5977C39.8298 20.991 40.0394 21.0421 40.2267 21.1443C40.4172 21.2464 40.5662 21.3874 40.6733 21.5671C40.7807 21.7433 40.8346 21.9441 40.8346 22.1697C40.8346 22.4022 40.7807 22.6119 40.6733 22.7987C40.5662 22.9819 40.4188 23.1264 40.2319 23.2321C40.0446 23.3378 39.8333 23.3906 39.5977 23.3906H38.8028V24.6909H37.9609ZM39.9771 24.6909L39.0521 23.0207L39.9563 22.8885L40.9852 24.6909H39.9771ZM38.8028 22.7035H39.5198C39.61 22.7035 39.6879 22.6841 39.7538 22.6454C39.823 22.6031 39.8749 22.5449 39.9096 22.4709C39.9476 22.3969 39.9667 22.3124 39.9667 22.2172C39.9667 22.1221 39.946 22.0393 39.9044 21.9688C39.8629 21.8948 39.8022 21.8384 39.7226 21.7997C39.6464 21.7609 39.5529 21.7415 39.4419 21.7415H38.8028V22.7035Z" fill="white"/>
<path d="M15.0135 20.9167H10.6401C9.73428 20.9167 9 21.651 9 22.5568V26.9303C9 27.8361 9.73428 28.5704 10.6401 28.5704H15.0135C15.9193 28.5704 16.6536 27.8361 16.6536 26.9303V22.5568C16.6536 21.651 15.9193 20.9167 15.0135 20.9167Z" fill="url(#paint0_linear_4313_5982)"/>
<path fill-rule="evenodd" clip-rule="evenodd" d="M10.7741 22.011C10.4004 22.011 10.0977 22.314 10.0977 22.6877V26.8012C10.0977 27.0505 10.2322 27.2686 10.4329 27.386C10.5333 27.4445 10.6497 27.4778 10.7741 27.4778H14.8881C15.2618 27.4778 15.5645 27.1749 15.5645 26.8012V22.6877C15.5645 22.314 15.2618 22.011 14.8881 22.011H10.7741ZM14.587 22.9909C14.4925 22.9039 14.366 22.8505 14.2272 22.8497C13.9303 22.8478 13.6885 23.087 13.6869 23.3838C13.6853 23.6804 13.9245 23.9223 14.2208 23.9241C14.5176 23.9257 14.7594 23.6866 14.761 23.39C14.7621 23.2322 14.6949 23.0899 14.587 22.9909ZM12.0089 23.3745C12.0105 23.0779 11.7713 22.8361 11.4745 22.8342C11.1782 22.8326 10.9358 23.0718 10.9342 23.3686C10.9326 23.6652 11.1718 23.907 11.4686 23.9089C11.7655 23.9105 12.0073 23.6713 12.0089 23.3745ZM11.994 26.0399C11.9956 25.7433 11.7564 25.5014 11.4596 25.4996C11.1633 25.498 10.9214 25.7371 10.9193 26.0337C10.9177 26.3305 11.1569 26.5724 11.4537 26.574C11.7505 26.5759 11.9924 26.3367 11.994 26.0399ZM14.2122 25.5153C14.5091 25.5172 14.7482 25.759 14.7461 26.0556C14.7445 26.3524 14.5026 26.5916 14.2063 26.5898C13.9095 26.5881 13.6703 26.3463 13.6719 26.0497C13.6735 25.7529 13.9154 25.5137 14.2122 25.5153ZM12.8439 24.1748C13.1407 24.1764 13.3799 24.4182 13.3783 24.7151C13.3767 25.0116 13.1349 25.2508 12.838 25.2492C12.5412 25.2476 12.302 25.0058 12.3036 24.7089C12.3052 24.4124 12.5476 24.1732 12.8439 24.1748Z" fill="white"/>
<path style="mix-blend-mode:multiply" fill-rule="evenodd" clip-rule="evenodd" d="M13.9557 20.9167V22.0101H12.0492H11.0429H10.7887L10.7685 22.0099C10.4412 22.0099 10.1684 22.2416 10.1054 22.5499C10.0712 21.9701 10.2565 20.9167 11.0621 20.9167H13.9557Z" fill="url(#paint1_linear_4313_5982)"/>
<path style="mix-blend-mode:multiply" fill-rule="evenodd" clip-rule="evenodd" d="M11.7656 27.4775H14.8882C15.262 27.4775 15.5647 27.1746 15.5647 26.8009V26.7942C15.5988 27.3764 15.4397 28.5709 14.6394 28.5709H11.7656V27.4775Z" fill="url(#paint2_linear_4313_5982)"/>
<path style="mix-blend-mode:multiply" fill-rule="evenodd" clip-rule="evenodd" d="M10.1195 26.9874C10.2007 27.2701 10.4612 27.477 10.7698 27.477H10.7767C10.1969 27.5111 9 27.3494 9 26.5437V23.6501H10.0934V25.5566V26.5629V26.8003V26.8171L10.0928 26.8374C10.0928 26.8897 10.1019 26.9393 10.1195 26.9874Z" fill="url(#paint3_linear_4313_5982)"/>
<path style="mix-blend-mode:multiply" fill-rule="evenodd" clip-rule="evenodd" d="M15.5623 25.8371H16.6556V24.3967V22.967C16.6556 22.167 15.4614 21.9764 14.8789 22.0103H14.8858C15.2596 22.0103 15.5623 22.3133 15.5623 22.687V25.8371Z" fill="url(#paint4_linear_4313_5982)"/>
</g>
<path opacity="0.5" d="M0.960937 5L0.960938 1L4.96094 1" stroke="white" stroke-opacity="0.2"/>
<path opacity="0.5" d="M49 45V49H45" stroke="white" stroke-opacity="0.2"/>
<path opacity="0.5" d="M45 1L49 1V5" stroke="white" stroke-opacity="0.2"/>
<path opacity="0.5" d="M5 49H1L1 45" stroke="white" stroke-opacity="0.2"/>
<defs>
<linearGradient id="paint0_linear_4313_5982" x1="11.1023" y1="24.5794" x2="16.3829" y2="28.2999" gradientUnits="userSpaceOnUse">
<stop stop-color="#9B4CFF"/>
<stop offset="1" stop-color="#4891FF"/>
</linearGradient>
<linearGradient id="paint1_linear_4313_5982" x1="9.51325" y1="21.7601" x2="13.0851" y2="21.761" gradientUnits="userSpaceOnUse">
<stop stop-color="#4C05B0"/>
<stop offset="1" stop-color="white"/>
</linearGradient>
<linearGradient id="paint2_linear_4313_5982" x1="16.176" y1="27.7171" x2="12.6294" y2="27.7161" gradientUnits="userSpaceOnUse">
<stop stop-color="#4C05B0"/>
<stop offset="1" stop-color="white"/>
</linearGradient>
<linearGradient id="paint3_linear_4313_5982" x1="9.84335" y1="28.0925" x2="9.84427" y2="24.5206" gradientUnits="userSpaceOnUse">
<stop stop-color="#4C05B0"/>
<stop offset="1" stop-color="white"/>
</linearGradient>
<linearGradient id="paint4_linear_4313_5982" x1="15.8018" y1="21.4262" x2="15.8009" y2="24.9728" gradientUnits="userSpaceOnUse">
<stop stop-color="#4C05B0"/>
<stop offset="1" stop-color="white"/>
</linearGradient>
<clipPath id="clip0_4313_5982">
<rect width="32" height="7.6638" fill="white" transform="translate(9 20.9224)"/>
</clipPath>
</defs>
</svg>
