<svg width="148.253906" height="64.000000" viewBox="0 0 148.254 64" fill="none" xmlns="http://www.w3.org/2000/svg" xmlns:xlink="http://www.w3.org/1999/xlink">
	<desc>
			Created with Pixso.
	</desc>
	<defs>
		<clipPath id="clip2_1960">
			<rect id="logo" rx="0.000000" width="147.320511" height="63.067341" transform="translate(0.466330 0.466330)" fill="white" fill-opacity="0"/>
		</clipPath>
	</defs>
	<rect id="logo" rx="0.000000" width="147.320511" height="63.067341" transform="translate(0.466330 0.466330)" fill="#FFFFFF" fill-opacity="0"/>
	<g clip-path="url(#clip2_1960)">
		<path id="Vector" d="M28.24 25.29C27.67 24.82 26.98 24.45 26.12 24.22C25.27 23.95 24.44 23.81 23.63 23.81C22.72 23.81 21.89 23.98 21.14 24.31C20.39 24.6 19.72 25.04 19.16 25.61C18.63 26.14 18.21 26.79 17.89 27.57C17.58 28.35 17.42 29.17 17.42 30.08C17.42 30.97 17.6 31.8 17.94 32.58C18.28 33.36 18.76 34.03 19.35 34.59C19.95 35.12 20.64 35.56 21.42 35.89C22.24 36.18 23.1 36.34 24.01 36.34C25.08 36.34 26.04 36.14 26.92 35.72C27.79 35.27 28.55 34.68 29.17 33.94L26.35 33.94L26.35 27.65L38.42 27.65L38.42 37.56C37.7 38.78 36.83 39.9 35.83 40.91C34.83 41.89 33.71 42.74 32.46 43.45C31.24 44.16 29.91 44.72 28.47 45.1C27.03 45.48 25.54 45.68 24.01 45.68C21.76 45.68 19.63 45.27 17.62 44.47C15.62 43.67 13.86 42.56 12.35 41.16C10.88 39.76 9.71 38.11 8.84 36.21C7.99 34.3 7.57 32.24 7.57 30.04C7.57 27.9 7.98 25.88 8.79 23.97C9.61 22.06 10.72 20.41 12.12 19.01C13.56 17.58 15.25 16.47 17.19 15.66C19.17 14.83 21.27 14.41 23.54 14.41C25.3 14.41 26.81 14.58 28.09 14.91C29.37 15.23 30.46 15.61 31.33 16.02C32.36 16.5 33.23 17.02 33.92 17.58L28.24 25.29Z" fill="#FFFFFF" fill-opacity="1.000000" fill-rule="nonzero"/>
		<path id="Vector" d="M41.03 15.15L51.46 15.15L51.46 37.12L60.1 37.12L60.1 44.93L41.03 44.93L41.03 15.15Z" fill="#FFFFFF" fill-opacity="1.000000" fill-rule="nonzero"/>
		<path id="Vector" d="M59.63 30.06C59.63 27.92 60.05 25.9 60.89 23.99C61.76 22.08 62.94 20.44 64.41 19.04C65.91 17.6 67.66 16.5 69.67 15.68C71.67 14.85 73.81 14.43 76.06 14.43C78.32 14.43 80.44 14.85 82.45 15.68C84.45 16.49 86.19 17.6 87.67 19.04C89.18 20.44 90.35 22.08 91.19 23.99C92.06 25.9 92.5 27.92 92.5 30.06C92.5 32.21 92.06 34.23 91.19 36.14C90.34 38.05 89.17 39.7 87.67 41.14C86.2 42.54 84.46 43.66 82.45 44.49C80.45 45.29 78.32 45.7 76.06 45.7C73.81 45.7 71.68 45.29 69.67 44.49C67.67 43.66 65.91 42.54 64.41 41.14C62.94 39.7 61.76 38.05 60.89 36.14C60.05 34.23 59.63 32.21 59.63 30.06ZM69.49 30.06C69.49 30.92 69.66 31.75 70.01 32.53C70.35 33.27 70.82 33.93 71.42 34.49C72.02 35.05 72.71 35.51 73.49 35.83C74.3 36.16 75.17 36.33 76.07 36.33C76.98 36.33 77.83 36.16 78.62 35.83C79.43 35.51 80.13 35.05 80.73 34.49C81.33 33.93 81.8 33.27 82.14 32.53C82.49 31.75 82.66 30.93 82.66 30.06C82.66 29.2 82.49 28.39 82.14 27.65C81.8 26.87 81.33 26.2 80.73 25.64C80.13 25.08 79.43 24.62 78.62 24.3C77.83 23.97 76.98 23.8 76.07 23.8C75.17 23.8 74.3 23.97 73.49 24.3C72.71 24.62 72.02 25.08 71.42 25.64C70.82 26.2 70.35 26.87 70.01 27.65C69.66 28.39 69.49 29.2 69.49 30.06Z" fill="#FFFFFF" fill-opacity="1.000000" fill-rule="nonzero"/>
		<path id="Vector" d="M95.1 15.15L105.9 15.15C107.9 15.15 109.75 15.4 111.44 15.91C113.16 16.42 114.65 17.16 115.9 18.15C117.15 19.13 118.12 20.35 118.81 21.8C119.53 23.24 119.89 24.88 119.89 26.76C119.89 28.25 119.67 29.51 119.23 30.55C118.8 31.59 118.31 32.46 117.77 33.14C117.15 33.91 116.44 34.57 115.66 35.1L121.53 44.92L109.8 44.92L105.1 37.38L105.1 44.92L95.1 44.92L95.1 15.15ZM105.1 29.79L105.61 29.79C106.81 29.79 107.81 29.55 108.61 29.04C109.45 28.53 109.88 27.68 109.88 26.5C109.88 25.31 109.45 24.45 108.61 23.96C107.8 23.45 106.8 23.2 105.61 23.2L105.1 23.2L105.1 29.79Z" fill="#FFFFFF" fill-opacity="1.000000" fill-rule="nonzero"/>
		<path id="Vector" d="M-0.15 9.44C-0.33 9.18 -0.26 8.82 0.03 8.69C1.29 8.13 2.1 8.63 2.57 9.24C2.8 9.53 3.24 9.63 3.58 9.5C3.63 9.48 3.69 9.47 3.73 9.44C4.91 9.09 6.17 9.76 6.54 10.93C6.76 11.63 6.62 12.34 6.23 12.9C5.99 13.22 6 13.73 6.38 13.89C7.51 14.35 8.82 14.44 10.07 14.06C12.09 13.45 13.49 11.79 13.85 9.85C13.88 9.65 13.66 9.5 13.45 9.56C12.39 9.87 11.25 9.27 10.92 8.21C10.58 7.15 11.17 6.03 12.23 5.72C12.38 5.67 12.53 5.65 12.67 5.64C12.77 5.63 12.83 5.5 12.76 5.42C12.58 5.22 12.46 4.98 12.38 4.74C12.3 4.49 12.26 4.22 12.28 3.96C12.31 3.7 12.38 3.44 12.5 3.21C12.63 2.99 12.79 2.77 13 2.61C13.21 2.44 13.44 2.32 13.69 2.25C13.94 2.17 14.21 2.15 14.47 2.17C14.73 2.2 14.99 2.27 15.23 2.4C15.46 2.52 15.67 2.69 15.84 2.9C16.01 3.1 16.14 3.34 16.22 3.58C16.3 3.83 16.33 4.1 16.31 4.36C16.3 4.45 16.42 4.53 16.5 4.49C16.63 4.42 16.77 4.35 16.92 4.32C17.98 4 19.11 4.6 19.45 5.66C19.78 6.72 19.19 7.84 18.14 8.16C17.93 8.21 17.83 8.47 17.98 8.62C19.4 10.02 21.53 10.63 23.55 10.02C24.8 9.65 25.82 8.86 26.5 7.85C26.73 7.52 26.44 7.09 26.05 6.96C25.41 6.72 24.87 6.2 24.65 5.5C24.27 4.33 24.93 3.09 26.1 2.74C26.15 2.73 26.21 2.72 26.25 2.7C26.62 2.62 26.93 2.29 26.94 1.92C26.98 1.17 27.37 0.31 28.72 0.09C29.04 0.03 29.32 0.29 29.31 0.62L29.17 13.91C28.69 13.75 28.17 13.61 27.62 13.47C26.24 13.12 24.61 12.95 22.73 12.95C20.32 12.95 18.05 13.39 15.93 14.28C13.85 15.14 12.03 16.33 10.5 17.86C9.57 18.78 8.77 19.78 8.08 20.9L-0.15 9.44Z" fill="#FFFFFF" fill-opacity="1.000000" fill-rule="evenodd"/>
		<path id="Vector" d="M127.51 32.12L117.78 15.15L128.91 15.15L132.53 21.44L136.1 15.14L147.23 15.14L137.51 32.11L137.51 44.92L127.51 44.92L127.51 32.12Z" fill="#FFFFFF" fill-opacity="1.000000" fill-rule="nonzero"/>
		<path id="Vector" d="M28.76 50.3C30.01 50.3 31.09 50.51 32.01 50.91C32.93 51.31 33.64 51.88 34.15 52.64C34.66 53.38 34.89 54.25 34.89 55.26C34.89 56.26 34.64 57.14 34.15 57.88C33.64 58.62 32.94 59.19 32.01 59.6C31.09 60 30 60.2 28.76 60.2L26.34 60.2L26.34 63.7L22.44 63.7L22.44 50.3L28.76 50.3ZM28.51 57.22C29.32 57.22 29.93 57.05 30.33 56.73C30.73 56.38 30.94 55.89 30.94 55.27C30.94 54.65 30.73 54.16 30.33 53.81C29.93 53.46 29.32 53.29 28.51 53.29L26.34 53.29L26.34 57.22L28.51 57.22Z" fill="#FFFFFF" fill-opacity="1.000000" fill-rule="nonzero"/>
		<path id="Vector" d="M45.36 61.11L39.53 61.11L38.44 63.71L34.46 63.71L40.56 50.31L44.41 50.31L50.52 63.71L46.44 63.71L45.36 61.11ZM44.21 58.31L42.43 54.02L40.65 58.31L44.21 58.31Z" fill="#FFFFFF" fill-opacity="1.000000" fill-rule="nonzero"/>
		<path id="Vector" d="M57.66 60.15L55.52 60.15L55.52 63.7L51.62 63.7L51.62 50.3L57.94 50.3C59.19 50.3 60.27 50.51 61.19 50.91C62.11 51.31 62.82 51.88 63.33 52.64C63.83 53.38 64.07 54.25 64.07 55.26C64.07 56.23 63.83 57.08 63.36 57.81C62.9 58.52 62.24 59.08 61.37 59.49L64.35 63.7L60.17 63.7L57.66 60.15ZM60.13 55.27C60.13 54.65 59.92 54.16 59.52 53.81C59.12 53.46 58.51 53.29 57.71 53.29L55.53 53.29L55.53 57.22L57.71 57.22C58.51 57.22 59.12 57.05 59.52 56.73C59.92 56.38 60.13 55.89 60.13 55.27Z" fill="#FFFFFF" fill-opacity="1.000000" fill-rule="nonzero"/>
		<path id="Vector" d="M68.98 53.32L64.74 53.32L64.74 50.31L77.12 50.31L77.12 53.32L72.89 53.32L72.89 63.71L68.98 63.71L68.98 53.32Z" fill="#FFFFFF" fill-opacity="1.000000" fill-rule="nonzero"/>
		<path id="Vector" d="M91.72 50.3L91.72 63.7L88.5 63.7L82.4 56.56L82.4 63.7L78.57 63.7L78.57 50.3L81.79 50.3L87.89 57.45L87.89 50.3L91.72 50.3Z" fill="#FFFFFF" fill-opacity="1.000000" fill-rule="nonzero"/>
		<path id="Vector" d="M105.58 60.78L105.58 63.71L94.49 63.71L94.49 50.3L105.33 50.3L105.33 53.24L98.36 53.24L98.36 55.5L104.5 55.5L104.5 58.33L98.36 58.33L98.36 60.78L105.58 60.78Z" fill="#FFFFFF" fill-opacity="1.000000" fill-rule="nonzero"/>
		<path id="Vector" d="M113.78 60.15L111.66 60.15L111.66 63.7L107.75 63.7L107.75 50.3L114.07 50.3C115.32 50.3 116.4 50.51 117.32 50.91C118.24 51.31 118.96 51.88 119.45 52.64C119.96 53.38 120.19 54.25 120.19 55.26C120.19 56.23 119.96 57.08 119.48 57.81C119.02 58.52 118.36 59.08 117.48 59.49L120.46 63.7L116.28 63.7L113.78 60.15ZM116.25 55.27C116.25 54.65 116.05 54.16 115.64 53.81C115.24 53.46 114.63 53.29 113.83 53.29L111.66 53.29L111.66 57.22L113.83 57.22C114.63 57.22 115.24 57.05 115.64 56.73C116.05 56.38 116.25 55.89 116.25 55.27Z" fill="#FFFFFF" fill-opacity="1.000000" fill-rule="nonzero"/>
		<path id="Vector" d="M127.21 63.97C126.09 63.97 125 63.84 123.96 63.57C122.9 63.3 122.05 62.95 121.39 62.49L122.68 59.69C123.3 60.09 124.02 60.41 124.83 60.65C125.65 60.89 126.45 61.02 127.25 61.02C128.75 61.02 129.5 60.65 129.5 59.92C129.5 59.54 129.28 59.25 128.84 59.07C128.42 58.88 127.74 58.69 126.78 58.48C125.75 58.26 124.88 58.02 124.18 57.79C123.48 57.53 122.88 57.13 122.38 56.58C121.89 56.03 121.64 55.29 121.64 54.36C121.64 53.54 121.87 52.81 122.32 52.15C122.78 51.49 123.48 50.97 124.38 50.59C125.3 50.2 126.43 50.01 127.76 50.01C128.67 50.01 129.57 50.11 130.45 50.31C131.34 50.51 132.1 50.79 132.78 51.17L131.58 53.98C130.27 53.29 128.98 52.94 127.75 52.94C126.97 52.94 126.41 53.06 126.05 53.29C125.69 53.51 125.52 53.8 125.52 54.15C125.52 54.51 125.73 54.77 126.15 54.95C126.58 55.13 127.26 55.31 128.19 55.51C129.25 55.72 130.1 55.96 130.8 56.22C131.5 56.46 132.09 56.86 132.59 57.4C133.1 57.93 133.36 58.68 133.36 59.6C133.36 60.41 133.13 61.14 132.67 61.78C132.21 62.44 131.52 62.96 130.6 63.35C129.65 63.78 128.53 63.97 127.21 63.97Z" fill="#FFFFFF" fill-opacity="1.000000" fill-rule="nonzero"/>
	</g>
</svg>
