<svg width="27.351562" height="8.865723" viewBox="0 0 27.3516 8.86572" fill="none" xmlns="http://www.w3.org/2000/svg" xmlns:xlink="http://www.w3.org/1999/xlink">
	<desc>
			Created with Pixso.
	</desc>
	<defs/>
	<path id="Vector" d="M17.81 0C15.87 0 14.13 1 14.13 2.86C14.13 5 17.21 5.14 17.21 6.22C17.21 6.67 16.69 7.07 15.81 7.07C14.56 7.07 13.62 6.51 13.62 6.51L13.22 8.38C13.22 8.38 14.3 8.86 15.73 8.86C17.85 8.86 19.53 7.8 19.53 5.91C19.53 3.66 16.44 3.51 16.44 2.52C16.44 2.17 16.86 1.78 17.74 1.78C18.73 1.78 19.55 2.19 19.55 2.19L19.94 0.38C19.94 0.38 19.05 0 17.81 0ZM0.04 0.13L0 0.41C0 0.41 0.81 0.56 1.55 0.85C2.5 1.2 2.56 1.39 2.72 2.01L4.46 8.72L6.79 8.72L10.39 0.13L8.06 0.13L5.75 5.97L4.81 1.02C4.72 0.45 4.28 0.13 3.75 0.13L0.04 0.13ZM11.32 0.13L9.5 8.72L11.71 8.72L13.53 0.13L11.32 0.13L11.32 0.13ZM23.69 0.13C23.16 0.13 22.87 0.42 22.66 0.92L19.41 8.72L21.74 8.72L22.19 7.42L25.02 7.42L25.3 8.72L27.35 8.72L25.56 0.13L23.69 0.13ZM23.99 2.45L24.68 5.67L22.83 5.67L23.99 2.45Z" fill="#FFFFFF" fill-opacity="1.000000" fill-rule="nonzero"/>
</svg>
