<svg width="26.480469" height="16.245117" viewBox="0 0 26.4805 16.2451" fill="none" xmlns="http://www.w3.org/2000/svg" xmlns:xlink="http://www.w3.org/1999/xlink">
	<desc>
			Created with Pixso.
	</desc>
	<defs/>
	<path id="Subtract" d="M50.0156 15.3433C50.0156 6.86938 43.1836 0 34.7539 0C31.1992 -0.00537109 27.7578 1.24146 25.0234 3.52393C22.3789 1.31299 18.9688 0 15.2617 0C6.83203 0 0 6.86963 0 15.3433C0 23.8167 6.83203 30.686 15.2617 30.686C18.9688 30.686 22.3789 29.3726 25.0234 27.1621C27.7578 29.4443 31.1992 30.6914 34.7539 30.686C43.1836 30.686 50.0156 23.8167 50.0156 15.3433ZM34.7539 1.12695C42.5664 1.12695 48.8984 7.49194 48.8984 15.343C48.8984 23.1943 42.5664 29.5586 34.7539 29.5583C31.3672 29.5583 28.2812 28.3662 25.8477 26.3677C27.7031 24.5649 29.1211 22.3071 29.8828 19.7554L28.7109 19.7554C27.9727 22.0242 26.6797 24.0261 25 25.6321C23.3047 24.0117 22.0391 21.9951 21.3125 19.7622L20.1367 19.7622C20.8867 22.2673 22.2617 24.5376 24.1289 26.3577C21.7031 28.3359 18.6328 29.5583 15.2617 29.5583C7.45312 29.5583 1.12109 23.1941 1.12109 15.3428C1.12109 7.4917 7.45312 1.12671 15.2617 1.12671C18.6328 1.12671 21.7031 2.34961 24.1289 4.32764C22.2617 6.14771 20.8867 8.41821 20.1367 10.9233L21.3125 10.9231C22.0391 8.69043 23.3047 6.67358 25 5.05322C26.6797 6.65967 27.9727 8.66138 28.7109 10.9302L29.8828 10.9302C29.1211 8.37842 27.7031 6.12061 25.8477 4.31787C28.2812 2.31909 31.3672 1.12695 34.7539 1.12695Z" clip-rule="evenodd" fill="#FFFFFF" fill-opacity="1.000000" fill-rule="evenodd"/>
	<path id="Subtract" d="M10.8516 6.39355L12.2773 6.39355L11.9844 7.78735L12.75 7.78735L12.4961 8.92407L11.7656 8.92407L11.3633 11.051C11.2891 11.4546 11.3281 11.8213 12.1484 11.6929L12.0586 12.7563C11.7461 12.9578 11.3281 13.0132 11 13.0132C10.6719 13.0132 9.59375 12.811 9.86719 11.3811L10.8516 6.39355ZM17.0195 10.6477C17.1836 9.80396 17.5664 7.71362 15.0664 7.71362C12.7695 7.71362 12.4766 10.0061 12.4219 10.3357C12.3672 10.6663 12.332 12.9946 14.793 12.9946C15.3945 13.0132 16.2695 12.9399 16.6172 12.7563L16.8359 11.6748C16.6172 11.7295 15.7969 11.803 15.2305 11.803C15.2148 11.803 15.1992 11.803 15.1836 11.803C14.6133 11.8042 13.7578 11.8057 13.918 10.6477L17.0195 10.6477ZM29.7734 12.9907L30.75 7.72998L31.9844 7.72998L32.1133 8.24854C32.3359 7.98901 32.7578 7.72998 33.4766 7.72998L33.0898 9.10059C33.0742 9.10059 33.0547 9.10034 33.0352 9.1001C32.6758 9.09546 32.0547 9.08765 31.6523 10.5825L31.2109 12.9907L29.7734 12.9907ZM15.7773 9.69434L14.0078 9.69434C14.1719 9.03418 14.5742 8.74048 15.1406 8.74072C15.707 8.74072 15.8711 9.18066 15.7773 9.69434Z" clip-rule="evenodd" fill="#FFFFFF" fill-opacity="1.000000" fill-rule="evenodd"/>
	<path id="Subtract" d="M7.89844 12.874L9.08594 6.5293L6.75 6.5293L5.01953 10.3804L4.74609 6.5293L2.46484 6.5293L1.24219 12.874L2.66406 12.874L3.53906 8.28979L3.92188 12.874L5.27344 12.874L7.26172 8.3999L6.42188 12.874L7.89844 12.874ZM17.1289 8.84009L17.457 7.77637C16.8672 7.55225 16.3906 7.56567 16.1445 7.57275C16.1094 7.57373 16.0781 7.57471 16.0547 7.57471L16.043 7.57471C15.8047 7.57422 14.1406 7.57202 13.8828 8.82178C13.6836 9.7937 14.0352 10.196 14.375 10.3435C14.9219 10.5818 15.2344 10.8022 15.5234 10.949C15.8867 11.1304 15.8203 11.7375 15.3438 11.7375C15.3047 11.7375 15.2461 11.7407 15.168 11.7449C14.8047 11.7651 14.0508 11.8064 13.4648 11.6091L13.2617 12.6907C13.918 12.8743 14.4492 12.8743 14.9414 12.8743C14.957 12.8743 14.9766 12.8745 14.9961 12.8748C15.4375 12.8792 16.9961 12.895 17.2227 11.3892C17.3359 10.6199 17.0039 10.2705 16.7305 10.1055C16.457 9.92188 16 9.66553 15.707 9.53687C15.4141 9.40869 15.1953 8.91357 15.7266 8.76709C16.0547 8.72974 16.7305 8.72974 17.1289 8.84009ZM9.46875 7.7583L9.25 8.89478C9.33203 8.88599 9.45312 8.87061 9.58984 8.85254C10.0234 8.79688 10.6445 8.71606 11.0195 8.72974C11.0664 8.73145 11.1133 8.73242 11.1602 8.7334C11.6094 8.74219 12.043 8.75049 11.8945 9.46289C11.8477 9.46777 11.7656 9.46533 11.6523 9.46191C10.9062 9.43945 8.92578 9.37964 8.57422 11.2964C8.41016 12.3792 9.33984 12.929 10.0703 12.8923C10.8008 12.8555 11 12.7634 11.2578 12.5803L11.4375 12.8735L12.7695 12.8735L13.3359 10.0132C13.4805 9.2981 13.7188 7.57397 11.3281 7.57397C10.8906 7.59326 10.3984 7.57471 9.46875 7.7583ZM11.5664 10.511C11.6016 10.5173 11.6328 10.5227 11.6562 10.5269L11.5469 11.0957C11.457 11.5728 10.7812 11.8772 10.3281 11.7007C9.85156 11.5171 9.98047 10.967 10.4336 10.6553C10.8398 10.3787 11.3008 10.4629 11.5664 10.511Z" clip-rule="evenodd" fill="#FFFFFF" fill-opacity="1.000000" fill-rule="evenodd"/>
	<path id="Subtract" d="M32.0117 8.37183C31.7383 8.16992 31.5742 7.74829 30.8984 7.74829C30.8594 7.74829 30.8164 7.74805 30.7695 7.74756C29.9883 7.73999 28.8555 7.729 28.1992 9.98535C27.7383 11.5791 28.6758 13.0293 29.6953 13.0293C30.1719 13.0112 30.6445 12.8096 30.9375 12.6079L31.1211 13.0293L32.6523 13.0293L33.8906 6.35498L32.3945 6.35498L32.0117 8.37183ZM19.8828 8.15161C19.5156 7.9314 19.2617 7.89526 18.7891 7.89526C18.3125 7.89526 17.2539 8.35083 17.0547 9.63696C16.8164 11.1589 17.8594 11.9106 19.3164 11.4158L19.7383 12.6995C19.2617 12.9192 18.7891 13.0293 18.0039 13.0293C16.5273 13.0293 14.9219 11.7095 15.6484 9.03174C16.1875 7.05884 17.875 6.33618 18.8594 6.3728C20.0273 6.41626 20.4492 6.81274 20.8125 7.21655L19.8828 8.15161ZM31.4102 9.2334C31.5664 9.44482 31.6484 10.0405 31.5039 10.5171C31.2461 11.1589 30.918 11.5808 30.3906 11.5808C29.8984 11.5808 29.4609 11.012 29.6602 10.2603C29.9648 9.1106 30.9727 8.64673 31.4102 9.2334Z" clip-rule="evenodd" fill="#FFFFFF" fill-opacity="1.000000" fill-rule="evenodd"/>
	<path id="Subtract" d="M18.7734 7.2666L18.5547 8.40332C18.6367 8.39429 18.7539 8.37915 18.8945 8.36133L18.8945 8.36133C19.3242 8.30542 19.9492 8.22461 20.3242 8.23828C20.3711 8.23999 20.418 8.24097 20.4648 8.2417C20.9141 8.25049 21.3477 8.25879 21.1992 8.97144C21.1523 8.97607 21.0664 8.97363 20.957 8.97046C20.2109 8.94775 18.2266 8.88794 17.8789 10.8049C17.7148 11.8877 18.6445 12.4375 19.375 12.4006C20.1055 12.364 20.3047 12.272 20.5586 12.0889L20.7422 12.3818L22.0742 12.3818L22.6406 9.52148C22.7852 8.80664 23.0234 7.08252 20.6328 7.08252C20.1953 7.10156 19.7031 7.08301 18.7734 7.2666ZM20.8711 10.0195C20.9023 10.0256 20.9336 10.0312 20.9609 10.0354L20.8516 10.6042C20.7617 11.0813 20.0859 11.3855 19.6289 11.209C19.1562 11.0254 19.2812 10.4756 19.7383 10.1638C20.1445 9.88721 20.6055 9.97119 20.8711 10.0195Z" clip-rule="evenodd" fill="#FFFFFF" fill-opacity="1.000000" fill-rule="evenodd"/>
	<path id="Vector" d="M13.65 9.88L14.16 7.13L14.81 7.13L14.88 7.4C15 7.26 15.21 7.13 15.59 7.13L15.4 7.85C15.21 7.85 14.86 7.8 14.64 8.62L14.41 9.88L13.65 9.88Z" fill="#FFFFFF" fill-opacity="1.000000" fill-rule="evenodd"/>
</svg>
