<svg width="41.625000" height="8.659424" viewBox="0 0 41.625 8.65942" fill="none" xmlns="http://www.w3.org/2000/svg" xmlns:xlink="http://www.w3.org/1999/xlink">
	<desc>
			Created with Pixso.
	</desc>
	<defs/>
	<path id="Subtract" d="M16.168 10.1562C15.0703 14.5381 10.6172 17.2036 6.21875 16.1113C1.82422 15.019 -0.851562 10.5815 0.246094 6.20068C1.33984 1.81885 5.79297 -0.847656 10.1914 0.244629C14.5898 1.33691 17.2656 5.77515 16.168 10.1562ZM10.0195 4.94922C11.1562 5.3396 11.9883 5.92456 11.8242 7.0127C11.707 7.80933 11.2656 8.19507 10.6758 8.33032C11.4844 8.74976 11.8945 9.39258 11.5039 10.5068C11.0156 11.8904 9.86328 12.0071 8.32812 11.7175L7.95312 13.2058L7.05469 12.9822L7.42188 11.5139C7.1875 11.4558 6.94922 11.3948 6.70312 11.3281L6.33594 12.8035L5.4375 12.5798L5.80859 11.0889C5.59766 11.0352 5.38281 10.9783 5.16797 10.9241L3.99609 10.6328L4.44141 9.60547C4.44141 9.60547 5.10547 9.78125 5.09766 9.76831C5.35156 9.83105 5.46484 9.66553 5.50781 9.55493L6.09766 7.20264L6.19141 7.22607C6.15625 7.21216 6.125 7.20264 6.09766 7.19629L6.51953 5.51685C6.53125 5.32617 6.46484 5.08569 6.10156 4.99512C6.11328 4.9856 5.44531 4.83301 5.44531 4.83301L5.68359 3.87476L6.92578 4.18359L6.92578 4.18823C7.11328 4.23438 7.30469 4.27856 7.5 4.323L7.87109 2.84937L8.76953 3.073L8.41016 4.51758C8.64844 4.57178 8.89062 4.62817 9.12891 4.68677L9.48828 3.25171L10.3906 3.4751L10.0195 4.94922ZM7.86328 7.40747C8.47656 7.57031 9.8125 7.92578 10.0469 6.99683C10.2852 6.04639 8.98438 5.75977 8.35156 5.61987C8.28125 5.604 8.21484 5.59033 8.16406 5.57739L7.71875 7.3689C7.75781 7.37939 7.80859 7.39282 7.86328 7.40747ZM7.17188 10.2932C7.90625 10.4868 9.51172 10.9102 9.76953 9.88721C10.0312 8.84253 8.47266 8.49438 7.71484 8.32422C7.62891 8.30518 7.55078 8.28833 7.49219 8.27295L6.99609 10.248C7.04688 10.2605 7.10547 10.2761 7.17188 10.2932Z" clip-rule="evenodd" fill="#FFFFFF" fill-opacity="1.000000" fill-rule="evenodd"/>
	<path id="Vector" d="M12.73 2.61C13.08 2.61 13.39 2.68 13.64 2.8C13.9 2.93 14.11 3.09 14.28 3.3C14.45 3.52 14.58 3.77 14.66 4.05C14.74 4.34 14.78 4.64 14.78 4.97C14.78 5.47 14.68 5.95 14.5 6.4C14.31 6.85 14.05 7.24 13.73 7.57C13.41 7.91 13.03 8.17 12.59 8.36C12.15 8.55 11.67 8.65 11.16 8.65C11.09 8.65 10.98 8.65 10.81 8.65C10.65 8.64 10.46 8.63 10.25 8.6C10.02 8.57 9.79 8.52 9.57 8.47C9.33 8.41 9.11 8.33 8.89 8.22L10.8 0.26L12.5 0L11.82 2.82C11.96 2.76 12.11 2.71 12.26 2.67C12.41 2.63 12.57 2.61 12.73 2.61ZM11.3 7.3C11.56 7.3 11.8 7.24 12.03 7.12C12.26 6.99 12.46 6.82 12.62 6.62C12.78 6.41 12.92 6.17 13.01 5.91C13.1 5.65 13.15 5.37 13.15 5.09C13.15 4.74 13.09 4.47 12.98 4.27C12.86 4.07 12.64 3.97 12.32 3.97C12.22 3.97 12.09 3.99 11.92 4.03C11.76 4.06 11.61 4.14 11.48 4.26L10.75 7.26C10.8 7.27 10.83 7.28 10.87 7.28C10.9 7.29 10.94 7.29 10.97 7.3C11.01 7.3 11.05 7.3 11.1 7.3L11.3 7.3ZM16.55 8.5L14.92 8.5L16.29 2.74L17.93 2.74L16.55 8.5ZM17.33 2.03C17.11 2.04 16.9 1.96 16.72 1.83C16.53 1.7 16.44 1.49 16.44 1.21C16.44 1.06 16.48 0.92 16.54 0.78C16.6 0.65 16.68 0.53 16.78 0.43C16.89 0.33 17.01 0.25 17.14 0.19C17.28 0.13 17.43 0.1 17.58 0.11C17.8 0.11 18.01 0.17 18.19 0.31C18.38 0.44 18.47 0.65 18.47 0.93C18.47 1.08 18.44 1.22 18.37 1.36C18.32 1.49 18.23 1.61 18.13 1.71C18.02 1.81 17.9 1.89 17.77 1.95C17.64 2.01 17.49 2.03 17.33 2.03ZM19.35 1.3L21.06 1.04L20.64 2.74L22.47 2.74L22.14 4.07L20.32 4.07L19.84 6.09C19.8 6.26 19.77 6.41 19.76 6.56C19.76 6.71 19.77 6.83 19.82 6.94C19.86 7.04 19.94 7.13 20.05 7.18C20.17 7.24 20.33 7.27 20.54 7.27C20.72 7.27 20.89 7.26 21.06 7.22C21.23 7.19 21.39 7.14 21.55 7.09L21.68 8.33C21.44 8.42 21.21 8.49 20.96 8.54C20.71 8.6 20.4 8.63 20.05 8.63C19.54 8.63 19.15 8.56 18.87 8.41C18.59 8.26 18.4 8.05 18.28 7.79C18.16 7.53 18.11 7.24 18.12 6.9C18.14 6.56 18.19 6.21 18.28 5.84L19.35 1.3ZM22.4 6.2C22.4 5.7 22.48 5.23 22.64 4.8C22.8 4.36 23.03 3.97 23.33 3.64C23.63 3.32 24 3.06 24.42 2.87C24.85 2.68 25.33 2.58 25.86 2.58C26.19 2.58 26.49 2.61 26.75 2.67C27.01 2.74 27.24 2.82 27.46 2.92L26.89 4.19C26.75 4.13 26.59 4.08 26.44 4.03C26.28 3.99 26.09 3.96 25.86 3.96C25.32 3.96 24.89 4.15 24.57 4.52C24.25 4.89 24.09 5.39 24.09 6.02C24.09 6.4 24.17 6.7 24.33 6.93C24.5 7.16 24.79 7.27 25.22 7.27C25.44 7.27 25.64 7.25 25.84 7.21C26.04 7.16 26.21 7.11 26.37 7.04L26.49 8.35C26.26 8.43 26.04 8.5 25.81 8.56C25.56 8.62 25.26 8.65 24.92 8.65C24.46 8.65 24.08 8.59 23.76 8.46C23.44 8.32 23.19 8.15 22.98 7.92C22.78 7.7 22.63 7.44 22.53 7.14C22.44 6.84 22.4 6.53 22.4 6.2ZM29.63 8.65C29.24 8.65 28.9 8.59 28.62 8.48C28.33 8.36 28.09 8.2 27.91 7.98C27.72 7.77 27.58 7.52 27.48 7.23C27.39 6.94 27.34 6.63 27.34 6.28C27.34 5.84 27.41 5.4 27.55 4.96C27.7 4.52 27.91 4.13 28.19 3.78C28.46 3.43 28.81 3.14 29.21 2.92C29.61 2.69 30.07 2.58 30.59 2.58C30.98 2.58 31.31 2.64 31.6 2.76C31.89 2.87 32.13 3.04 32.32 3.25C32.5 3.46 32.64 3.71 32.74 4C32.83 4.29 32.88 4.61 32.88 4.96C32.88 5.4 32.81 5.84 32.67 6.28C32.53 6.71 32.33 7.11 32.06 7.46C31.79 7.81 31.45 8.09 31.04 8.32C30.64 8.54 30.16 8.65 29.63 8.65ZM30.44 3.96C30.2 3.96 29.99 4.03 29.8 4.17C29.62 4.31 29.47 4.49 29.34 4.7C29.22 4.91 29.12 5.14 29.06 5.39C29 5.64 28.97 5.88 28.97 6.11C28.97 6.48 29.03 6.76 29.14 6.97C29.26 7.17 29.48 7.27 29.78 7.27C30.02 7.27 30.24 7.2 30.42 7.06C30.6 6.92 30.76 6.75 30.88 6.54C31.01 6.33 31.1 6.09 31.16 5.84C31.23 5.59 31.26 5.35 31.26 5.12C31.26 4.76 31.2 4.47 31.08 4.27C30.96 4.07 30.75 3.96 30.44 3.96ZM34.66 8.5L33.03 8.5L34.4 2.74L36.04 2.74L34.66 8.5ZM35.45 2.03C35.23 2.04 35.01 1.96 34.83 1.83C34.65 1.7 34.56 1.49 34.56 1.21C34.56 1.06 34.59 0.92 34.65 0.78C34.71 0.65 34.79 0.53 34.9 0.43C35 0.33 35.12 0.25 35.25 0.19C35.39 0.13 35.54 0.1 35.69 0.11C35.92 0.11 36.12 0.17 36.3 0.31C36.49 0.44 36.58 0.65 36.58 0.93C36.58 1.08 36.55 1.23 36.49 1.36C36.42 1.5 36.34 1.61 36.24 1.71C36.14 1.81 36.01 1.89 35.88 1.95C35.75 2.01 35.6 2.03 35.45 2.03ZM37.21 3C37.34 2.96 37.48 2.92 37.62 2.87C37.79 2.82 37.96 2.78 38.13 2.74C38.32 2.7 38.53 2.67 38.76 2.64C38.99 2.62 39.25 2.6 39.55 2.6C40.4 2.6 41 2.85 41.32 3.35C41.65 3.85 41.71 4.53 41.49 5.39L40.75 8.5L39.1 8.5L39.83 5.45C39.87 5.26 39.91 5.08 39.94 4.9C39.96 4.72 39.96 4.56 39.93 4.43C39.9 4.3 39.83 4.18 39.73 4.1C39.62 4.01 39.46 3.97 39.24 3.97C39.02 3.97 38.8 4 38.59 4.04L37.52 8.5L35.88 8.5L37.21 3Z" fill="#FFFFFF" fill-opacity="1.000000" fill-rule="nonzero"/>
</svg>
