<svg width="29.191406" height="10.978760" viewBox="0 0 29.1914 10.9788" fill="none" xmlns="http://www.w3.org/2000/svg" xmlns:xlink="http://www.w3.org/1999/xlink">
	<desc>
			Created with Pixso.
	</desc>
	<defs/>
	<path id="Vector" d="M6.66 10.86L8.07 6.73L9.48 6.73L10.89 10.86L9.78 10.86L9.58 10.12L7.98 10.12L7.76 10.86L6.66 10.86ZM8.22 9.32L9.34 9.32L8.92 7.96C8.9 7.89 8.88 7.83 8.87 7.76L8.78 7.41C8.76 7.51 8.74 7.61 8.71 7.7C8.69 7.79 8.67 7.88 8.64 7.96L8.22 9.32ZM11.29 10.86L11.29 6.73L12.37 6.73L13.92 8.85C13.95 8.9 14 8.98 14.07 9.11C14.14 9.24 14.21 9.4 14.29 9.58C14.27 9.42 14.25 9.28 14.25 9.12C14.24 8.99 14.23 8.87 14.23 8.77L14.23 6.73L15.31 6.73L15.31 10.85L14.23 10.85L12.67 8.72C12.64 8.67 12.59 8.59 12.52 8.46C12.45 8.33 12.37 8.17 12.3 7.99C12.32 8.16 12.33 8.32 12.34 8.45C12.35 8.58 12.36 8.7 12.36 8.8L12.36 10.84L11.29 10.84L11.29 10.86ZM16.37 9.53C16.54 9.72 16.7 9.86 16.86 9.95C17.02 10.05 17.19 10.09 17.35 10.09C17.5 10.09 17.62 10.05 17.72 9.97C17.82 9.89 17.86 9.78 17.86 9.66C17.86 9.52 17.83 9.42 17.74 9.34C17.66 9.27 17.47 9.19 17.17 9.11C16.77 9.01 16.48 8.87 16.32 8.69C16.15 8.51 16.07 8.27 16.07 7.97C16.07 7.58 16.2 7.25 16.46 7.01C16.73 6.76 17.06 6.63 17.49 6.63C17.71 6.63 17.92 6.67 18.13 6.73C18.33 6.79 18.53 6.88 18.71 7.01L18.36 7.82C18.24 7.72 18.11 7.63 17.96 7.57C17.84 7.51 17.7 7.48 17.56 7.48C17.43 7.48 17.32 7.51 17.23 7.58C17.16 7.64 17.1 7.73 17.11 7.83C17.11 7.93 17.15 8.02 17.22 8.08C17.29 8.14 17.43 8.2 17.65 8.26L17.7 8.27C18.16 8.39 18.46 8.53 18.6 8.68C18.7 8.78 18.77 8.9 18.83 9.04C18.88 9.18 18.91 9.34 18.91 9.51C18.91 9.95 18.76 10.3 18.47 10.57C18.19 10.83 17.8 10.97 17.32 10.97C17.04 10.97 16.78 10.93 16.54 10.83C16.31 10.73 16.08 10.58 15.86 10.37C15.87 10.36 16.37 9.53 16.37 9.53ZM19.53 10.86L19.53 6.73L22.05 6.73L22.05 7.65L20.62 7.65L20.62 8.36L21.97 8.36L21.97 9.24L20.62 9.24L20.62 10.87L19.53 10.86ZM22.66 10.86L22.66 6.73L25.17 6.73L25.17 7.65L23.75 7.65L23.75 8.36L25.1 8.36L25.1 9.24L23.75 9.24L23.75 9.94L25.17 9.94L25.17 10.87L22.66 10.86ZM25.92 10.86L25.92 6.73L27.09 6.73C27.55 6.73 27.87 6.76 28.05 6.8C28.23 6.84 28.39 6.91 28.52 7.01C28.67 7.13 28.78 7.27 28.86 7.45C28.94 7.62 28.99 7.82 28.99 8.02C28.99 8.34 28.91 8.6 28.75 8.8C28.6 9.01 28.37 9.14 28.07 9.21L29.19 10.87L27.92 10.87L26.98 9.25L26.98 10.87L25.92 10.86ZM26.97 8.69L27.17 8.69C27.41 8.69 27.59 8.65 27.71 8.56C27.82 8.48 27.88 8.36 27.88 8.18C27.88 7.97 27.82 7.82 27.72 7.74C27.62 7.65 27.44 7.61 27.2 7.61L26.98 7.61L26.98 8.69L26.97 8.69ZM12.79 0.04L13.53 2.87C13.57 3 13.6 3.13 13.64 3.27C13.67 3.41 13.7 3.56 13.73 3.75C13.76 3.54 13.8 3.36 13.83 3.22C13.86 3.08 13.88 2.97 13.91 2.87L14.61 0.04L16.25 0.04L14.57 5.99L13.07 5.99L12.33 3.45C12.3 3.36 12.26 3.19 12.2 2.93C12.17 2.81 12.16 2.72 12.14 2.66L12.09 2.9C12.04 3.08 12 3.27 11.95 3.45L11.23 5.99L9.71 5.99L8.03 0.04L9.67 0.04L10.35 2.89C10.38 3.04 10.41 3.18 10.44 3.33C10.47 3.48 10.5 3.62 10.52 3.78C10.58 3.48 10.66 3.18 10.73 2.89L11.48 0.04C11.49 0.04 12.79 0.04 12.79 0.04ZM16.85 5.99L16.85 0.04L18.48 0.04L18.48 5.99L16.85 5.99ZM19.78 5.99L19.78 0.04L21.48 0.04C22.14 0.04 22.6 0.07 22.86 0.13C23.12 0.2 23.35 0.3 23.54 0.44C23.76 0.6 23.92 0.82 24.03 1.07C24.15 1.32 24.2 1.6 24.2 1.9C24.2 2.37 24.09 2.74 23.86 3.03C23.64 3.31 23.31 3.51 22.88 3.6L24.5 6L22.67 6L21.31 3.67L21.31 6L19.78 6L19.78 5.99ZM21.3 2.85L21.6 2.85C21.94 2.85 22.2 2.79 22.36 2.67C22.52 2.56 22.6 2.37 22.6 2.11C22.6 1.81 22.52 1.6 22.38 1.48C22.22 1.35 21.98 1.29 21.62 1.29L21.3 1.29L21.3 2.85ZM25.11 5.99L25.11 0.04L28.75 0.04L28.75 1.35L26.69 1.35L26.69 2.38L28.63 2.38L28.63 3.65L26.69 3.65L26.69 4.66L28.75 4.66L28.75 5.99L25.11 5.99ZM7.4 0L0 0L0 1.18L7.4 1.18L7.4 0ZM7.4 2.29L0 2.29L0 3.47L7.4 3.47L7.4 2.29ZM7.4 4.78L0 4.78L0 5.96L7.4 5.96L7.4 4.78Z" fill="#FFFFFF" fill-opacity="1.000000" fill-rule="nonzero"/>
</svg>
