<svg width="47.289062" height="12.909180" viewBox="0 0 47.2891 12.9092" fill="none" xmlns="http://www.w3.org/2000/svg" xmlns:xlink="http://www.w3.org/1999/xlink">
	<desc>
			Created with Pixso.
	</desc>
	<defs/>
	<path id="Subtract" d="M12.1523 24.3845C18.8633 24.3845 24.3047 18.9258 24.3047 12.1924C24.3047 5.45874 18.8633 0 12.1523 0C5.44141 0 0 5.45874 0 12.1924C0 18.9258 5.44141 24.3845 12.1523 24.3845ZM13.4492 8.7561L13.4492 10.5605C16.8125 10.7175 19.332 11.3921 19.332 12.1924C19.332 12.9927 16.8125 13.6519 13.4336 13.793L13.4336 19.5989L10.4492 19.5989L10.4492 13.793C7.10156 13.636 4.56641 12.9771 4.56641 12.1768C4.56641 11.3765 7.08594 10.7175 10.4492 10.5605L10.4492 8.7561L6.32031 8.7561L6.32031 5.99438L17.5781 5.99438L17.5781 8.7561L13.4492 8.7561ZM11.9648 13.3535C12.9336 13.3535 13.3711 13.3223 13.4492 13.3223C16.4062 13.1809 18.6289 12.6631 18.6289 12.0513C18.6289 11.4236 16.4062 10.9058 13.4492 10.7803L13.4492 12.8044C13.3555 12.8201 12.9023 12.8516 11.9805 12.8516C11.2148 12.8516 10.6523 12.8201 10.4648 12.8044L10.4648 10.7803C7.50781 10.9058 5.28516 11.4236 5.28516 12.0513C5.28516 12.679 7.49219 13.1968 10.4648 13.3223C10.6523 13.3379 11.1992 13.3535 11.9648 13.3535Z" clip-rule="evenodd" fill="#FFFFFF" fill-opacity="1.000000" fill-rule="evenodd"/>
	<path id="Vector" d="M18.34 3.57L18.34 5.12L19.84 5.12L19.84 6.28L18.32 6.28L18.32 8.64C18.32 9.17 18.61 9.41 19.03 9.41C19.23 9.41 19.48 9.35 19.68 9.25L20.05 10.4C19.67 10.56 19.35 10.63 18.94 10.64C17.75 10.68 16.98 10 16.98 8.64L16.98 6.28L15.96 6.28L15.96 5.12L16.98 5.12L16.98 3.71L18.34 3.57ZM44.25 5.05L44.35 5.68C44.77 5 45.33 4.9 45.88 4.9C46.44 4.9 46.98 5.13 47.28 5.43L46.67 6.6C46.4 6.37 46.15 6.24 45.71 6.24C45 6.24 44.35 6.62 44.35 7.63L44.35 10.51L43 10.51L43 5.05L44.25 5.05ZM40.94 7.14C40.85 6.43 40.31 6.08 39.53 6.08C38.8 6.08 38.21 6.43 38.01 7.14L40.94 7.14ZM37.99 8.26C38.08 8.93 38.66 9.42 39.61 9.42C40.11 9.42 40.76 9.23 41.07 8.92L41.93 9.77C41.36 10.37 40.42 10.66 39.59 10.66C37.71 10.66 36.59 9.5 36.59 7.75C36.59 6.08 37.72 4.89 39.49 4.89C41.31 4.89 42.45 6.02 42.24 8.27L37.99 8.27L37.99 8.26ZM32.05 2.75L32.05 5.78C32.53 5.15 33.13 4.96 33.74 4.96C35.29 4.96 35.97 6.02 35.97 7.62L35.97 10.5L34.62 10.5L34.62 7.64C34.62 6.64 34.1 6.22 33.39 6.22C32.59 6.22 32.04 6.89 32.04 7.71L32.04 10.5L30.69 10.5L30.69 2.75L32.05 2.75ZM28.47 3.5L28.47 5.05L29.97 5.05L29.97 6.22L28.45 6.22L28.45 8.58C28.45 9.1 28.74 9.35 29.16 9.35C29.36 9.35 29.61 9.28 29.81 9.18L30.18 10.34C29.79 10.49 29.48 10.56 29.07 10.57C27.88 10.61 27.11 9.94 27.11 8.58L27.11 6.22L26.09 6.22L26.09 5.05L27.11 5.05L27.11 3.65L28.47 3.5ZM24.74 7.14C24.65 6.43 24.1 6.08 23.33 6.08C22.6 6.08 22 6.43 21.8 7.14L24.74 7.14ZM21.78 8.26C21.88 8.93 22.46 9.42 23.41 9.42C23.91 9.42 24.56 9.23 24.87 8.92L25.73 9.77C25.16 10.37 24.21 10.66 23.38 10.66C21.5 10.66 20.39 9.5 20.39 7.75C20.39 6.08 21.51 4.89 23.28 4.89C25.1 4.89 26.23 6.02 26.03 8.27L21.78 8.27L21.78 8.26Z" fill="#FFFFFF" fill-opacity="1.000000" fill-rule="nonzero"/>
</svg>
