<svg width="14.687500" height="14.687500" viewBox="0 0 14.6875 14.6875" fill="none" xmlns="http://www.w3.org/2000/svg" xmlns:xlink="http://www.w3.org/1999/xlink">
	<desc>
			Created with Pixso.
	</desc>
	<defs/>
	<path id="Vector" d="M14.68 7.34C14.68 7.46 14.63 7.58 14.55 7.67C14.46 7.76 14.34 7.81 14.21 7.81L7.81 7.81L7.81 14.21C7.81 14.34 7.76 14.46 7.67 14.54C7.58 14.63 7.46 14.68 7.34 14.68C7.21 14.68 7.1 14.63 7.01 14.54C6.92 14.46 6.87 14.34 6.87 14.21L6.87 7.81L0.46 7.81C0.34 7.81 0.22 7.76 0.13 7.67C0.05 7.58 0 7.46 0 7.34C0 7.21 0.05 7.1 0.13 7.01C0.22 6.92 0.34 6.87 0.46 6.87L6.87 6.87L6.87 0.46C6.87 0.34 6.92 0.22 7.01 0.13C7.1 0.04 7.21 0 7.34 0C7.46 0 7.58 0.04 7.67 0.13C7.76 0.22 7.81 0.34 7.81 0.46L7.81 6.87L14.21 6.87C14.34 6.87 14.46 6.92 14.55 7.01C14.63 7.1 14.68 7.21 14.68 7.34Z" fill="#FFFFFF" fill-opacity="1.000000" fill-rule="nonzero"/>
</svg>
