<svg width="32" height="9" viewBox="0 0 32 9" fill="none" xmlns="http://www.w3.org/2000/svg">
<g clip-path="url(#clip0_4313_5983)">
<path d="M10.8334 8.57097C10.6898 8.57097 10.5571 8.54812 10.4353 8.50244C10.3154 8.45502 10.2109 8.38911 10.1218 8.30479C10.0328 8.21868 9.96369 8.11766 9.91463 8.0017C9.86737 7.88397 9.84375 7.75482 9.84375 7.61427C9.84375 7.47721 9.8692 7.35071 9.92009 7.23476C9.97096 7.11878 10.0409 7.01863 10.13 6.9343C10.2209 6.8482 10.3272 6.78145 10.449 6.73399C10.5726 6.68657 10.707 6.66284 10.8524 6.66284C10.9433 6.66284 11.0324 6.67427 11.1196 6.69709C11.2069 6.71994 11.2877 6.75419 11.3623 6.7999C11.4386 6.84382 11.504 6.89652 11.5585 6.95802L11.275 7.27166C11.2368 7.23298 11.196 7.19961 11.1523 7.17151C11.1105 7.14163 11.0642 7.11878 11.0133 7.10298C10.9624 7.08715 10.9079 7.07925 10.8497 7.07925C10.777 7.07925 10.708 7.09243 10.6425 7.11878C10.5789 7.14338 10.5226 7.17941 10.4735 7.22683C10.4262 7.27253 10.389 7.32876 10.3617 7.39551C10.3345 7.46229 10.3208 7.53697 10.3208 7.61954C10.3208 7.70037 10.3345 7.77415 10.3617 7.84092C10.389 7.90592 10.4271 7.96215 10.4762 8.0096C10.5253 8.05703 10.5844 8.09306 10.6534 8.11766C10.7243 8.14226 10.8025 8.15456 10.8879 8.15456C10.946 8.15456 11.0015 8.14666 11.0542 8.13083C11.1069 8.11503 11.1551 8.09393 11.1987 8.06758C11.2441 8.03948 11.2841 8.00785 11.3186 7.9727L11.5422 8.31531C11.4967 8.36451 11.4358 8.40844 11.3595 8.44709C11.285 8.48574 11.2014 8.51649 11.1087 8.53934C11.0178 8.56042 10.9261 8.57097 10.8334 8.57097Z" fill="white"/>
<path d="M12.4727 8.54434L13.2278 6.69946H13.6204L14.3701 8.54434H13.9012L13.5413 7.60871C13.5268 7.57181 13.5123 7.53228 13.4977 7.49011C13.4832 7.44796 13.4686 7.40491 13.4541 7.36098C13.4396 7.3153 13.425 7.27138 13.4105 7.2292C13.3978 7.18528 13.3869 7.14485 13.3777 7.10797L13.4595 7.10532C13.4486 7.14925 13.4359 7.1923 13.4214 7.23448C13.4087 7.27663 13.395 7.3188 13.3805 7.36098C13.3678 7.40138 13.3532 7.44268 13.3369 7.48483C13.3205 7.52526 13.3051 7.56744 13.2905 7.61136L12.9307 8.54434H12.4727ZM12.8325 8.19118L12.977 7.85382H13.8548L13.9966 8.19118H12.8325Z" fill="white"/>
<path d="M16.0991 8.57038C15.9737 8.57038 15.8601 8.55633 15.7583 8.52821C15.6584 8.49836 15.5693 8.45618 15.4912 8.4017C15.413 8.34548 15.3431 8.2796 15.2812 8.20405L15.5621 7.89569C15.6529 8.01342 15.7438 8.09247 15.8347 8.13287C15.9274 8.1733 16.0228 8.1935 16.1209 8.1935C16.17 8.1935 16.2145 8.18735 16.2545 8.17505C16.2945 8.16275 16.3254 8.14517 16.3472 8.12235C16.369 8.09775 16.3799 8.06787 16.3799 8.03275C16.3799 8.00637 16.3726 7.98267 16.3581 7.96157C16.3454 7.94049 16.3272 7.92204 16.3036 7.90622C16.2799 7.89042 16.2518 7.87637 16.2191 7.86407C16.1863 7.85002 16.1518 7.83859 16.1155 7.82979C16.0791 7.81926 16.0419 7.81046 16.0037 7.80344C15.8983 7.78061 15.8065 7.75249 15.7284 7.71911C15.6502 7.68571 15.5848 7.64531 15.5321 7.59786C15.4812 7.54868 15.443 7.49333 15.4176 7.43183C15.3921 7.36858 15.3794 7.2983 15.3794 7.221C15.3794 7.13839 15.3985 7.06284 15.4366 6.99434C15.4766 6.92404 15.5293 6.86431 15.5948 6.81511C15.662 6.76416 15.7393 6.72551 15.8265 6.69916C15.9137 6.67103 16.0046 6.65698 16.0991 6.65698C16.2245 6.65698 16.3317 6.67016 16.4208 6.69651C16.5117 6.72111 16.5889 6.75714 16.6525 6.80456C16.718 6.85201 16.7734 6.90911 16.8188 6.97589L16.5326 7.24207C16.4944 7.1964 16.4526 7.15862 16.4072 7.12875C16.3636 7.09887 16.3163 7.07604 16.2654 7.06022C16.2163 7.04442 16.1655 7.03649 16.1127 7.03649C16.0582 7.03649 16.011 7.04352 15.971 7.05759C15.9328 7.06989 15.9028 7.08835 15.881 7.11292C15.8592 7.13577 15.8483 7.1639 15.8483 7.19727C15.8483 7.22715 15.8574 7.25262 15.8756 7.2737C15.8937 7.29477 15.9183 7.3141 15.9492 7.33168C15.9801 7.3475 16.0155 7.36155 16.0555 7.37385C16.0955 7.3844 16.1373 7.39318 16.1809 7.4002C16.2809 7.41953 16.3708 7.445 16.4508 7.47663C16.5326 7.50826 16.6025 7.54691 16.6607 7.59261C16.7207 7.63828 16.7661 7.69276 16.797 7.75601C16.8297 7.81749 16.8461 7.88954 16.8461 7.97212C16.8461 8.10037 16.8134 8.20933 16.748 8.29893C16.6843 8.38678 16.5962 8.45443 16.4835 8.50186C16.3726 8.54753 16.2445 8.57038 16.0991 8.57038Z" fill="white"/>
<path d="M17.9883 8.54434V8.16745V7.07635V6.69946H18.4517V7.07635V8.16745V8.54434H17.9883Z" fill="white"/>
<path d="M19.625 8.54434V6.69946H20.0394L21.0399 8.01722L20.9499 8.00405C20.9408 7.94607 20.9336 7.89072 20.9281 7.83802C20.9227 7.78529 20.9172 7.73347 20.9118 7.68251C20.9081 7.63156 20.9045 7.57974 20.9009 7.52701C20.8991 7.47431 20.8972 7.41721 20.8954 7.3557C20.8954 7.2942 20.8954 7.22745 20.8954 7.1554V6.69946H21.3452V8.54434H20.9254L19.8813 7.1844L20.0203 7.20285C20.0294 7.28718 20.0367 7.35923 20.0421 7.41896C20.0494 7.47693 20.0548 7.52876 20.0585 7.57446C20.0639 7.62014 20.0675 7.66144 20.0694 7.69831C20.0712 7.73521 20.0721 7.77212 20.0721 7.80902C20.0739 7.84417 20.0748 7.88369 20.0748 7.92762V8.54434H19.625Z" fill="white"/>
<path d="M23.3439 8.57038C23.1985 8.57038 23.0658 8.54666 22.9459 8.49923C22.8259 8.45178 22.7214 8.38503 22.6324 8.29893C22.5433 8.21282 22.4742 8.1118 22.4252 7.99584C22.3761 7.87986 22.3516 7.75249 22.3516 7.61368C22.3516 7.47488 22.3761 7.3475 22.4252 7.23152C22.4742 7.11557 22.5433 7.01454 22.6324 6.92844C22.7214 6.84234 22.8259 6.77559 22.9459 6.72813C23.0658 6.68071 23.1976 6.65698 23.3412 6.65698C23.4848 6.65698 23.6165 6.68071 23.7365 6.72813C23.8564 6.77559 23.9609 6.84234 24.05 6.92844C24.139 7.01454 24.2072 7.11557 24.2544 7.23152C24.3035 7.3475 24.3281 7.47488 24.3281 7.61368C24.3281 7.75074 24.3035 7.87812 24.2544 7.99584C24.2072 8.1118 24.139 8.21282 24.05 8.29893C23.9609 8.38503 23.8564 8.45178 23.7365 8.49923C23.6165 8.54666 23.4857 8.57038 23.3439 8.57038ZM23.3412 8.1487C23.4157 8.1487 23.4838 8.13552 23.5456 8.10917C23.6092 8.08282 23.6638 8.04592 23.7092 7.99847C23.7565 7.94927 23.7928 7.89217 23.8182 7.82716C23.8437 7.76216 23.8564 7.69098 23.8564 7.61368C23.8564 7.53638 23.8437 7.4652 23.8182 7.4002C23.7928 7.3352 23.7565 7.27897 23.7092 7.23152C23.6638 7.18232 23.6092 7.14454 23.5456 7.11819C23.4838 7.09184 23.4157 7.07867 23.3412 7.07867C23.2667 7.07867 23.1976 7.09184 23.134 7.11819C23.0722 7.14454 23.0177 7.18232 22.9704 7.23152C22.9232 7.27897 22.8868 7.3352 22.8613 7.4002C22.8377 7.4652 22.8259 7.53638 22.8259 7.61368C22.8259 7.69098 22.8377 7.76304 22.8613 7.82979C22.8868 7.89482 22.9232 7.95104 22.9704 7.99847C23.0177 8.04592 23.0722 8.08282 23.134 8.10917C23.1976 8.13552 23.2667 8.1487 23.3412 8.1487Z" fill="white"/>
<path d="M9.84375 4.69091V0.990967H11.4494C11.6988 0.990967 11.9101 1.02797 12.0833 1.10197C12.2565 1.17244 12.3864 1.27639 12.4731 1.41382C12.5631 1.54772 12.6082 1.70981 12.6082 1.9001C12.6082 2.11152 12.5562 2.28947 12.4523 2.43395C12.3518 2.57842 12.2046 2.67532 12.0106 2.72466L12.0002 2.62423C12.163 2.65947 12.3033 2.72113 12.4211 2.80923C12.5423 2.89732 12.6359 3.00656 12.7017 3.13694C12.7675 3.26379 12.8004 3.40827 12.8004 3.57036C12.8004 3.75711 12.7693 3.92098 12.7069 4.06192C12.6445 4.19935 12.5545 4.31563 12.4367 4.41079C12.3189 4.50591 12.1803 4.5764 12.021 4.62219C11.8651 4.668 11.6919 4.69091 11.5014 4.69091H9.84375ZM10.6752 3.94036H11.4702C11.5672 3.94036 11.6486 3.92451 11.7144 3.89277C11.7837 3.86106 11.8374 3.81525 11.8755 3.75536C11.9136 3.69192 11.9326 3.61617 11.9326 3.52808C11.9326 3.44703 11.9119 3.37831 11.8703 3.32193C11.8322 3.26555 11.7768 3.22327 11.704 3.19508C11.6313 3.16336 11.5447 3.14751 11.4442 3.14751H10.6752V3.94036ZM10.6752 2.47623H11.3247C11.4148 2.47623 11.491 2.46214 11.5533 2.43395C11.6191 2.40223 11.6676 2.35995 11.6988 2.30709C11.7335 2.25071 11.7508 2.18376 11.7508 2.10624C11.7508 1.99348 11.7127 1.90538 11.6365 1.84196C11.5603 1.775 11.4459 1.74153 11.2935 1.74153H10.6752V2.47623Z" fill="white"/>
<path d="M13.0742 4.69091L14.5136 0.990967H15.2618L16.6908 4.69091H15.7971L15.1111 2.81451C15.0835 2.74051 15.0557 2.66123 15.028 2.57666C15.0003 2.49209 14.9726 2.40576 14.9449 2.31766C14.9172 2.22604 14.8895 2.13795 14.8617 2.05338C14.8375 1.96529 14.8167 1.88424 14.7994 1.81024L14.9553 1.80496C14.9345 1.89305 14.9102 1.97938 14.8825 2.06395C14.8583 2.14852 14.8323 2.23309 14.8046 2.31766C14.7803 2.39871 14.7526 2.48152 14.7214 2.56609C14.6903 2.64713 14.6608 2.7317 14.6331 2.8198L13.9472 4.69091H13.0742ZM13.7601 3.98265L14.0355 3.30608H15.7087L15.9789 3.98265H13.7601Z" fill="white"/>
<path d="M17.1953 4.69091V0.990967H17.9851L19.8922 3.63379L19.7207 3.60736C19.7034 3.49108 19.6895 3.38008 19.6791 3.27436C19.6687 3.16865 19.6583 3.0647 19.6479 2.96251C19.641 2.86032 19.6341 2.75637 19.6272 2.65066C19.6237 2.54494 19.6202 2.43042 19.6168 2.30709C19.6168 2.18376 19.6168 2.04986 19.6168 1.90538V0.990967H20.4741V4.69091H19.6739L17.6837 1.96352L17.9488 2.00052C17.9661 2.16966 17.9799 2.31414 17.9903 2.43395C18.0042 2.55023 18.0146 2.65418 18.0215 2.7458C18.0319 2.83742 18.0388 2.92023 18.0423 2.99423C18.0458 3.06822 18.0475 3.14222 18.0475 3.21622C18.051 3.2867 18.0527 3.36598 18.0527 3.45408V4.69091H17.1953Z" fill="white"/>
<path d="M23.1296 4.74355C22.8386 4.74355 22.5754 4.69599 22.3398 4.60084C22.1043 4.50569 21.9016 4.37181 21.7319 4.19913C21.5621 4.02646 21.4322 3.82386 21.3421 3.59128C21.2521 3.35519 21.207 3.09972 21.207 2.82486C21.207 2.55001 21.2538 2.29806 21.3473 2.06902C21.4443 1.83645 21.5812 1.63383 21.7578 1.46117C21.9345 1.28851 22.1424 1.1546 22.3814 1.05946C22.6239 0.964319 22.8872 0.916748 23.1712 0.916748C23.3721 0.916748 23.5609 0.943176 23.7376 0.996033C23.9177 1.04889 24.0806 1.12113 24.2261 1.21274C24.3716 1.30436 24.4945 1.41008 24.595 1.52988L24.0598 2.10602C23.9732 2.02145 23.8831 1.95097 23.7896 1.89459C23.6995 1.83821 23.6025 1.79416 23.4986 1.76245C23.3947 1.72721 23.2838 1.70959 23.166 1.70959C23.0136 1.70959 22.8733 1.73778 22.7451 1.79416C22.6204 1.85055 22.5096 1.92983 22.4126 2.03202C22.319 2.13068 22.2463 2.24873 22.1943 2.38616C22.1424 2.52006 22.1164 2.66629 22.1164 2.82486C22.1164 2.98343 22.1441 3.13143 22.1995 3.26886C22.2549 3.40629 22.3312 3.52609 22.4281 3.62828C22.5251 3.72693 22.6395 3.80623 22.7711 3.86615C22.9062 3.92251 23.05 3.95069 23.2024 3.95069C23.3098 3.95069 23.4102 3.93309 23.5038 3.89786C23.6008 3.86262 23.6839 3.81503 23.7532 3.75514C23.8225 3.69523 23.8779 3.62476 23.9195 3.54371C23.961 3.45914 23.9818 3.36929 23.9818 3.27414V3.13672L24.0962 3.31643H23.0933V2.61344H24.8028C24.8098 2.6522 24.815 2.70506 24.8184 2.77201C24.8219 2.83896 24.8236 2.90415 24.8236 2.96758C24.8271 3.03101 24.8288 3.07858 24.8288 3.11029C24.8288 3.3499 24.7855 3.57014 24.6989 3.771C24.6158 3.96832 24.498 4.13922 24.3456 4.28371C24.1931 4.42817 24.013 4.54092 23.8052 4.62197C23.5973 4.70302 23.3721 4.74355 23.1296 4.74355Z" fill="white"/>
<path d="M25.5586 4.69091V0.990967H28.0943V1.75739H26.416V3.92451H28.1462V4.69091H25.5586ZM25.9743 3.17394V2.44452H27.8606V3.17394H25.9743Z" fill="white"/>
<path d="M28.9609 4.69091V0.990967H30.5977C30.8298 0.990967 31.0394 1.04206 31.2267 1.14425C31.4172 1.24644 31.5662 1.38739 31.6733 1.5671C31.7807 1.74329 31.8346 1.94414 31.8346 2.16966C31.8346 2.40223 31.7807 2.6119 31.6733 2.79866C31.5662 2.98189 31.4188 3.12637 31.2319 3.23208C31.0446 3.33779 30.8333 3.39065 30.5977 3.39065H29.8028V4.69091H28.9609ZM30.9771 4.69091L30.0521 3.02065L30.9563 2.88851L31.9852 4.69091H30.9771ZM29.8028 2.70351H30.5198C30.61 2.70351 30.6879 2.68413 30.7538 2.64537C30.823 2.60309 30.8749 2.54495 30.9096 2.47095C30.9476 2.39695 30.9667 2.31238 30.9667 2.21724C30.9667 2.12209 30.946 2.03928 30.9044 1.96881C30.8629 1.89481 30.8022 1.83843 30.7226 1.79967C30.6464 1.76091 30.5529 1.74153 30.4419 1.74153H29.8028V2.70351Z" fill="white"/>
<path d="M6.01355 0.916748H1.64006C0.734279 0.916748 0 1.65103 0 2.55681V6.9303C0 7.83608 0.734279 8.57036 1.64006 8.57036H6.01355C6.91933 8.57036 7.65361 7.83608 7.65361 6.9303V2.55681C7.65361 1.65103 6.91933 0.916748 6.01355 0.916748Z" fill="url(#paint0_linear_4313_5983)"/>
<path fill-rule="evenodd" clip-rule="evenodd" d="M1.77407 2.01099C1.40036 2.01099 1.09766 2.31396 1.09766 2.68767V6.80116C1.09766 7.05048 1.23219 7.26858 1.43293 7.38603C1.5333 7.44447 1.64968 7.47785 1.77407 7.47785H5.8881C6.26182 7.47785 6.56452 7.17488 6.56452 6.80116V2.68767C6.56452 2.31396 6.26182 2.01099 5.8881 2.01099H1.77407ZM5.58699 2.99091C5.4925 2.90389 5.36596 2.8505 5.22716 2.8497C4.93034 2.84783 4.68848 3.08701 4.6869 3.38384C4.68529 3.6804 4.92446 3.92226 5.22076 3.92412C5.51759 3.92573 5.75944 3.68655 5.76103 3.38998C5.76212 3.23222 5.69485 3.08995 5.58699 2.99091ZM3.00893 3.3745C3.01051 3.07793 2.77134 2.83609 2.47452 2.83422C2.17821 2.83262 1.93584 3.07179 1.93424 3.36863C1.93263 3.6652 2.17181 3.90703 2.46864 3.90892C2.76549 3.9105 3.00731 3.67133 3.00893 3.3745ZM2.99397 6.03987C2.99559 5.7433 2.75641 5.50144 2.45957 5.49958C2.16327 5.49797 1.92142 5.73715 1.91929 6.03372C1.91769 6.33055 2.15686 6.5724 2.4537 6.57401C2.75054 6.57587 2.99236 6.3367 2.99397 6.03987ZM5.21221 5.51533C5.50906 5.51719 5.74823 5.75904 5.7461 6.05562C5.74449 6.35244 5.50264 6.59162 5.20633 6.58976C4.90951 6.58814 4.67033 6.34632 4.67195 6.04974C4.67353 5.75292 4.91539 5.51374 5.21221 5.51533ZM3.84391 4.17477C4.14073 4.17638 4.37991 4.41821 4.37832 4.71506C4.37671 5.01161 4.13485 5.25079 3.83803 5.2492C3.54121 5.24759 3.30203 5.00576 3.30362 4.70891C3.30523 4.41236 3.5476 4.17319 3.84391 4.17477Z" fill="white"/>
<path style="mix-blend-mode:multiply" fill-rule="evenodd" clip-rule="evenodd" d="M4.95568 0.916748V2.01012H3.04923H2.04286H1.78874L1.76845 2.00985C1.44119 2.00985 1.16838 2.24156 1.10538 2.54987C1.07121 1.97008 1.25647 0.916748 2.06208 0.916748H4.95568Z" fill="url(#paint1_linear_4313_5983)"/>
<path style="mix-blend-mode:multiply" fill-rule="evenodd" clip-rule="evenodd" d="M2.76562 7.47755H5.88824C6.26196 7.47755 6.56466 7.17457 6.56466 6.80086V6.79419C6.59883 7.37638 6.43974 8.57092 5.63945 8.57092H2.76562V7.47755Z" fill="url(#paint2_linear_4313_5983)"/>
<path style="mix-blend-mode:multiply" fill-rule="evenodd" clip-rule="evenodd" d="M1.11953 6.98739C1.20068 7.27008 1.46121 7.47695 1.76979 7.47695H1.77673C1.19695 7.51112 0 7.34935 0 6.54373V3.65015H1.09337V5.55661V6.56295V6.80026V6.81707L1.09284 6.83738C1.09284 6.8897 1.10191 6.93934 1.11953 6.98739Z" fill="url(#paint3_linear_4313_5983)"/>
<path style="mix-blend-mode:multiply" fill-rule="evenodd" clip-rule="evenodd" d="M6.56226 5.83708H7.65564V4.3967V2.96698C7.65564 2.16697 6.46137 1.97638 5.87891 2.01028H5.88585C6.25956 2.01028 6.56226 2.31325 6.56226 2.68697V5.83708Z" fill="url(#paint4_linear_4313_5983)"/>
</g>
<defs>
<linearGradient id="paint0_linear_4313_5983" x1="2.10234" y1="4.57944" x2="7.38294" y2="8.29988" gradientUnits="userSpaceOnUse">
<stop stop-color="#9B4CFF"/>
<stop offset="1" stop-color="#4891FF"/>
</linearGradient>
<linearGradient id="paint1_linear_4313_5983" x1="0.513249" y1="1.76009" x2="4.08514" y2="1.76102" gradientUnits="userSpaceOnUse">
<stop stop-color="#4C05B0"/>
<stop offset="1" stop-color="white"/>
</linearGradient>
<linearGradient id="paint2_linear_4313_5983" x1="7.17602" y1="7.71705" x2="3.62944" y2="7.71615" gradientUnits="userSpaceOnUse">
<stop stop-color="#4C05B0"/>
<stop offset="1" stop-color="white"/>
</linearGradient>
<linearGradient id="paint3_linear_4313_5983" x1="0.843346" y1="8.09249" x2="0.844272" y2="4.52058" gradientUnits="userSpaceOnUse">
<stop stop-color="#4C05B0"/>
<stop offset="1" stop-color="white"/>
</linearGradient>
<linearGradient id="paint4_linear_4313_5983" x1="6.80177" y1="1.42618" x2="6.80087" y2="4.97277" gradientUnits="userSpaceOnUse">
<stop stop-color="#4C05B0"/>
<stop offset="1" stop-color="white"/>
</linearGradient>
<clipPath id="clip0_4313_5983">
<rect width="32" height="7.6638" fill="white" transform="translate(0 0.922363)"/>
</clipPath>
</defs>
</svg>
