<svg width="12.187500" height="12.187500" viewBox="0 0 12.1875 12.1875" fill="none" xmlns="http://www.w3.org/2000/svg" xmlns:xlink="http://www.w3.org/1999/xlink">
	<desc>
			Created with Pixso.
	</desc>
	<defs/>
	<path id="Vector" d="M12.03 11.37C12.08 11.41 12.12 11.47 12.14 11.52C12.17 11.58 12.18 11.64 12.18 11.71C12.18 11.77 12.17 11.83 12.15 11.89C12.12 11.95 12.09 12 12.05 12.04C12 12.09 11.95 12.12 11.89 12.15C11.83 12.17 11.77 12.18 11.71 12.18C11.64 12.18 11.58 12.17 11.52 12.14C11.46 12.12 11.41 12.08 11.37 12.03L6.08 6.74L0.78 12.03C0.69 12.12 0.58 12.16 0.46 12.16C0.33 12.16 0.22 12.11 0.13 12.02C0.05 11.94 0 11.82 0 11.7C-0.01 11.58 0.04 11.46 0.12 11.37L5.41 6.08L0.12 0.78C0.04 0.69 -0.01 0.58 0 0.46C0 0.33 0.05 0.22 0.13 0.13C0.22 0.05 0.33 0 0.46 0C0.58 -0.01 0.69 0.04 0.78 0.12L6.08 5.41L11.37 0.12C11.46 0.04 11.58 -0.01 11.7 0C11.82 0 11.94 0.05 12.02 0.13C12.11 0.22 12.16 0.33 12.16 0.46C12.16 0.58 12.12 0.69 12.03 0.78L6.74 6.08L12.03 11.37Z" fill="#000000" fill-opacity="1.000000" fill-rule="nonzero"/>
</svg>
