<svg width="32" height="15" viewBox="0 0 32 15" fill="none" xmlns="http://www.w3.org/2000/svg">
<path d="M6.13878 5.50834C6.01653 5.40184 5.86372 5.32196 5.68034 5.26871C5.49696 5.2088 5.31698 5.17885 5.1404 5.17885C4.94344 5.17885 4.76346 5.21546 4.60046 5.28868C4.43746 5.35524 4.29483 5.45176 4.17258 5.57824C4.05712 5.69806 3.96543 5.8445 3.89751 6.01757C3.8296 6.19064 3.79564 6.37702 3.79564 6.57672C3.79564 6.77642 3.83299 6.9628 3.9077 7.13587C3.98241 7.30894 4.08429 7.45871 4.21333 7.58519C4.34237 7.70501 4.49179 7.80153 4.66158 7.87475C4.83817 7.94131 5.02494 7.9746 5.2219 7.9746C5.45282 7.9746 5.66336 7.928 5.85353 7.83481C6.0437 7.73496 6.2067 7.60183 6.34253 7.43542H5.73128V6.03754H8.34948V8.25417C8.19327 8.52709 8.0065 8.77671 7.78916 9.00303C7.57183 9.2227 7.32733 9.41241 7.05566 9.57217C6.79078 9.73193 6.50214 9.85507 6.18972 9.94161C5.8773 10.0281 5.55469 10.0714 5.2219 10.0714C4.73289 10.0714 4.27106 9.98155 3.83639 9.80182C3.40172 9.62209 3.02138 9.3758 2.69538 9.06294C2.37617 8.75009 2.12148 8.38065 1.93131 7.95463C1.74794 7.52861 1.65625 7.06931 1.65625 6.57672C1.65625 6.09745 1.74454 5.6448 1.92113 5.21878C2.09771 4.79276 2.33882 4.42333 2.64444 4.11047C2.95686 3.79095 3.32362 3.54133 3.7447 3.36161C4.17258 3.17522 4.63102 3.08203 5.12002 3.08203C5.50036 3.08203 5.82976 3.11864 6.10822 3.19186C6.38668 3.26509 6.62099 3.34829 6.81116 3.44148C7.03528 3.54799 7.22206 3.66448 7.37148 3.79095L6.13878 5.50834Z" fill="white"/>
<path d="M8.9125 3.24179H11.1741V8.15432H13.0487V9.90167H8.9125V3.24179Z" fill="white"/>
<path d="M12.9481 6.57672C12.9481 6.09745 13.0398 5.6448 13.2232 5.21878C13.4134 4.79276 13.6681 4.42333 13.9873 4.11047C14.3133 3.79095 14.6936 3.54133 15.1283 3.36161C15.5629 3.17522 16.0248 3.08203 16.5138 3.08203C17.0028 3.08203 17.4646 3.17522 17.8993 3.36161C18.334 3.54133 18.7109 3.79095 19.0301 4.11047C19.3561 4.42333 19.6108 4.79276 19.7942 5.21878C19.9843 5.6448 20.0794 6.09745 20.0794 6.57672C20.0794 7.05599 19.9843 7.50864 19.7942 7.93466C19.6108 8.36068 19.3561 8.73345 19.0301 9.05296C18.7109 9.36582 18.334 9.61544 17.8993 9.80182C17.4646 9.98155 17.0028 10.0714 16.5138 10.0714C16.0248 10.0714 15.5629 9.98155 15.1283 9.80182C14.6936 9.61544 14.3133 9.36582 13.9873 9.05296C13.6681 8.73345 13.4134 8.36068 13.2232 7.93466C13.0398 7.50864 12.9481 7.05599 12.9481 6.57672ZM15.0875 6.57672C15.0875 6.76976 15.1249 6.95282 15.1996 7.12589C15.2743 7.2923 15.3762 7.43875 15.5052 7.56522C15.6343 7.69169 15.7837 7.79154 15.9535 7.86476C16.13 7.93799 16.3168 7.9746 16.5138 7.9746C16.7107 7.9746 16.8941 7.93799 17.0639 7.86476C17.2405 7.79154 17.3933 7.69169 17.5224 7.56522C17.6514 7.43875 17.7533 7.2923 17.828 7.12589C17.9027 6.95282 17.94 6.76976 17.94 6.57672C17.94 6.38368 17.9027 6.20395 17.828 6.03754C17.7533 5.86447 17.6514 5.7147 17.5224 5.58822C17.3933 5.46175 17.2405 5.3619 17.0639 5.28868C16.8941 5.21546 16.7107 5.17885 16.5138 5.17885C16.3168 5.17885 16.13 5.21546 15.9535 5.28868C15.7837 5.3619 15.6343 5.46175 15.5052 5.58822C15.3762 5.7147 15.2743 5.86447 15.1996 6.03754C15.1249 6.20395 15.0875 6.38368 15.0875 6.57672Z" fill="white"/>
<path d="M20.6421 3.24179H22.9853C23.4199 3.24179 23.8207 3.29837 24.1874 3.41153C24.561 3.52469 24.8836 3.69111 25.1552 3.91077C25.4269 4.13044 25.6374 4.40336 25.7869 4.72953C25.9431 5.04904 26.0212 5.41848 26.0212 5.83784C26.0212 6.17067 25.9736 6.45358 25.8785 6.68655C25.7835 6.91953 25.6782 7.11257 25.5627 7.26568C25.4269 7.43875 25.2741 7.58519 25.1043 7.70501L26.3777 9.90167H23.8308L22.8121 8.21423V9.90167H20.6421V3.24179ZM22.8121 6.51681H22.9241C23.1822 6.51681 23.3996 6.46023 23.5762 6.34707C23.7595 6.23391 23.8512 6.0442 23.8512 5.77794C23.8512 5.51167 23.7595 5.32196 23.5762 5.2088C23.3996 5.09564 23.1822 5.03906 22.9241 5.03906H22.8121V6.51681Z" fill="white"/>
<path d="M27.6724 7.03602L25.5636 3.24179H27.9781L28.7625 4.64965L29.5368 3.24179H31.9512L29.8424 7.03602V9.90167H27.6724V7.03602Z" fill="white"/>
<path d="M6.36684 -0.00232379C6.4369 -0.0144414 6.49649 0.0447701 6.49574 0.11584L6.46352 3.08947C6.35885 3.05468 6.24654 3.02123 6.1266 2.98986C5.82787 2.91176 5.47407 2.87268 5.06606 2.87268C4.54156 2.87272 4.04942 2.9727 3.59047 3.1715C3.13893 3.36323 2.74584 3.6296 2.41078 3.97033C2.21079 4.17392 2.03584 4.39957 1.88735 4.64807L0.100237 2.09143C0.0598106 2.03321 0.0757761 1.95197 0.140276 1.92248C0.415015 1.79712 0.593357 1.91222 0.694963 2.04943C0.741561 2.11237 0.836166 2.13429 0.90883 2.1051C0.920588 2.10039 0.932662 2.09622 0.944963 2.0924C1.20018 2.01355 1.47392 2.16246 1.55531 2.42541C1.60453 2.58461 1.57176 2.74924 1.48207 2.8717C1.43183 2.94027 1.43316 3.04849 1.51137 3.08166C1.76116 3.18718 2.04524 3.2098 2.32094 3.12463C2.76018 2.98891 3.06348 2.61646 3.14223 2.18322C3.15018 2.13805 3.09929 2.1054 3.05531 2.11877C2.82567 2.18972 2.5798 2.05551 2.50649 1.81897C2.43331 1.58229 2.56006 1.33241 2.78969 1.26135C2.82136 1.25156 2.85361 1.24602 2.88539 1.24377C2.9065 1.24226 2.91903 1.21342 2.9059 1.1969C2.86899 1.15144 2.84128 1.09876 2.82387 1.0426C2.80649 0.986385 2.79955 0.927156 2.80434 0.86877C2.80915 0.810415 2.82498 0.753438 2.85121 0.701778C2.87751 0.650081 2.9139 0.604132 2.95766 0.567012C3.00147 0.529875 3.05244 0.50186 3.10707 0.484981C3.16158 0.468167 3.21902 0.462472 3.27602 0.468379C3.33315 0.474327 3.38915 0.492267 3.44008 0.520137C3.4909 0.547992 3.53598 0.586001 3.57289 0.631465C3.6098 0.676971 3.63852 0.729545 3.6559 0.785762C3.67317 0.841885 3.67927 0.901318 3.67446 0.95959C3.67315 0.980461 3.69922 0.996353 3.71742 0.985957C3.74493 0.969887 3.77559 0.956681 3.80727 0.946895C4.03686 0.876284 4.28198 1.01112 4.35512 1.24768C4.42815 1.48431 4.30151 1.7333 4.07192 1.80432C4.02779 1.81795 4.00432 1.874 4.03676 1.90686C4.3463 2.22012 4.80651 2.35605 5.24574 2.22033C5.52131 2.1351 5.74366 1.95706 5.89028 1.72912C5.93609 1.65762 5.8757 1.56694 5.79555 1.53869C5.65237 1.48819 5.53325 1.37075 5.48403 1.21154C5.40279 0.948541 5.54326 0.671269 5.79848 0.592403C5.81106 0.588514 5.82392 0.58543 5.83656 0.582637C5.91299 0.565696 5.97814 0.493872 5.9811 0.415645C5.98766 0.245233 6.06985 0.0492086 6.36684 -0.00232379Z" fill="white"/>
<path d="M9.68406 14.1601C9.36998 14.1601 9.08731 14.0945 8.83605 13.9631C8.58765 13.829 8.39206 13.6434 8.2493 13.4065C8.10654 13.1696 8.03516 12.9013 8.03516 12.6015C8.03516 12.3018 8.10654 12.0335 8.2493 11.7966C8.39206 11.5596 8.58765 11.3755 8.83605 11.2442C9.08731 11.1101 9.36998 11.043 9.68406 11.043C9.95816 11.043 10.2051 11.0915 10.425 11.1885C10.6448 11.2856 10.8276 11.4255 10.9732 11.6082L10.4336 12.0963C10.2394 11.8622 10.0038 11.7452 9.72689 11.7452C9.56414 11.7452 9.41852 11.7809 9.29003 11.8522C9.1644 11.9236 9.0659 12.0249 8.99452 12.1562C8.92599 12.2847 8.89173 12.4331 8.89173 12.6015C8.89173 12.77 8.92599 12.9198 8.99452 13.0511C9.0659 13.1796 9.1644 13.2795 9.29003 13.3508C9.41852 13.4222 9.56414 13.4579 9.72689 13.4579C10.0038 13.4579 10.2394 13.3409 10.4336 13.1068L10.9732 13.5949C10.8276 13.7776 10.6448 13.9175 10.425 14.0145C10.2051 14.1116 9.95816 14.1601 9.68406 14.1601Z" fill="white"/>
<path d="M13.3098 13.5178H12.042L11.8065 14.1002H10.9413L12.2647 11.1029H13.0999L14.4276 14.1002H13.5453L13.3098 13.5178ZM13.0614 12.8927L12.6759 11.9336L12.2904 12.8927H13.0614Z" fill="white"/>
<path d="M15.7216 14.1601C15.4789 14.1601 15.2433 14.1301 15.0149 14.0702C14.7865 14.0102 14.6009 13.9303 14.4581 13.8304L14.7365 13.2053C14.8707 13.2938 15.0263 13.3651 15.2034 13.4194C15.3804 13.4736 15.5546 13.5007 15.7259 13.5007C16.0514 13.5007 16.2141 13.4194 16.2141 13.2566C16.2141 13.171 16.167 13.1082 16.0728 13.0683C15.9814 13.0254 15.8329 12.9812 15.6274 12.9355C15.4018 12.887 15.2134 12.8356 15.062 12.7814C14.9107 12.7243 14.7808 12.6344 14.6723 12.5116C14.5638 12.3889 14.5095 12.2233 14.5095 12.0149C14.5095 11.8322 14.5595 11.6681 14.6594 11.5225C14.7594 11.3741 14.9078 11.2571 15.1049 11.1714C15.3047 11.0858 15.5488 11.043 15.8372 11.043C16.0342 11.043 16.2284 11.0658 16.4197 11.1115C16.611 11.1543 16.7795 11.2185 16.9251 11.3042L16.6638 11.9336C16.3783 11.7794 16.1013 11.7024 15.8329 11.7024C15.6645 11.7024 15.5417 11.7281 15.4646 11.7794C15.3875 11.828 15.349 11.8922 15.349 11.9721C15.349 12.052 15.3947 12.112 15.486 12.152C15.5774 12.1919 15.7244 12.2333 15.9272 12.2761C16.1556 12.3246 16.344 12.3775 16.4925 12.4345C16.6438 12.4888 16.7737 12.5773 16.8822 12.7C16.9936 12.8199 17.0493 12.984 17.0493 13.1924C17.0493 13.3723 16.9993 13.535 16.8994 13.6805C16.7994 13.8261 16.6495 13.9432 16.4497 14.0317C16.2498 14.1173 16.0071 14.1601 15.7216 14.1601Z" fill="white"/>
<path d="M17.441 11.1029H18.289V14.1002H17.441V11.1029Z" fill="white"/>
<path d="M21.7447 11.1029V14.1002H21.0466L19.7232 12.5031V14.1002H18.8923V11.1029H19.5904L20.9138 12.7V11.1029H21.7447Z" fill="white"/>
<path d="M23.8547 14.1601C23.5378 14.1601 23.2522 14.093 22.9981 13.9589C22.7469 13.8247 22.5484 13.6392 22.4028 13.4022C22.2601 13.1653 22.1887 12.8984 22.1887 12.6015C22.1887 12.3047 22.2601 12.0378 22.4028 11.8008C22.5484 11.5639 22.7469 11.3784 22.9981 11.2442C23.2522 11.1101 23.5378 11.043 23.8547 11.043C24.1716 11.043 24.4557 11.1101 24.707 11.2442C24.9611 11.3784 25.1596 11.5639 25.3023 11.8008C25.4479 12.0378 25.5207 12.3047 25.5207 12.6015C25.5207 12.8984 25.4479 13.1653 25.3023 13.4022C25.1596 13.6392 24.9611 13.8247 24.707 13.9589C24.4557 14.093 24.1716 14.1601 23.8547 14.1601ZM23.8547 13.4579C24.006 13.4579 24.1431 13.4222 24.2659 13.3508C24.3886 13.2795 24.4857 13.1796 24.5571 13.0511C24.6285 12.9198 24.6642 12.77 24.6642 12.6015C24.6642 12.4331 24.6285 12.2847 24.5571 12.1562C24.4857 12.0249 24.3886 11.9236 24.2659 11.8522C24.1431 11.7809 24.006 11.7452 23.8547 11.7452C23.7034 11.7452 23.5663 11.7809 23.4436 11.8522C23.3208 11.9236 23.2237 12.0249 23.1523 12.1562C23.0809 12.2847 23.0452 12.4331 23.0452 12.6015C23.0452 12.77 23.0809 12.9198 23.1523 13.0511C23.2237 13.1796 23.3208 13.2795 23.4436 13.3508C23.5663 13.4222 23.7034 13.4579 23.8547 13.4579Z" fill="white"/>
</svg>
