<svg width="9.000000" height="9.000244" viewBox="0 0 9 9.00024" fill="none" xmlns="http://www.w3.org/2000/svg" xmlns:xlink="http://www.w3.org/1999/xlink">
	<desc>
			Created with Pixso.
	</desc>
	<defs/>
	<path id="Vector" d="M9 0.5L9 7C9 7.13 8.94 7.25 8.85 7.35C8.76 7.44 8.63 7.5 8.5 7.5C8.36 7.5 8.24 7.44 8.14 7.35C8.05 7.25 8 7.13 8 7L8 1.7L0.85 8.85C0.76 8.94 0.63 9 0.5 9C0.36 9 0.24 8.94 0.14 8.85C0.05 8.76 0 8.63 0 8.5C0 8.36 0.05 8.23 0.14 8.14L7.29 1L2 1C1.86 1 1.74 0.94 1.64 0.85C1.55 0.75 1.5 0.63 1.5 0.5C1.5 0.36 1.55 0.24 1.64 0.14C1.74 0.05 1.86 0 2 0L8.5 0C8.63 0 8.76 0.05 8.85 0.14C8.94 0.24 9 0.36 9 0.5Z" fill="#FFFFFF" fill-opacity="1.000000" fill-rule="nonzero"/>
</svg>
