<svg width="11.250000" height="11.250336" viewBox="0 0 11.25 11.2503" fill="none" xmlns="http://www.w3.org/2000/svg" xmlns:xlink="http://www.w3.org/1999/xlink">
	<desc>
			Created with Pixso.
	</desc>
	<defs/>
	<path id="Vector" d="M11.25 0.62L11.25 8.75C11.25 8.91 11.18 9.07 11.06 9.19C10.94 9.3 10.79 9.37 10.62 9.37C10.46 9.37 10.3 9.3 10.18 9.19C10.06 9.07 10 8.91 10 8.75L10 2.13L1.06 11.06C0.94 11.18 0.79 11.25 0.62 11.25C0.46 11.25 0.3 11.18 0.18 11.06C0.06 10.94 0 10.79 0 10.62C0 10.45 0.06 10.3 0.18 10.18L9.11 1.25L2.5 1.25C2.33 1.25 2.17 1.18 2.05 1.06C1.94 0.94 1.87 0.79 1.87 0.62C1.87 0.45 1.94 0.3 2.05 0.18C2.17 0.06 2.33 0 2.5 0L10.62 0C10.79 0 10.94 0.06 11.06 0.18C11.18 0.3 11.25 0.45 11.25 0.62Z" fill="#A385EB" fill-opacity="1.000000" fill-rule="nonzero"/>
</svg>
