<svg width="18.000000" height="18.000000" viewBox="0 0 18 18" fill="none" xmlns="http://www.w3.org/2000/svg" xmlns:xlink="http://www.w3.org/1999/xlink">
	<desc>
			Created with Pixso.
	</desc>
	<defs/>
	<path id="Vector" d="M18 9C18 9.19 17.92 9.38 17.78 9.53C17.64 9.67 17.44 9.75 17.25 9.75L9.75 9.75L9.75 17.25C9.75 17.44 9.67 17.63 9.53 17.78C9.39 17.92 9.19 18 9 18C8.8 18 8.6 17.92 8.46 17.78C8.32 17.63 8.25 17.44 8.25 17.25L8.25 9.75L0.75 9.75C0.55 9.75 0.35 9.67 0.21 9.53C0.07 9.38 0 9.19 0 9C0 8.8 0.07 8.61 0.21 8.46C0.35 8.32 0.55 8.25 0.75 8.25L8.25 8.25L8.25 0.75C8.25 0.55 8.32 0.36 8.46 0.21C8.6 0.07 8.8 0 9 0C9.19 0 9.39 0.07 9.53 0.21C9.67 0.36 9.75 0.55 9.75 0.75L9.75 8.25L17.25 8.25C17.44 8.25 17.64 8.32 17.78 8.46C17.92 8.61 18 8.8 18 9Z" fill="#000000" fill-opacity="1.000000" fill-rule="nonzero"/>
</svg>
