<svg width="1782.316406" height="105.455078" viewBox="0 0 1782.32 105.455" fill="none" xmlns="http://www.w3.org/2000/svg" xmlns:xlink="http://www.w3.org/1999/xlink">
	<desc>
			Created with Pixso.
	</desc>
	<defs/>
	<path id="support@glory.bet" d="M498.93 -0.01L493.87 -0.01C453.85 -0.01 442.47 23.57 442.47 42.2L442.47 45.65C442.47 64.05 453.85 88.31 493.87 88.31L498.93 88.31C538.95 88.31 550.34 64.05 550.34 45.65L550.34 42.2C550.34 23.45 538.95 -0.01 498.93 -0.01ZM1176.47 -0.01L1171.41 -0.01C1131.39 -0.01 1120.01 23.57 1120.01 42.2L1120.01 45.65C1120.01 64.05 1131.39 88.31 1171.41 88.31L1176.47 88.31C1216.49 88.31 1227.88 64.05 1227.88 45.65L1227.88 42.2C1227.88 23.45 1216.49 -0.01 1176.47 -0.01ZM960.79 88.2L962.63 88.2C982.76 88.2 991.73 77.5 993.57 75.09C994.83 77.85 996.1 83.83 996.44 86.93L1015.31 86.93L1015.31 40.24L965.97 40.24L965.97 55.54L989.2 55.54C988.85 58.07 984.37 68.88 964.13 68.88C942.97 68.88 935.84 55.54 935.84 44.38L935.84 42.89C935.84 31.39 942.28 19.54 963.32 19.54C985.52 19.54 988.85 28.63 989.77 30.81L1014.27 30.81L1014.27 30.58C1014.27 16.44 1002.43 0.22 965.16 0.22L961.25 0.22C922.27 0.22 911.23 24.14 911.23 42.31L911.23 45.42C911.23 64.62 923.07 88.2 960.79 88.2ZM44.73 88.43L48.07 88.43C86.36 88.43 92.11 72.44 92.11 59.91L92.11 58.53C92.11 44.61 84.75 34.72 54.28 33.46L42.43 33C28.98 32.42 25.87 29.2 25.87 24.83C25.87 20.12 29.44 17.24 44.62 17.24L45.77 17.24C62.33 17.24 64.4 22.88 64.97 26.67L90.39 26.67L90.39 25.41C90.39 14.14 85.21 0.34 47.38 0.34L43.47 0.34C8.05 0.34 0.92 12.3 0.92 25.64L0.92 26.67C0.92 39.55 9.89 50.71 37.95 51.63L49.33 51.97C63.48 52.55 66.81 55.65 66.81 60.83C66.81 65.77 64.51 71.06 46.69 71.06L45.88 71.06C27.71 71.06 26.1 62.55 25.76 58.76L0 58.76L0 60.02C0 70.26 4.6 88.43 44.73 88.43ZM156.03 88.2L159.36 88.2C199.84 88.2 205.82 61.98 205.82 44.84L205.82 1.37L182.25 1.37L182.25 44.27C182.25 54.04 179.72 68.07 157.98 68.07L157.41 68.07C135.67 68.07 132.91 54.04 132.91 44.27L132.91 1.37L109.22 1.37L109.22 44.84C109.22 61.86 114.05 88.2 156.03 88.2ZM250.06 59.56L284.33 59.56C311.01 59.56 319.75 47.26 319.75 31.04L319.75 29.78C319.75 13.22 311.36 1.37 284.33 1.37L226.37 1.37L226.37 86.93L250.06 86.93L250.06 59.56ZM360.01 59.56L394.28 59.56C420.96 59.56 429.7 47.26 429.7 31.04L429.7 29.78C429.7 13.22 421.3 1.37 394.28 1.37L336.32 1.37L336.32 86.93L360.01 86.93L360.01 59.56ZM662.08 67.96C662.08 55.42 655.07 48.41 643.45 45.76C654.15 43.35 661.51 36.1 661.51 25.41L661.51 24.26C661.51 14.94 657.83 1.37 625.28 1.37L567.67 1.37L567.67 86.93L591.36 86.93L591.36 57.84L622.18 57.84C634.14 57.84 638.16 62.9 638.16 73.94L638.16 80.95C638.16 84.75 638.62 86.36 638.96 86.93L663.46 86.93L663.46 86.36C662.66 84.98 662.08 83.25 662.08 76.81L662.08 67.96ZM707.24 20.92L707.24 86.93L730.81 86.93L730.81 20.92L763.93 20.92L763.93 1.37L674.12 1.37L674.12 20.92L707.24 20.92ZM1058.77 1.37L1035.07 1.37L1035.07 86.93L1111.1 86.93L1111.1 66.81L1058.77 66.81L1058.77 1.37ZM1339.62 67.96C1339.62 55.42 1332.6 48.41 1320.99 45.76C1331.68 43.35 1339.04 36.1 1339.04 25.41L1339.04 24.26C1339.04 14.94 1335.36 1.37 1302.81 1.37L1245.19 1.37L1245.19 86.93L1268.89 86.93L1268.89 57.84L1299.71 57.84C1311.67 57.84 1315.7 62.9 1315.7 73.94L1315.7 80.95C1315.7 84.75 1316.16 86.36 1316.5 86.93L1341 86.93L1341 86.36C1340.19 84.98 1339.62 83.25 1339.62 76.81L1339.62 67.96ZM1386.21 55.65L1386.21 86.93L1409.9 86.93L1409.9 55.77L1450.84 1.37L1424.39 1.37L1398.75 35.3L1373.1 1.37L1343.78 1.37L1386.21 55.65ZM1486.55 1.37L1486.55 86.93L1549.34 86.93C1576.82 86.93 1583.84 73.82 1583.84 62.21L1583.84 60.94C1583.84 47.14 1573.49 41.39 1563.83 39.78C1570.27 38.86 1579.58 33.69 1579.58 22.88L1579.58 21.61C1579.58 12.07 1573.49 1.37 1548.99 1.37L1486.55 1.37ZM1678.74 1.37L1600.42 1.37L1600.42 86.93L1679.43 86.93L1679.43 68.07L1623.77 68.07L1623.77 53.24L1677.01 53.24L1677.01 33.92L1623.77 33.92L1623.77 20L1678.74 20L1678.74 1.37ZM1725.62 20.92L1725.62 86.93L1749.2 86.93L1749.2 20.92L1782.32 20.92L1782.32 1.37L1692.5 1.37L1692.5 20.92L1725.62 20.92ZM769.73 53.47C769.73 79.23 781.92 105.45 834.82 105.45C867.36 105.45 881.85 99.01 886.45 96.25L882.77 84.63C878.29 87.28 865.52 93.95 834.82 93.95C793.76 93.95 784.56 73.59 784.56 53.7L784.56 52.32C784.56 30.47 793.88 12.99 832.98 12.99L834.24 12.99C882.43 12.99 883.69 31.5 883.69 46.45L883.69 46.8C883.69 62.21 877.48 71.41 869.2 71.41C866.56 71.41 865.52 69.34 865.87 66.92L870.35 25.98L848.5 25.98L847.7 33.46C845.28 30.7 839.3 24.6 825.5 24.6L824.01 24.6C807.1 24.6 800.2 35.99 798.94 47.37L798.36 53.12C796.87 66.81 803.31 82.56 822.74 82.56L824.24 82.56C837 82.56 843.56 75.89 845.4 73.71C846.66 76.93 850.46 82.56 862.3 82.56L863.91 82.56C890.13 82.56 897.61 63.13 897.61 47.37L897.61 46.11C897.61 30.01 894.85 1.49 834.24 1.49L832.98 1.49C784.68 1.49 769.73 24.95 769.73 52.09L769.73 53.47ZM1510.24 19.2L1545.54 19.2C1552.56 19.2 1554.86 22.65 1554.86 26.79L1554.86 27.02C1554.86 31.04 1552.79 34.49 1545.54 34.49L1510.24 34.49L1510.24 19.2ZM525.73 43.12L525.73 44.73C525.73 55.08 520.44 68.65 496.4 68.65C472.83 68.65 467.08 55.08 467.08 44.73L467.08 43.12C467.08 32.54 472.48 19.54 496.4 19.54C520.55 19.54 525.73 32.54 525.73 43.12ZM1203.27 43.12L1203.27 44.73C1203.27 55.08 1197.98 68.65 1173.93 68.65C1150.37 68.65 1144.62 55.08 1144.62 44.73L1144.62 43.12C1144.62 32.54 1150.02 19.54 1173.93 19.54C1198.09 19.54 1203.27 32.54 1203.27 43.12ZM591.36 38.4L591.36 20.23L624.36 20.23C634.02 20.23 636.67 24.14 636.67 29.09L636.67 29.32C636.67 34.26 634.02 38.4 624.36 38.4L591.36 38.4ZM1268.89 38.4L1268.89 20.23L1301.9 20.23C1311.56 20.23 1314.2 24.14 1314.2 29.09L1314.2 29.32C1314.2 34.26 1311.56 38.4 1301.9 38.4L1268.89 38.4ZM250.06 40.47L250.06 20.46L282.61 20.46C291.35 20.46 295.14 24.26 295.14 30.24L295.14 30.7C295.14 36.79 291.35 40.47 282.61 40.47L250.06 40.47ZM360.01 40.47L360.01 20.46L392.55 20.46C401.29 20.46 405.09 24.26 405.09 30.24L405.09 30.7C405.09 36.79 401.29 40.47 392.55 40.47L360.01 40.47ZM845.74 54.27C845.17 61.52 841.37 67.61 831.25 67.61C821.94 67.61 819.41 60.25 819.98 53.47L820.21 50.94C820.79 44.61 824.24 39.44 833.44 39.44C842.29 39.44 846.32 44.5 845.86 52.32L845.74 54.27ZM1510.24 51.28L1547.38 51.28C1555.66 51.28 1558.08 54.85 1558.08 59.1L1558.08 59.56C1558.08 63.82 1555.66 68.19 1547.38 68.19L1510.24 68.19L1510.24 51.28ZM1468.35 86.93L1468.35 64.62L1441.56 64.62L1441.56 86.93L1468.35 86.93Z" fill="#FFFFFF" fill-opacity="1.000000" fill-rule="evenodd"/>
</svg>
