<svg width="14.609375" height="17.624023" viewBox="0 0 14.6094 17.624" fill="none" xmlns="http://www.w3.org/2000/svg" xmlns:xlink="http://www.w3.org/1999/xlink">
	<desc>
			Created with Pixso.
	</desc>
	<defs/>
	<path id="Vector" d="M14.44 7.7C14.33 7.81 14.19 7.87 14.04 7.87C13.89 7.87 13.75 7.81 13.65 7.7L7.85 1.92L7.85 17.06C7.85 17.21 7.8 17.35 7.69 17.45C7.58 17.56 7.44 17.62 7.29 17.62C7.14 17.62 7 17.56 6.9 17.45C6.79 17.35 6.73 17.21 6.73 17.06L6.73 1.92L0.94 7.7C0.83 7.8 0.69 7.86 0.55 7.86C0.4 7.85 0.26 7.79 0.16 7.69C0.06 7.59 0 7.45 0 7.3C-0.01 7.16 0.05 7.02 0.15 6.91L6.9 0.16C7 0.05 7.14 0 7.29 0C7.44 0 7.58 0.05 7.69 0.16L14.44 6.91C14.55 7.01 14.6 7.16 14.6 7.31C14.6 7.46 14.55 7.6 14.44 7.7Z" fill="#FFFFFF" fill-opacity="1.000000" fill-rule="nonzero"/>
</svg>
